<svg width="422" height="320" viewBox="0 0 422 320" fill="none" xmlns="http://www.w3.org/2000/svg">
<path d="M1 -20.9497C20.1242 -17.1388 23.8843 -16.0922 32.7988 -11.8801C41.7123 -7.668 48.4049 -0.108958 53.9372 7.80976C68.1464 28.1434 76.2435 51.7529 87.5712 73.6918C98.8988 95.6308 114.794 117.01 138.257 126.635C174.884 141.66 216.115 123.969 253.243 110.046C262.959 106.403 273.285 102.949 283.601 104.399C296.809 106.256 307.607 116.029 313.897 127.323C320.186 138.617 322.738 151.42 325.49 163.954C334.35 204.305 346.931 245.603 375.48 276.409C404.028 307.215 466.366 334.771 534.1 308.705" stroke="black" stroke-opacity="0.1" stroke-miterlimit="10"/>
</svg>
