<svg width="46" height="48" viewBox="0 0 46 48" fill="none" xmlns="http://www.w3.org/2000/svg">
<path d="M36.5722 48H32.0007C30.1827 47.998 28.4397 47.2749 27.1542 45.9894C25.8686 44.7038 25.1455 42.9608 25.1436 41.1428V39.3012C25.1465 38.094 25.3878 36.8993 25.8536 35.7856C26.3194 34.672 27.0005 33.6612 27.8578 32.8114L34.9674 25.8013C35.3989 25.3757 35.9819 25.1389 36.588 25.1431C37.1941 25.1473 37.7737 25.3921 38.1994 25.8237C38.625 26.2553 38.8617 26.8382 38.8575 27.4443C38.8533 28.0505 38.6085 28.6301 38.177 29.0557L31.0677 36.0658C30.6404 36.4896 30.301 36.9935 30.0689 37.5487C29.8368 38.1039 29.7165 38.6994 29.715 39.3012V41.1428C29.7158 41.7488 29.9568 42.3297 30.3853 42.7582C30.8138 43.1867 31.3947 43.4278 32.0007 43.4285H35.6256L39.1358 39.9186C40.4168 38.6295 41.1381 36.8876 41.1436 35.0703V20.5713C41.1436 19.9651 41.3844 19.3837 41.8131 18.9551C42.2417 18.5264 42.8231 18.2856 43.4293 18.2856C44.0355 18.2856 44.6169 18.5264 45.0456 18.9551C45.4742 19.3837 45.715 19.9651 45.715 20.5713V35.0703C45.7192 36.5716 45.4254 38.0588 44.8509 39.4458C44.2763 40.8328 43.4324 42.092 42.3678 43.1506L38.1882 47.3303C37.7596 47.7589 37.1783 47.9998 36.5722 48Z" fill="url(#paint0_linear_118_968)"/>
<path d="M13.7144 48H9.14293C8.53677 47.9998 7.9555 47.7589 7.52692 47.3303L3.34725 43.1506C2.28272 42.092 1.43875 40.8328 0.864194 39.4458C0.289641 38.0588 -0.00407726 36.5716 4.27499e-05 35.0703V20.5713C4.27499e-05 19.9651 0.240859 19.3837 0.669515 18.9551C1.09817 18.5264 1.67955 18.2856 2.28576 18.2856C2.89197 18.2856 3.47336 18.5264 3.90201 18.9551C4.33067 19.3837 4.57148 19.9651 4.57148 20.5713V35.0703C4.57695 36.8876 5.29832 38.6295 6.57926 39.9186L10.0894 43.4285H13.7144C14.3203 43.4278 14.9013 43.1867 15.3298 42.7582C15.7583 42.3297 15.9993 41.7488 16.0001 41.1428V39.3136C15.9984 38.708 15.8773 38.1088 15.6436 37.5501C15.41 36.9915 15.0684 36.4844 14.6385 36.058L7.53812 29.0557C7.10656 28.6301 6.86175 28.0505 6.85755 27.4443C6.85335 26.8382 7.0901 26.2553 7.51572 25.8237C7.94134 25.3921 8.52097 25.1473 9.12709 25.1431C9.73321 25.1389 10.3162 25.3757 10.7477 25.8013L17.8483 32.8036C18.7085 33.656 19.3918 34.6699 19.8591 35.787C20.3264 36.9042 20.5685 38.1026 20.5715 39.3136V41.1428C20.5695 42.9608 19.8465 44.7038 18.5609 45.9894C17.2754 47.2749 15.5324 47.998 13.7144 48Z" fill="url(#paint1_linear_118_968)"/>
<path d="M22.8567 28.2813C19.0018 28.2813 7.12109 20.1139 7.12109 10.1284C7.12153 8.91501 7.29171 7.70763 7.6267 6.54137C8.17561 4.65652 9.3206 3.00032 10.8901 1.821C12.4595 0.641693 14.3689 0.00278954 16.3321 5.14192e-05C17.562 -0.00416798 18.7789 0.251337 19.9033 0.74985C21.0276 1.24836 22.034 1.97865 22.8567 2.89293C23.6793 1.97865 24.6858 1.24836 25.8101 0.74985C26.9345 0.251337 28.1514 -0.00416798 29.3813 5.14192e-05C31.3447 0.00252186 33.2543 0.641455 34.8239 1.82103C36.3934 3.0006 37.5383 4.65723 38.0867 6.54247C38.253 7.12531 38.181 7.75036 37.8865 8.28013C37.592 8.80989 37.0991 9.20096 36.5163 9.36731C35.9335 9.53367 35.3084 9.46167 34.7787 9.16717C34.2489 8.87267 33.8578 8.37978 33.6915 7.79694C33.4184 6.86553 32.8508 6.04774 32.0737 5.46621C31.2966 4.88467 30.3519 4.57074 29.3813 4.57149C28.3803 4.61811 27.4187 4.97505 26.6297 5.5928C25.8408 6.21055 25.2636 7.0585 24.9783 8.01905C24.8086 8.44301 24.5158 8.80643 24.1377 9.06245C23.7595 9.31847 23.3133 9.45535 22.8567 9.45544C22.3997 9.45553 21.9532 9.31861 21.5748 9.06236C21.1964 8.80611 20.9035 8.44231 20.7339 8.01793C20.4489 7.05753 19.8719 6.20969 19.0831 5.5921C18.2943 4.97451 17.3328 4.6178 16.3321 4.57149C15.3615 4.57128 14.4169 4.88555 13.6398 5.46723C12.8628 6.04891 12.2952 6.86668 12.0219 7.79806C11.8041 8.55572 11.6932 9.34009 11.6925 10.1284C11.6925 17.4867 20.9783 23.4911 22.909 23.7121C27.566 21.7448 31.3069 18.0893 33.3813 13.4789C33.4849 13.1957 33.6435 12.9357 33.8481 12.714C34.0526 12.4923 34.299 12.3133 34.573 12.1873C34.8471 12.0613 35.1434 11.9908 35.4448 11.9798C35.7462 11.9688 36.0468 12.0176 36.3293 12.1234C36.6118 12.2291 36.8706 12.3897 37.0907 12.5959C37.3108 12.8022 37.4879 13.0499 37.6119 13.3249C37.7358 13.5999 37.8041 13.8967 37.8127 14.1982C37.8214 14.4997 37.7703 14.8 37.6624 15.0816C34.8579 22.575 26.147 28.2813 22.8567 28.2813Z" fill="url(#paint2_linear_118_968)"/>
<defs>
<linearGradient id="paint0_linear_118_968" x1="35.4293" y1="18.2856" x2="56.2545" y2="41.8569" gradientUnits="userSpaceOnUse">
<stop stop-color="#FE8664"/>
<stop offset="0.942708" stop-color="#F24A5E"/>
</linearGradient>
<linearGradient id="paint1_linear_118_968" x1="10.2858" y1="18.2856" x2="31.1109" y2="41.8569" gradientUnits="userSpaceOnUse">
<stop stop-color="#FE8664"/>
<stop offset="0.942708" stop-color="#F24A5E"/>
</linearGradient>
<linearGradient id="paint2_linear_118_968" x1="22.6478" y1="0" x2="39.6301" y2="30.486" gradientUnits="userSpaceOnUse">
<stop stop-color="#FE8664"/>
<stop offset="0.942708" stop-color="#F24A5E"/>
</linearGradient>
</defs>
</svg>
