<svg width="32" height="52" viewBox="0 0 32 52" fill="none" xmlns="http://www.w3.org/2000/svg">
<path d="M29.0417 15.5208C29.0417 8.05365 22.988 2 15.5208 2C8.05365 2 2 8.05365 2 15.5208C2 25.3542 15.5208 38.875 15.5208 38.875C15.5208 38.875 29.0417 25.3542 29.0417 15.5208Z" stroke="#EA4745" stroke-width="4" stroke-miterlimit="10" stroke-linejoin="round"/>
<path d="M15.5212 20.4375C18.2366 20.4375 20.4378 18.2362 20.4378 15.5208C20.4378 12.8054 18.2366 10.6041 15.5212 10.6041C12.8058 10.6041 10.6045 12.8054 10.6045 15.5208C10.6045 18.2362 12.8058 20.4375 15.5212 20.4375Z" stroke="#EA4745" stroke-width="4" stroke-miterlimit="10" stroke-linejoin="round"/>
<g opacity="0.6" filter="url(#filter0_d_118_1036)">
<ellipse cx="15.5" cy="42.5" rx="6.5" ry="1.5" fill="#1C1D25"/>
</g>
<defs>
<filter id="filter0_d_118_1036" x="5" y="41" width="21" height="11" filterUnits="userSpaceOnUse" color-interpolation-filters="sRGB">
<feFlood flood-opacity="0" result="BackgroundImageFix"/>
<feColorMatrix in="SourceAlpha" type="matrix" values="0 0 0 0 0 0 0 0 0 0 0 0 0 0 0 0 0 0 127 0" result="hardAlpha"/>
<feOffset dy="4"/>
<feGaussianBlur stdDeviation="2"/>
<feComposite in2="hardAlpha" operator="out"/>
<feColorMatrix type="matrix" values="0 0 0 0 0 0 0 0 0 0 0 0 0 0 0 0 0 0 0.25 0"/>
<feBlend mode="normal" in2="BackgroundImageFix" result="effect1_dropShadow_118_1036"/>
<feBlend mode="normal" in="SourceGraphic" in2="effect1_dropShadow_118_1036" result="shape"/>
</filter>
</defs>
</svg>
