<svg width="21" height="25" viewBox="0 0 21 25" fill="none" xmlns="http://www.w3.org/2000/svg">
<path d="M1 3.875V24H17.2917V21.125H20.1667V1H3.875V3.875H1ZM16.3333 23.0417H1.95833V4.83333H3.875H12.9792V8.1875H16.3333V21.125V23.0417ZM13.9375 5.51087L15.6558 7.22917H13.9375V5.51087ZM4.83333 1.95833H19.2083V20.1667H17.2917V7.50996L13.6567 3.875H4.83333V1.95833Z" fill="white" stroke="white" stroke-width="0.5"/>
<path d="M14.4167 10.1041H3.875V11.0625H14.4167V10.1041Z" fill="white" stroke="white" stroke-width="0.5"/>
<path d="M14.4167 12.9791H3.875V13.9375H14.4167V12.9791Z" fill="white" stroke="white" stroke-width="0.5"/>
<path d="M14.4167 15.8541H3.875V16.8125H14.4167V15.8541Z" fill="white" stroke="white" stroke-width="0.5"/>
<path d="M8.1875 19.6875H3.875V20.6458H8.1875V19.6875Z" fill="white" stroke="white" stroke-width="0.5"/>
<path d="M14.417 19.6875H10.1045V20.6458H14.417V19.6875Z" fill="white" stroke="white" stroke-width="0.5"/>
<path d="M11.0628 7.22913H7.22949V8.18746H11.0628V7.22913Z" fill="white" stroke="white" stroke-width="0.5"/>
</svg>
