<svg width="19" height="25" viewBox="0 0 19 25" fill="none" xmlns="http://www.w3.org/2000/svg">
<path d="M17.0166 18.9759L16.3671 21.7229C16.3078 21.9781 16.1958 22.2182 16.0382 22.4276C15.8806 22.6371 15.6808 22.8113 15.4518 22.9392C15.2228 23.0671 14.9694 23.1458 14.7081 23.1702C14.4467 23.1947 14.183 23.1644 13.934 23.0813C11.1832 22.1076 8.69893 20.5036 6.68087 18.3981C4.79651 16.4682 3.36057 14.1481 2.47505 11.6026C1.4893 8.84728 1.16742 5.89945 1.53546 2.99797C1.5724 2.73934 1.66289 2.49127 1.80117 2.26956C1.93945 2.04784 2.12249 1.85734 2.33863 1.71018C2.55478 1.56301 2.79929 1.46241 3.0566 1.41479C3.31391 1.36716 3.57839 1.37354 3.83319 1.43354L6.5856 2.08432C7.03189 2.18523 7.42634 2.44465 7.69543 2.81423C7.96452 3.18382 8.08988 3.63835 8.04816 4.0931C7.95648 4.99965 7.96784 5.91374 8.08203 6.81793C8.12798 7.17485 8.07048 7.53735 7.91634 7.86247C7.76221 8.18759 7.51789 8.46171 7.21236 8.65234L5.77222 9.53972C6.53627 12.1409 7.98931 14.4886 9.97804 16.3352L11.4182 15.4478C11.7258 15.2606 12.0809 15.1654 12.4413 15.1735C12.8016 15.1816 13.1522 15.2927 13.4515 15.4935C14.2106 16.0003 15.0246 16.4198 15.878 16.744C16.3088 16.9121 16.6629 17.2324 16.8728 17.6439C17.0827 18.0554 17.1339 18.5295 17.0166 18.9759Z" stroke="white" stroke-width="2" stroke-linecap="round" stroke-linejoin="round"/>
</svg>
