<svg width="99" height="199" viewBox="0 0 99 199" fill="none" xmlns="http://www.w3.org/2000/svg">
<path d="M-0.464722 198.07C-54.8841 198.07 -98.9997 153.954 -98.9997 99.535C-98.9997 45.1156 -54.8841 1 -0.464722 1C53.9547 1 98.0703 45.1156 98.0703 99.535C98.0703 153.954 53.9547 198.07 -0.464722 198.07Z" stroke="black" stroke-opacity="0.1" stroke-width="0.7039" stroke-miterlimit="10"/>
<path d="M-0.464844 190.95C-50.952 190.95 -91.8798 150.022 -91.8798 99.535C-91.8798 49.0479 -50.952 8.12 -0.464844 8.12C50.0223 8.12 90.9502 49.0479 90.9502 99.535C90.9502 150.022 50.0223 190.95 -0.464844 190.95Z" stroke="black" stroke-opacity="0.1" stroke-width="0.688" stroke-miterlimit="10"/>
<path d="M-0.464905 183.83C-47.0197 183.83 -84.7599 146.09 -84.7599 99.535C-84.7599 52.9802 -47.0197 15.24 -0.464905 15.24C46.0899 15.24 83.8301 52.9802 83.8301 99.535C83.8301 146.09 46.0899 183.83 -0.464905 183.83Z" stroke="black" stroke-opacity="0.1" stroke-width="0.6722" stroke-miterlimit="10"/>
<path d="M-0.465027 176.71C-43.0876 176.71 -77.64 142.158 -77.64 99.535C-77.64 56.9124 -43.0876 22.36 -0.465027 22.36C42.1575 22.36 76.71 56.9124 76.71 99.535C76.71 142.158 42.1575 176.71 -0.465027 176.71Z" stroke="black" stroke-opacity="0.1" stroke-width="0.6564" stroke-miterlimit="10"/>
<path d="M-0.464233 169.591C-39.1551 169.591 -70.5202 138.226 -70.5202 99.535C-70.5202 60.8441 -39.1551 29.479 -0.464233 29.479C38.2266 29.479 69.5918 60.8441 69.5918 99.535C69.5918 138.226 38.2266 169.591 -0.464233 169.591Z" stroke="black" stroke-opacity="0.1" stroke-width="0.6406" stroke-miterlimit="10"/>
<path d="M-0.464355 162.471C-35.2229 162.471 -63.4003 134.294 -63.4003 99.535C-63.4003 64.7764 -35.2229 36.599 -0.464355 36.599C34.2942 36.599 62.4717 64.7764 62.4717 99.535C62.4717 134.294 34.2942 162.471 -0.464355 162.471Z" stroke="black" stroke-opacity="0.1" stroke-width="0.6247" stroke-miterlimit="10"/>
<path d="M-0.464478 155.351C-31.2908 155.351 -56.2805 130.361 -56.2805 99.535C-56.2805 68.7087 -31.2908 43.719 -0.464478 43.719C30.3618 43.719 55.3516 68.7087 55.3516 99.535C55.3516 130.361 30.3618 155.351 -0.464478 155.351Z" stroke="black" stroke-opacity="0.1" stroke-width="0.6089" stroke-miterlimit="10"/>
<path d="M-0.464539 148.231C-27.3586 148.231 -49.1605 126.429 -49.1605 99.535C-49.1605 72.6409 -27.3586 50.839 -0.464539 50.839C26.4295 50.839 48.2314 72.6409 48.2314 99.535C48.2314 126.429 26.4295 148.231 -0.464539 148.231Z" stroke="black" stroke-opacity="0.1" stroke-width="0.5931" stroke-miterlimit="10"/>
<path d="M-0.464722 141.112C-23.4271 141.112 -42.0417 122.497 -42.0417 99.535C-42.0417 76.5727 -23.4271 57.958 -0.464722 57.958C22.4976 57.958 41.1123 76.5727 41.1123 99.535C41.1123 122.497 22.4976 141.112 -0.464722 141.112Z" stroke="black" stroke-opacity="0.1" stroke-width="0.5773" stroke-miterlimit="10"/>
<path d="M-0.464844 133.992C-19.4949 133.992 -34.9218 118.565 -34.9218 99.535C-34.9218 80.5049 -19.4949 65.078 -0.464844 65.078C18.5652 65.078 33.9922 80.5049 33.9922 99.535C33.9922 118.565 18.5652 133.992 -0.464844 133.992Z" stroke="black" stroke-opacity="0.1" stroke-width="0.5615" stroke-miterlimit="10"/>
<path d="M-0.464966 126.872C-15.5628 126.872 -27.8019 114.633 -27.8019 99.535C-27.8019 84.4372 -15.5628 72.198 -0.464966 72.198C14.6328 72.198 26.8721 84.4372 26.8721 99.535C26.8721 114.633 14.6328 126.872 -0.464966 126.872Z" stroke="black" stroke-opacity="0.1" stroke-width="0.5456" stroke-miterlimit="10"/>
<path d="M-0.465088 119.752C-11.6306 119.752 -20.6821 110.701 -20.6821 99.535C-20.6821 88.3694 -11.6306 79.318 -0.465088 79.318C10.7005 79.318 19.752 88.3694 19.752 99.535C19.752 110.701 10.7005 119.752 -0.465088 119.752Z" stroke="black" stroke-opacity="0.1" stroke-width="0.5298" stroke-miterlimit="10"/>
<path d="M-0.465149 112.632C-7.69842 112.632 -13.5621 106.768 -13.5621 99.535C-13.5621 92.3017 -7.69842 86.438 -0.465149 86.438C6.76812 86.438 12.6318 92.3017 12.6318 99.535C12.6318 106.768 6.76812 112.632 -0.465149 112.632Z" stroke="black" stroke-opacity="0.1" stroke-width="0.514" stroke-miterlimit="10"/>
<path d="M-0.464355 105.513C-3.76591 105.513 -6.44232 102.837 -6.44232 99.535C-6.44232 96.2334 -3.76591 93.557 -0.464355 93.557C2.8372 93.557 5.51367 96.2334 5.51367 99.535C5.51367 102.837 2.8372 105.513 -0.464355 105.513Z" stroke="black" stroke-opacity="0.1" stroke-width="0.4982" stroke-miterlimit="10"/>
</svg>
