<svg width="100" height="199" viewBox="0 0 100 199" fill="none" xmlns="http://www.w3.org/2000/svg">
<path d="M99.5353 198.07C45.1159 198.07 1.00031 153.954 1.00031 99.535C1.00031 45.1156 45.1159 1 99.5353 1C153.955 1 198.07 45.1156 198.07 99.535C198.07 153.954 153.955 198.07 99.5353 198.07Z" stroke="black" stroke-opacity="0.1" stroke-width="0.7039" stroke-miterlimit="10"/>
<path d="M99.5352 190.95C49.048 190.95 8.12018 150.022 8.12018 99.535C8.12018 49.0479 49.048 8.12 99.5352 8.12C150.022 8.12 190.95 49.0479 190.95 99.535C190.95 150.022 150.022 190.95 99.5352 190.95Z" stroke="black" stroke-opacity="0.1" stroke-width="0.688" stroke-miterlimit="10"/>
<path d="M99.5351 183.83C52.9803 183.83 15.2401 146.09 15.2401 99.535C15.2401 52.9801 52.9803 15.24 99.5351 15.24C146.09 15.24 183.83 52.9801 183.83 99.535C183.83 146.09 146.09 183.83 99.5351 183.83Z" stroke="black" stroke-opacity="0.1" stroke-width="0.6722" stroke-miterlimit="10"/>
<path d="M99.535 176.71C56.9124 176.71 22.36 142.158 22.36 99.535C22.36 56.9124 56.9124 22.36 99.535 22.36C142.158 22.36 176.71 56.9124 176.71 99.535C176.71 142.158 142.158 176.71 99.535 176.71Z" stroke="black" stroke-opacity="0.1" stroke-width="0.6564" stroke-miterlimit="10"/>
<path d="M99.5358 169.591C60.8449 169.591 29.4798 138.226 29.4798 99.535C29.4798 60.8441 60.8449 29.479 99.5358 29.479C138.227 29.479 169.592 60.8441 169.592 99.535C169.592 138.226 138.227 169.591 99.5358 169.591Z" stroke="black" stroke-opacity="0.1" stroke-width="0.6406" stroke-miterlimit="10"/>
<path d="M99.5356 162.471C64.7771 162.471 36.5997 134.294 36.5997 99.535C36.5997 64.7764 64.7771 36.599 99.5356 36.599C134.294 36.599 162.472 64.7764 162.472 99.535C162.472 134.294 134.294 162.471 99.5356 162.471Z" stroke="black" stroke-opacity="0.1" stroke-width="0.6247" stroke-miterlimit="10"/>
<path d="M99.5355 155.351C68.7092 155.351 43.7195 130.361 43.7195 99.535C43.7195 68.7087 68.7092 43.719 99.5355 43.719C130.362 43.719 155.352 68.7087 155.352 99.535C155.352 130.361 130.362 155.351 99.5355 155.351Z" stroke="black" stroke-opacity="0.1" stroke-width="0.6089" stroke-miterlimit="10"/>
<path d="M99.5355 148.231C72.6414 148.231 50.8395 126.429 50.8395 99.535C50.8395 72.6409 72.6414 50.839 99.5355 50.839C126.43 50.839 148.231 72.6409 148.231 99.535C148.231 126.429 126.43 148.231 99.5355 148.231Z" stroke="black" stroke-opacity="0.1" stroke-width="0.5931" stroke-miterlimit="10"/>
<path d="M99.5353 141.112C76.5729 141.112 57.9583 122.497 57.9583 99.535C57.9583 76.5727 76.5729 57.958 99.5353 57.958C122.498 57.958 141.112 76.5727 141.112 99.535C141.112 122.497 122.498 141.112 99.5353 141.112Z" stroke="black" stroke-opacity="0.1" stroke-width="0.5773" stroke-miterlimit="10"/>
<path d="M99.5352 133.992C80.5051 133.992 65.0782 118.565 65.0782 99.535C65.0782 80.5049 80.5051 65.078 99.5352 65.078C118.565 65.078 133.992 80.5049 133.992 99.535C133.992 118.565 118.565 133.992 99.5352 133.992Z" stroke="black" stroke-opacity="0.1" stroke-width="0.5615" stroke-miterlimit="10"/>
<path d="M99.535 126.872C84.4372 126.872 72.1981 114.633 72.1981 99.535C72.1981 84.4372 84.4372 72.198 99.535 72.198C114.633 72.198 126.872 84.4372 126.872 99.535C126.872 114.633 114.633 126.872 99.535 126.872Z" stroke="black" stroke-opacity="0.1" stroke-width="0.5456" stroke-miterlimit="10"/>
<path d="M99.5349 119.752C88.3694 119.752 79.3179 110.701 79.3179 99.535C79.3179 88.3694 88.3694 79.318 99.5349 79.318C110.7 79.318 119.752 88.3694 119.752 99.535C119.752 110.701 110.7 119.752 99.5349 119.752Z" stroke="black" stroke-opacity="0.1" stroke-width="0.5298" stroke-miterlimit="10"/>
<path d="M99.5349 112.632C92.3016 112.632 86.4379 106.768 86.4379 99.535C86.4379 92.3017 92.3016 86.438 99.5349 86.438C106.768 86.438 112.632 92.3017 112.632 99.535C112.632 106.768 106.768 112.632 99.5349 112.632Z" stroke="black" stroke-opacity="0.1" stroke-width="0.514" stroke-miterlimit="10"/>
<path d="M99.5356 105.513C96.2341 105.513 93.5577 102.837 93.5577 99.535C93.5577 96.2334 96.2341 93.557 99.5356 93.557C102.837 93.557 105.514 96.2334 105.514 99.535C105.514 102.837 102.837 105.513 99.5356 105.513Z" stroke="black" stroke-opacity="0.1" stroke-width="0.4982" stroke-miterlimit="10"/>
</svg>
