<svg viewBox="0 0 14 18" fill="none" xmlns="http://www.w3.org/2000/svg">
<path d="M12.937 13.9603L12.4688 15.9408C12.426 16.1249 12.3453 16.2979 12.2316 16.449C12.118 16.6 11.974 16.7256 11.8089 16.8178C11.6437 16.91 11.4611 16.9667 11.2727 16.9844C11.0842 17.002 10.8941 16.9802 10.7146 16.9202C8.73126 16.2182 6.94017 15.0618 5.48518 13.5438C4.12659 12.1523 3.0913 10.4795 2.45285 8.64433C1.74215 6.65776 1.51007 4.53242 1.77543 2.4405C1.80206 2.25404 1.8673 2.07518 1.967 1.91533C2.0667 1.75548 2.19866 1.61813 2.3545 1.51202C2.51034 1.40592 2.68662 1.33339 2.87214 1.29905C3.05766 1.26471 3.24834 1.26932 3.43205 1.31257L5.41649 1.78178C5.73826 1.85453 6.02265 2.04157 6.21666 2.30803C6.41067 2.57449 6.50106 2.9022 6.47097 3.23007C6.40487 3.88368 6.41307 4.54273 6.49539 5.19463C6.52852 5.45196 6.48706 5.71332 6.37594 5.94773C6.26481 6.18213 6.08866 6.37977 5.86837 6.51721L4.83006 7.15699C5.38093 9.03241 6.42855 10.7251 7.86239 12.0564L8.9007 11.4166C9.12252 11.2817 9.3785 11.213 9.63832 11.2189C9.89814 11.2247 10.1509 11.3048 10.3667 11.4496C10.914 11.815 11.5009 12.1174 12.1162 12.3512C12.4268 12.4724 12.6821 12.7033 12.8334 13C12.9848 13.2967 13.0216 13.6385 12.937 13.9603Z" stroke="currentColor" stroke-width="1.5" stroke-linecap="round" stroke-linejoin="round"/>
</svg>
