<svg width="16" height="13" viewBox="0 0 16 13" fill="none" xmlns="http://www.w3.org/2000/svg">
<path d="M6.15501 12.0041C5.99313 12.0051 5.83266 11.9715 5.6828 11.9051C5.53294 11.8388 5.39664 11.741 5.28171 11.6175L0.361731 6.28474C0.130118 6.03369 -2.44044e-09 5.69321 0 5.33818C2.44044e-09 4.98315 0.130118 4.64266 0.361731 4.39162C0.593343 4.14058 0.907478 3.99954 1.23503 3.99954C1.56258 3.99954 1.87671 4.14058 2.10832 4.39162L6.15501 8.79112L13.8917 0.392077C14.1233 0.141034 14.4374 0 14.765 0C15.0925 0 15.4067 0.141034 15.6383 0.392077C15.8699 0.64312 16 0.983607 16 1.33864C16 1.69366 15.8699 2.03415 15.6383 2.28519L7.0283 11.6175C6.91337 11.741 6.77707 11.8388 6.62721 11.9051C6.47735 11.9715 6.31688 12.0051 6.15501 12.0041Z" fill="currentColor"/>
</svg>
