<svg width="16" height="15" viewBox="0 0 16 15" fill="none" xmlns="http://www.w3.org/2000/svg">
<path d="M13.272 14.9999H2.55968C2.40166 14.9999 2.25011 14.9411 2.13838 14.8363C2.02664 14.7316 1.96387 14.5895 1.96387 14.4413V5.57864C1.96387 5.4305 2.02664 5.28842 2.13838 5.18367C2.25011 5.07891 2.40166 5.02007 2.55968 5.02007C2.7177 5.02007 2.86924 5.07891 2.98098 5.18367C3.09272 5.28842 3.15549 5.4305 3.15549 5.57864V13.8828H12.6762V5.57864C12.6762 5.4305 12.7389 5.28842 12.8507 5.18367C12.9624 5.07891 13.114 5.02007 13.272 5.02007C13.43 5.02007 13.5815 5.07891 13.6933 5.18367C13.805 5.28842 13.8678 5.4305 13.8678 5.57864V14.4413C13.8678 14.5895 13.805 14.7316 13.6933 14.8363C13.5815 14.9411 13.43 14.9999 13.272 14.9999Z" fill="currentColor"/>
<path d="M15.2429 7.98618C15.1646 7.98621 15.0871 7.97179 15.0148 7.94374C14.9425 7.91569 14.8768 7.87457 14.8214 7.82271L7.91559 1.34846L1.00973 7.82271C0.897358 7.92445 0.746854 7.98076 0.590635 7.97948C0.434415 7.97821 0.284978 7.91946 0.174509 7.8159C0.064041 7.71234 0.00138003 7.57224 2.25233e-05 7.42578C-0.00133499 7.27933 0.0587195 7.13823 0.167251 7.03288L7.49296 0.163543C7.60469 0.0588265 7.75621 0 7.9142 0C8.07218 0 8.2237 0.0588265 8.33543 0.163543L15.6643 7.03288C15.7476 7.11102 15.8042 7.21054 15.8272 7.31886C15.8501 7.42718 15.8383 7.53945 15.7932 7.64147C15.7481 7.74349 15.6717 7.83069 15.5738 7.89204C15.4758 7.9534 15.3607 7.98616 15.2429 7.98618Z" fill="currentColor"/>
<path d="M9.64332 15.0001H6.18761C6.02959 15.0001 5.87804 14.9412 5.76631 14.8365C5.65457 14.7317 5.5918 14.5896 5.5918 14.4415V9.6184C5.5918 9.47026 5.65457 9.32819 5.76631 9.22343C5.87804 9.11868 6.02959 9.05983 6.18761 9.05983H9.64332C9.80134 9.05983 9.95288 9.11868 10.0646 9.22343C10.1764 9.32819 10.2391 9.47026 10.2391 9.6184V14.4415C10.2391 14.5896 10.1764 14.7317 10.0646 14.8365C9.95288 14.9412 9.80134 15.0001 9.64332 15.0001ZM6.78342 13.8829H9.04751V10.177H6.78342V13.8829Z" fill="currentColor"/>
</svg>
