<svg width="17" height="17" viewBox="0 0 17 17" fill="none" xmlns="http://www.w3.org/2000/svg">
<path d="M14.875 0H2.125C0.924906 0 0 0.924906 0 2.125V14.875C0 16.0746 0.924906 17 2.125 17H14.875C16.0746 17 17 16.0746 17 14.875V2.125C17 0.924906 16.0746 0 14.875 0ZM8.51222 5.16056C10.3976 5.16056 11.9255 6.64116 11.9255 8.46812C11.9255 10.294 10.3976 11.7757 8.51222 11.7757C6.62841 11.7757 5.1 10.294 5.1 8.46812C5.10053 6.64116 6.62894 5.16056 8.51222 5.16056ZM14.875 14.3438C14.875 14.7162 14.7156 14.875 14.3438 14.875H2.65625C2.28491 14.875 2.125 14.7162 2.125 14.3438V6.90625L3.44941 7.19419C3.30756 7.65637 3.23 8.14513 3.23 8.65247C3.23 11.4777 5.59619 13.7705 8.51222 13.7705C11.4298 13.7705 13.795 11.4782 13.795 8.65247C13.795 8.14513 13.7179 7.65637 13.5761 7.19419L14.875 6.90625V14.3438ZM14.875 4.78125C14.875 5.07503 14.6375 5.3125 14.3438 5.3125H12.2188C11.925 5.3125 11.6875 5.07503 11.6875 4.78125V2.65625C11.6875 2.36247 11.925 2.125 12.2188 2.125H14.3438C14.6375 2.125 14.875 2.36247 14.875 2.65625V4.78125Z" fill="currentColor"/>
</svg>
