<svg width="34" height="23" viewBox="0 0 34 23" fill="none" xmlns="http://www.w3.org/2000/svg">
<path d="M23.9062 0C23.209 0 22.6279 0.439942 22.4121 1.0625H18.0625V3.1875H22.5781L22.9102 4.25H19.125C16.3525 4.25 14.958 5.74414 14.4434 6.375H10.8574C10.4465 6.13428 8.97729 5.3125 6.90625 5.3125C4.61108 5.3125 2.72266 6.20898 2.72266 6.20898L3.65234 8.13477C3.65234 8.13477 5.17139 7.4375 6.90625 7.4375C7.76538 7.4375 8.57471 7.69898 9.16406 7.93555L8.23438 9.86133C7.64917 9.68286 7.01831 9.5625 6.375 9.5625C2.85962 9.5625 0 12.4221 0 15.9375C0 19.4529 2.85962 22.3125 6.375 22.3125C9.53345 22.3125 12.1482 20.0173 12.6504 17H16.3359C17.1411 17 17.9048 16.531 18.2617 15.8047H18.2285L19.3906 13.4473C21.1587 12.6338 22.5989 11.2227 23.6074 9.89453C23.8855 9.5293 24.1221 9.19312 24.3379 8.86523L26.5957 16.2363L28.6543 15.6387L27.459 11.7207C27.5171 11.7166 27.5669 11.6875 27.625 11.6875C29.97 11.6875 31.875 13.5925 31.875 15.9375C31.875 18.2825 29.97 20.1875 27.625 20.1875C25.28 20.1875 23.375 18.2825 23.375 15.9375C23.375 14.8044 23.8108 13.7793 24.5371 13.0156L23.873 10.791C22.2876 11.9531 21.25 13.8291 21.25 15.9375C21.25 19.4529 24.1096 22.3125 27.625 22.3125C31.1404 22.3125 34 19.4529 34 15.9375C34 12.4221 31.1404 9.5625 27.625 9.5625C27.3428 9.5625 27.0688 9.59155 26.7949 9.62891L24.8359 3.1875H26.5625V0H23.9062ZM19.125 6.375H23.375C23.2173 6.66138 22.7441 7.50806 21.9141 8.59961C20.9263 9.89453 19.5525 11.2725 18.2285 11.7539L17.7969 11.8867L17.6309 12.2852L16.3359 14.875H6.375V17H10.459C9.98584 18.8303 8.35059 20.1875 6.375 20.1875C4.03003 20.1875 2.125 18.2825 2.125 15.9375C2.125 13.5925 4.03003 11.6875 6.375 11.6875C7.9397 11.6875 9.28858 12.5466 10.0273 13.8125H12.3848C11.9531 12.5923 11.1521 11.5422 10.127 10.791L11.2891 8.5H15.4395L15.7715 8.03516C15.7715 8.03516 16.8008 6.375 19.125 6.375Z" fill="currentColor"/>
</svg>
