<svg width="33" height="27" viewBox="0 0 33 27" fill="none" xmlns="http://www.w3.org/2000/svg">
<path d="M3.635 6.27C6.115 3.015 9.99 1 14.175 1H22.7C25.335 1 27.35 3.015 27.35 5.65V19.6C28.28 19.6 28.9 18.98 28.9 18.05C28.9 17.12 29.52 16.5 30.45 16.5C31.38 16.5 32 17.12 32 18.05C32 20.685 29.985 22.7 27.35 22.7H25.8H24.25H16.19C15.57 24.56 13.865 25.8 11.85 25.8C9.835 25.8 8.13 24.56 7.51 22.7H5.65C3.015 22.7 1 20.685 1 18.05V14.175C1 13.865 1 13.555 1 13.4C1.155 10.765 2.085 8.285 3.635 6.27ZM5.495 9.06C5.34 9.37 5.185 9.68 5.03 9.835C4.875 9.99 4.875 10.145 4.72 10.455C4.565 10.765 4.565 11.075 4.41 11.385C4.41 11.54 4.255 11.695 4.255 11.85H18.05C18.98 11.85 19.6 11.23 19.6 10.3C19.6 9.37 18.98 8.75 18.05 8.75H5.65C5.65 8.905 5.65 8.905 5.495 9.06ZM11.85 22.7C12.78 22.7 13.4 22.08 13.4 21.15C13.4 20.22 12.78 19.6 11.85 19.6C10.92 19.6 10.3 20.22 10.3 21.15C10.3 22.08 10.92 22.7 11.85 22.7ZM4.1 18.05C4.1 18.98 4.72 19.6 5.65 19.6H7.51V19.445C7.51 19.29 7.51 19.29 7.665 19.135C7.82 18.98 7.82 18.825 7.975 18.67L8.13 18.515C8.285 18.36 8.44 18.205 8.595 18.05C8.595 18.05 8.595 18.05 8.75 17.895C8.905 17.74 9.215 17.585 9.37 17.43L9.525 17.275C9.68 17.12 9.835 17.12 9.99 16.965C10.145 16.965 10.145 16.965 10.3 16.81C10.455 16.81 10.61 16.655 10.92 16.655C11.075 16.655 11.075 16.655 11.23 16.655C11.23 16.5 11.54 16.5 11.85 16.5C12.16 16.5 12.47 16.5 12.78 16.655C12.935 16.655 12.935 16.655 13.09 16.655C13.245 16.655 13.4 16.81 13.71 16.81C13.865 16.81 13.865 16.81 14.02 16.965C14.175 17.12 14.33 17.12 14.485 17.275C14.485 17.275 14.64 17.275 14.64 17.43C14.795 17.585 15.105 17.74 15.26 17.895C15.26 17.895 15.26 17.895 15.415 18.05C15.57 18.205 15.725 18.36 15.88 18.515L16.035 18.67C16.19 18.825 16.19 18.98 16.345 19.135C16.345 19.29 16.345 19.29 16.5 19.445V19.6H24.25V5.65C24.25 4.72 23.63 4.1 22.7 4.1H14.175C12.16 4.1 10.3 4.72 8.75 5.65H18.05C20.685 5.65 22.7 7.665 22.7 10.3C22.7 12.935 20.685 14.95 18.05 14.95H4.1V18.05Z" fill="currentColor" stroke="#F4F5F9"/>
</svg>
