<svg width="20" height="16" viewBox="0 0 20 16" fill="none" xmlns="http://www.w3.org/2000/svg">
<path d="M20 1.89354C19.2642 2.21538 18.474 2.43262 17.6432 2.52923C18.4902 2.02954 19.141 1.23815 19.448 0.295385C18.6547 0.757538 17.7769 1.09477 16.8423 1.27508C16.0934 0.490462 15.0269 0 13.846 0C11.5798 0 9.74369 1.808 9.74369 4.03877C9.74369 4.35508 9.77932 4.664 9.84934 4.95938C6.43911 4.79077 3.41585 3.18277 1.3916 0.739077C1.03901 1.336 0.836459 2.02954 0.836459 2.76985C0.836459 4.17169 1.56102 5.40738 2.66129 6.13231C1.98925 6.11077 1.35659 5.92985 0.803326 5.62708C0.802701 5.64369 0.802701 5.66154 0.802701 5.67754C0.802701 7.63508 2.2168 9.26769 4.09415 9.63877C3.75031 9.73046 3.38772 9.78031 3.01325 9.78031C2.74819 9.78031 2.49187 9.75508 2.24181 9.70831C2.76319 11.312 4.27919 12.48 6.07402 12.5132C4.67054 13.5963 2.90135 14.2431 0.978995 14.2431C0.647662 14.2431 0.320705 14.224 0 14.1865C1.81545 15.3311 3.97224 16 6.2897 16C13.8366 16 17.9645 9.84554 17.9645 4.50769C17.9645 4.33292 17.9595 4.15815 17.952 3.98462C18.7541 3.41538 19.4492 2.70462 20 1.89354Z" fill="currentColor"/>
</svg>
