<svg width="18" height="18" viewBox="0 0 18 18" fill="none" xmlns="http://www.w3.org/2000/svg">
<path d="M7.82053 1.52113C8.45337 0.82629 9.5466 0.82629 10.1794 1.52113L10.9932 2.41466C11.313 2.76584 11.7726 2.95623 12.2471 2.93406L13.4544 2.87764C14.3931 2.83376 15.1662 3.60685 15.1224 4.54564L15.0659 5.75287C15.0437 6.22732 15.2341 6.68698 15.5853 7.00679L16.4788 7.82053C17.1737 8.45337 17.1737 9.5466 16.4788 10.1794L15.5853 10.9932C15.2341 11.313 15.0437 11.7726 15.0659 12.2471L15.1224 13.4544C15.1662 14.3931 14.3931 15.1662 13.4544 15.1224L12.2471 15.0659C11.7726 15.0437 11.313 15.2341 10.9932 15.5853L10.1794 16.4788C9.5466 17.1737 8.45337 17.1737 7.82053 16.4788L7.00679 15.5853C6.68698 15.2341 6.22732 15.0437 5.75287 15.0659L4.54563 15.1224C3.60685 15.1662 2.83376 14.3931 2.87764 13.4544L2.93406 12.2471C2.95623 11.7726 2.76584 11.313 2.41466 10.9932L1.52113 10.1794C0.82629 9.5466 0.82629 8.45337 1.52113 7.82053L2.41466 7.00679C2.76584 6.68698 2.95623 6.22732 2.93406 5.75287L2.87764 4.54563C2.83376 3.60685 3.60685 2.83376 4.54564 2.87764L5.75287 2.93406C6.22732 2.95623 6.68698 2.76584 7.00679 2.41466L7.82053 1.52113Z" stroke="#1AA0EB"/>
<path d="M6.60742 8.99998L8.20269 10.5952L11.3932 7.40472" stroke="#1AA0EB" stroke-linecap="round" stroke-linejoin="round"/>
</svg>
