<svg width="44" height="33" viewBox="0 0 44 33" fill="none" xmlns="http://www.w3.org/2000/svg">
<path d="M2 3.42857V2H42V30.5714H2V17.7143" stroke="white" stroke-width="3" stroke-miterlimit="10" stroke-linecap="round" stroke-linejoin="round"/>
<path d="M9.14258 2V7.71429" stroke="white" stroke-width="3" stroke-miterlimit="10" stroke-linejoin="round"/>
<path d="M9.14258 13.4287V30.5716" stroke="white" stroke-width="3" stroke-miterlimit="10" stroke-linejoin="round"/>
<path d="M9.14328 13.4286C10.7212 13.4286 12.0004 12.1495 12.0004 10.5715C12.0004 8.99354 10.7212 7.71436 9.14328 7.71436C7.56532 7.71436 6.28613 8.99354 6.28613 10.5715C6.28613 12.1495 7.56532 13.4286 9.14328 13.4286Z" stroke="white" stroke-width="3" stroke-miterlimit="10" stroke-linejoin="round"/>
<path d="M12 12.0001L16.2857 13.4286V7.71436L12 9.14293" stroke="white" stroke-width="3" stroke-miterlimit="10" stroke-linejoin="round"/>
<path d="M6.28571 12.0001L2 13.4286V7.71436L6.28571 9.14293" stroke="white" stroke-width="3" stroke-miterlimit="10" stroke-linejoin="round"/>
<path d="M29.1426 7.71436V10.5715" stroke="white" stroke-width="3" stroke-miterlimit="10" stroke-linecap="round" stroke-linejoin="round"/>
<path d="M29.1426 22V24.8571" stroke="white" stroke-width="3" stroke-miterlimit="10" stroke-linecap="round" stroke-linejoin="round"/>
<path d="M26.286 21.9999H30.5717C32.1431 21.9999 33.4288 20.7141 33.4288 19.1427C33.4288 17.5713 32.1431 16.2856 30.5717 16.2856H27.7146C26.1431 16.2856 24.8574 14.9999 24.8574 13.4284C24.8574 11.857 26.1431 10.5713 27.7146 10.5713H32.0003" stroke="white" stroke-width="3" stroke-miterlimit="10" stroke-linecap="round" stroke-linejoin="round"/>
</svg>
