<svg width="30" height="42" viewBox="0 0 30 42" fill="none" xmlns="http://www.w3.org/2000/svg">
<path d="M14.2763 42C13.9045 41.9999 13.5406 41.888 13.2289 41.6778C12.9172 41.4677 12.6709 41.1684 12.52 40.8161C12.3691 40.4638 12.32 40.0738 12.3787 39.6932C12.4373 39.3126 12.6013 38.9578 12.8506 38.6718C13.2172 38.2788 13.5053 37.8146 13.6982 37.3059C13.8912 36.7972 13.9852 36.2539 13.9749 35.7074C13.8738 34.2279 13.5616 32.7722 13.0486 31.3877C12.4456 29.739 12.092 28.0037 12.0001 26.2431C11.9938 25.0985 12.2556 23.9695 12.7631 22.9529C13.2705 21.9363 14.0085 21.0626 14.9136 20.4068C15.3194 20.0868 15.8312 19.947 16.3364 20.0181C16.8416 20.0893 17.2989 20.3655 17.6076 20.7861C17.9163 21.2067 18.0511 21.7372 17.9825 22.2608C17.9139 22.7845 17.6473 23.2584 17.2415 23.5784C16.8044 23.8574 16.4455 24.2502 16.2004 24.7177C15.9554 25.1853 15.8327 25.7112 15.8448 26.2431C15.9509 27.5883 16.242 28.9109 16.7093 30.1707C17.3567 31.9446 17.7314 33.8129 17.8196 35.7074C17.8342 37.797 17.0774 39.8133 15.7041 41.3433C15.5238 41.5504 15.3036 41.7159 15.0576 41.829C14.8116 41.9422 14.5455 42.0004 14.2763 42Z" fill="#1C1D25"/>
<path d="M16.9957 24C16.5497 24.0004 16.1158 23.854 15.7611 23.5833C15.4063 23.3126 15.1503 22.9327 15.0325 22.502C14.9146 22.0713 14.9415 21.6138 15.109 21.2C15.2764 20.7861 15.5752 20.4388 15.9592 20.2116C19.8001 17.9403 23.9328 13.4691 23.9328 9.02097C23.9321 8.31879 23.8335 7.62015 23.6397 6.9453C23.397 6.11554 22.8921 5.38694 22.2007 4.8688C21.5092 4.35067 20.6686 4.07095 19.8049 4.0716C18.9144 4.11312 18.0588 4.43102 17.3569 4.98122C16.655 5.53142 16.1415 6.28665 15.8876 7.14215C15.7366 7.51975 15.4761 7.84342 15.1397 8.07144C14.8032 8.29945 14.4063 8.42136 14 8.42144C13.5935 8.42153 13.1964 8.2997 12.8598 8.07168C12.5231 7.84366 12.2625 7.51989 12.1114 7.14215C11.858 6.28657 11.3447 5.53121 10.6429 4.98095C9.94111 4.4307 9.08555 4.11287 8.19505 4.0716C7.33149 4.07141 6.4911 4.35132 5.79978 4.86938C5.10845 5.38744 4.6034 6.11578 4.36027 6.9453C4.16649 7.62015 4.06786 8.31879 4.06723 9.02097C4.06723 13.3081 7.75213 16.9114 9.33591 18.2624C9.74112 18.614 9.99118 19.1117 10.0316 19.647C10.0721 20.1823 9.89971 20.712 9.55198 21.1207C9.20424 21.5293 8.70932 21.784 8.17494 21.8292C7.64056 21.8743 7.10999 21.7064 6.69872 21.3618C4.19738 19.2296 0 14.7891 0 9.02097C0.000445282 7.93987 0.151856 6.86414 0.449836 5.82501C0.938456 4.14649 1.95726 2.67167 3.35359 1.62153C4.74991 0.571394 6.44858 0.00248341 8.19505 4.56731e-05C9.28929 -0.00370463 10.372 0.223858 11.3723 0.667846C12.3726 1.11183 13.2681 1.76224 14 2.57652C14.7319 1.76224 15.6274 1.11183 16.6277 0.667843C17.628 0.223854 18.7107 -0.00370719 19.8049 4.56731e-05C21.5518 0.00222617 23.2508 0.571284 24.6473 1.62187C26.0437 2.67246 27.0623 4.14795 27.5502 5.82704C27.8483 6.86545 27.9997 7.94053 28 9.02097C28 15.5139 22.628 20.996 18.0286 23.7166C17.7159 23.902 17.3591 23.9999 16.9957 24Z" fill="#1C1D25"/>
<path d="M17.1134 37.9991C17.0934 37.9991 16.8969 37.997 16.8769 37.996C16.6227 37.9878 16.3725 37.9264 16.1406 37.8153C15.9088 37.7043 15.6997 37.5457 15.5255 37.3488C15.3513 37.1518 15.2153 36.9203 15.1253 36.6674C15.0353 36.4145 14.993 36.1453 15.0009 35.8751C15.0025 35.6028 15.056 35.3337 15.1584 35.0841C15.2607 34.8345 15.4097 34.6096 15.5963 34.4231C15.7829 34.2366 16.0032 34.0923 16.2439 33.999C16.4845 33.9058 16.7405 33.8655 16.9962 33.8806C19.3394 33.986 21.6384 33.1801 23.463 31.6137C24.5681 30.4381 25.3496 28.9635 25.723 27.3497C25.0496 27.4824 24.3897 27.6833 23.7524 27.9498C23.2764 28.1465 22.7467 28.1354 22.2784 27.9189C21.8101 27.7025 21.4412 27.2981 21.252 26.794C21.0627 26.2898 21.0685 25.7266 21.2679 25.2268C21.4674 24.7271 21.8444 24.3314 22.317 24.1257C24.0944 23.3939 25.9824 23.0125 27.8885 23C27.9083 23 28.1031 23.0019 28.123 23.0029C28.3796 23.0114 28.632 23.074 28.8656 23.1871C29.0992 23.3002 29.3094 23.4615 29.4838 23.6616C29.6583 23.8618 29.7936 24.0968 29.8818 24.3531C29.9701 24.6093 30.0096 24.8817 29.998 25.1543C29.7899 28.7098 28.4032 32.0719 26.0842 34.6435C23.5588 36.8499 20.382 38.0382 17.1134 37.9991Z" fill="#1C1D25"/>
<path d="M11.2889 34.9991C10.0564 35.0177 8.83532 34.7493 7.71451 34.2132C5.59189 33.0161 3.95695 31.0553 3.11304 28.6945C2.94085 28.1925 2.96619 27.6396 3.18351 27.1571C3.40082 26.6745 3.79239 26.3017 4.27239 26.1202C4.75239 25.9388 5.28167 25.9635 5.74424 26.189C6.2068 26.4146 6.56492 26.8225 6.7401 27.3234C7.24023 28.6831 8.16434 29.827 9.36326 30.5706C9.96898 30.8508 10.6267 30.9872 11.2889 30.9699C12.019 30.9654 12.7444 30.8494 13.4423 30.6256C13.9242 30.4518 14.4523 30.4844 14.9112 30.7162C15.3701 30.9481 15.7225 31.3604 15.8913 31.8629C16.06 32.3655 16.0315 32.9174 15.8118 33.398C15.5921 33.8786 15.1993 34.2487 14.7191 34.4275C13.6114 34.8044 12.4539 34.9972 11.2889 34.9991Z" fill="#1C1D25"/>
</svg>
