<svg width="37" height="38" viewBox="0 0 37 38" fill="none" xmlns="http://www.w3.org/2000/svg">
<path d="M28.9529 37.9999H25.3338C23.8946 37.9983 22.5147 37.4259 21.497 36.4082C20.4793 35.3904 19.9068 34.0106 19.9053 32.5713V31.1134C19.9076 30.1577 20.0986 29.2119 20.4674 28.3302C20.8361 27.4486 21.3753 26.6484 22.0541 25.9756L27.6824 20.426C28.0241 20.089 28.4856 19.9016 28.9654 19.9049C29.4453 19.9082 29.9041 20.1021 30.2411 20.4437C30.578 20.7854 30.7655 21.2469 30.7621 21.7267C30.7588 22.2066 30.565 22.6654 30.2234 23.0024L24.5952 28.552C24.257 28.8875 23.9883 29.2864 23.8045 29.726C23.6207 30.1655 23.5255 30.637 23.5243 31.1134V32.5713C23.5249 33.051 23.7158 33.511 24.055 33.8502C24.3942 34.1894 24.8541 34.3802 25.3338 34.3808H28.2036L30.9825 31.6021C31.9965 30.5816 32.5676 29.2026 32.5719 27.764V16.2856C32.5719 15.8057 32.7626 15.3454 33.1019 15.0061C33.4413 14.6667 33.9015 14.4761 34.3815 14.4761C34.8614 14.4761 35.3216 14.6667 35.661 15.0061C36.0003 15.3454 36.191 15.8057 36.191 16.2856V27.764C36.1942 28.9525 35.9617 30.1298 35.5069 31.2278C35.052 32.3259 34.3839 33.3228 33.5411 34.1608L30.2322 37.4697C29.8929 37.809 29.4328 37.9998 28.9529 37.9999Z" fill="#1C1D25"/>
<path d="M10.8572 37.9999H7.23813C6.75826 37.9998 6.29809 37.809 5.9588 37.4697L2.6499 34.1608C1.80715 33.3228 1.139 32.3259 0.684152 31.2278C0.229299 30.1298 -0.00322782 28.9525 3.38435e-05 27.764V16.2856C3.38435e-05 15.8057 0.190679 15.3454 0.530031 15.0061C0.869383 14.6667 1.32964 14.4761 1.80956 14.4761C2.28947 14.4761 2.74973 14.6667 3.08908 15.0061C3.42844 15.3454 3.61908 15.8057 3.61908 16.2856V27.764C3.62341 29.2026 4.19449 30.5816 5.20857 31.6021L7.98745 34.3808H10.8572C11.3369 34.3802 11.7968 34.1894 12.136 33.8502C12.4753 33.511 12.6661 33.051 12.6667 32.5713V31.1231C12.6654 30.6438 12.5695 30.1694 12.3845 29.7271C12.1995 29.2849 11.9291 28.8834 11.5888 28.5458L5.96766 23.0024C5.62601 22.6654 5.4322 22.2066 5.42888 21.7267C5.42555 21.2469 5.61298 20.7854 5.94993 20.4437C6.28688 20.1021 6.74575 19.9082 7.22559 19.9049C7.70543 19.9016 8.16694 20.089 8.50859 20.426L14.1299 25.9694C14.8108 26.6443 15.3518 27.4469 15.7217 28.3313C16.0917 29.2157 16.2834 30.1645 16.2857 31.1231V32.5713C16.2842 34.0106 15.7117 35.3904 14.694 36.4082C13.6763 37.4259 12.2964 37.9983 10.8572 37.9999Z" fill="#1C1D25"/>
<path d="M18.095 22.3893C15.0432 22.3893 5.6377 15.9235 5.6377 8.01831C5.63804 7.0577 5.77277 6.10185 6.03796 5.17857C6.47252 3.6864 7.37897 2.37524 8.62146 1.44162C9.86395 0.508005 11.3756 0.00220838 12.9297 4.07067e-05C13.9034 -0.00329964 14.8668 0.198975 15.7569 0.593629C16.647 0.988284 17.4437 1.56643 18.095 2.29023C18.7463 1.56643 19.543 0.988284 20.4331 0.593629C21.3232 0.198975 22.2866 -0.00329964 23.2603 4.07067e-05C24.8146 0.00199646 26.3264 0.507817 27.569 1.44164C28.8116 2.37547 29.7179 3.68697 30.152 5.17944C30.2837 5.64086 30.2267 6.13569 29.9936 6.55508C29.7604 6.97447 29.3702 7.28407 28.9088 7.41577C28.4474 7.54746 27.9526 7.49047 27.5332 7.25732C27.1138 7.02418 26.8042 6.63398 26.6725 6.17256C26.4564 5.4352 26.007 4.78778 25.3918 4.3274C24.7766 3.86702 24.0287 3.61849 23.2603 3.61909C22.4679 3.656 21.7066 3.93857 21.082 4.42762C20.4574 4.91667 20.0005 5.58796 19.7746 6.34839C19.6403 6.68403 19.4085 6.97174 19.1091 7.17442C18.8097 7.3771 18.4565 7.48546 18.095 7.48553C17.7332 7.4856 17.3797 7.37721 17.0801 7.17435C16.7806 6.97148 16.5487 6.68347 16.4145 6.34751C16.1888 5.58719 15.7321 4.91599 15.1076 4.42707C14.4831 3.93814 13.722 3.65575 12.9297 3.61909C12.1613 3.61892 11.4135 3.86771 10.7984 4.32821C10.1832 4.7887 9.73382 5.43611 9.5175 6.17345C9.34507 6.77326 9.25731 7.39421 9.25674 8.01831C9.25674 13.8436 16.6079 18.5971 18.1364 18.772C21.8232 17.2145 24.7847 14.3206 26.427 10.6708C26.509 10.4465 26.6346 10.2407 26.7965 10.0652C26.9584 9.88973 27.1535 9.74802 27.3704 9.64826C27.5874 9.5485 27.8219 9.49266 28.0606 9.48397C28.2992 9.47528 28.5372 9.51391 28.7608 9.59763C28.9844 9.68135 29.1893 9.8085 29.3636 9.97176C29.5378 10.135 29.678 10.3312 29.7761 10.5489C29.8743 10.7666 29.9283 11.0015 29.9352 11.2402C29.942 11.4789 29.9016 11.7166 29.8162 11.9396C27.5959 17.8718 20.6998 22.3893 18.095 22.3893Z" fill="#1C1D25"/>
</svg>
