<svg viewBox="0 0 71 29" fill="none" xmlns="http://www.w3.org/2000/svg">
<path d="M54.0493 19.888C58.5447 22.058 62.9023 24.3934 67.0213 27.0949C68.0541 27.7661 69.7022 27.0514 69.7712 25.8658C69.9287 23.435 70.163 21.0038 70.2735 18.568C70.3702 16.386 70.7974 13.9185 70.2607 11.7998C69.9862 10.7486 68.3391 10.5698 67.886 11.674C67.0313 13.7473 67.0768 16.1957 66.8537 18.3595C66.8085 18.7729 66.793 19.1806 66.7627 19.5912C66.2666 18.2606 65.6938 16.9304 65.0746 15.7625C63.4844 12.781 61.412 9.932 58.8789 7.5745C53.5665 2.61263 46.1118 0.231378 38.4221 0.686295C30.3216 1.16264 22.6891 4.45462 16.3976 9.23943C13.1457 11.7216 10.2274 14.5877 7.59935 17.6087C6.23484 19.1775 4.97459 20.8105 3.76901 22.4891C2.67164 24.0077 1.29483 25.5928 0.745548 27.3294C0.391656 28.4708 1.78761 29.5205 2.86551 28.6338C4.18519 27.562 5.05017 26.115 6.07915 24.8047C7.19426 23.3805 8.36151 21.9884 9.56351 20.6176C12.0167 17.811 14.6687 15.1625 17.6563 12.8277C23.281 8.4196 30.0824 5.2839 37.4419 4.62583C44.5589 3.98546 51.0526 6.24033 56.0384 10.6913C58.4046 12.8149 60.2996 15.2924 61.8637 17.9717C62.4499 18.9643 62.9423 20.0304 63.4445 21.0667C61.1135 19.6205 58.8907 18.0143 56.3628 16.8285C54.1277 15.8109 51.7867 18.8058 54.0493 19.888Z" fill="#D7D7DF"/>
</svg>
