<svg width="117" height="116" viewBox="0 0 117 116" fill="none" xmlns="http://www.w3.org/2000/svg">
<path d="M70.3653 60.8783C81.3732 52.59 92.2957 44.1514 102.664 35.0471C107.464 30.8386 113.288 26.3723 115.847 20.3172C117.981 15.2712 117.277 9.00128 112.69 5.54425C106.952 1.22833 97.821 0.541205 90.909 0.154705C82.9518 -0.27474 74.6959 0.0473543 67.2079 2.96758C66.248 3.33261 65.9706 4.9645 67.2079 5.2007C79.9652 7.77737 93.0424 4.77124 105.586 9.43072C119.581 14.627 96.413 31.1606 91.4424 35.3477C72.3066 51.4949 51.6348 65.6666 32.179 81.4272C22.9631 88.8781 14.0032 97.2737 6.57924 106.657C6.6859 105.519 6.77122 104.381 6.89922 103.264C7.21922 100.237 8.62719 96.2001 6.85654 93.559C6.36588 92.829 5.2779 92.3351 4.46724 92.9363C1.6086 95.0192 1.65127 99.2063 1.05394 102.492C0.34995 106.357 -0.396711 110.2 0.243283 114.129C0.520613 115.804 2.69659 116.448 4.01925 115.675C9.73652 112.283 16.5205 112.261 22.8351 111.08C25.843 110.522 24.9044 106.142 22.1524 105.97C18.5044 105.734 14.9845 106.507 11.5499 107.58C20.2111 100.387 28.723 93.0008 37.4909 85.9579C48.2428 77.3045 59.3574 69.1665 70.3653 60.8783Z" fill="url(#paint0_linear_93_356)"/>
<defs>
<linearGradient id="paint0_linear_93_356" x1="58.5" y1="0" x2="58.5" y2="116" gradientUnits="userSpaceOnUse">
<stop stop-color="#FE8664"/>
<stop offset="1" stop-color="#F24A5E"/>
</linearGradient>
</defs>
</svg>
