<svg width="532" height="484" viewBox="0 0 532 484" fill="none" xmlns="http://www.w3.org/2000/svg">
<path d="M150.304 4.16526C111.252 12.7992 65.1696 79.4844 18.2387 135.223C5.25456 150.642 -1.5625 170.853 0.57521 191.593C5.2574 236.835 46.8973 249.112 82.4078 260.406C110.576 269.366 142.369 284.742 149.197 313.476C154.182 334.443 143.733 354.65 137.297 374.559C129.014 400.197 127.961 430.834 144.287 453.725C164.794 482.486 205.821 488.879 238.433 479.846C271.039 470.808 298.293 449.944 327.577 433.583C369.443 410.181 416.324 395.615 456.7 369.843C497.077 344.08 531.81 302.822 531.413 253.595C531.091 214.838 508.544 177.451 478.35 151.551C448.148 125.657 410.964 109.815 373.636 97.5601C343.788 87.756 312.105 79.2558 288.537 57.8665C272.878 43.6575 242.483 13.2403 222.76 6.33051C201.065 -1.26832 172.096 -0.651846 150.304 4.16526Z" fill="url(#paint0_linear_93_23)"/>
<defs>
<linearGradient id="paint0_linear_93_23" x1="201.499" y1="405.5" x2="479.587" y2="-0.226638" gradientUnits="userSpaceOnUse">
<stop stop-color="#F6F6F9"/>
<stop offset="1" stop-color="#F6F6F9" stop-opacity="0"/>
</linearGradient>
</defs>
</svg>
