<svg viewBox="0 0 24 32" fill="none" xmlns="http://www.w3.org/2000/svg">
<path d="M22.775 24.9679L21.909 28.6305C21.83 28.9708 21.6807 29.2909 21.4705 29.5702C21.2604 29.8494 20.9941 30.0817 20.6887 30.2523C20.3833 30.4228 20.0455 30.5277 19.697 30.5603C19.3485 30.5929 18.997 30.5525 18.6649 30.4417C14.9972 29.1435 11.6848 27.0048 8.9941 24.1975C6.48161 21.6242 4.56703 18.5308 3.38633 15.1369C2.072 11.463 1.64282 7.5326 2.13354 3.66396C2.1828 3.31912 2.30345 2.98836 2.48783 2.69274C2.6722 2.39712 2.91625 2.14312 3.20444 1.9469C3.49263 1.75068 3.81865 1.61655 4.16173 1.55305C4.50481 1.48954 4.85745 1.49806 5.19718 1.57805L8.86706 2.44576C9.46211 2.5803 9.98805 2.9262 10.3468 3.41897C10.7056 3.91175 10.8728 4.5178 10.8171 5.12413C10.6949 6.33287 10.7101 7.55166 10.8623 8.75724C10.9236 9.23314 10.8469 9.71647 10.6414 10.15C10.4359 10.5835 10.1101 10.9489 9.70274 11.2031L7.78255 12.3863C8.80129 15.8545 10.7387 18.9848 13.3903 21.4469L15.3105 20.2638C15.7207 20.0142 16.1941 19.8872 16.6746 19.898C17.1551 19.9088 17.6225 20.0569 18.0216 20.3247C19.0337 21.0004 20.1191 21.5598 21.2569 21.992C21.8314 22.2162 22.3035 22.6432 22.5834 23.1919C22.8633 23.7406 22.9315 24.3727 22.775 24.9679Z" stroke="#FE8664" stroke-width="2" stroke-linecap="round" stroke-linejoin="round"/>
</svg>
