<svg width="126" height="96" viewBox="0 0 126 96" fill="none" xmlns="http://www.w3.org/2000/svg">
<rect x="30.4482" width="94.9422" height="94.9422" rx="47.4711" fill="url(#paint0_linear_228_8)"/>
<path d="M77.9191 23.7356C64.8072 23.7356 54.1836 34.3391 54.1836 47.4262C54.1836 60.5133 64.8072 71.1168 77.9191 71.1168C91.0311 71.1168 101.655 60.5133 101.655 47.4262C101.655 34.3391 91.0311 23.7356 77.9191 23.7356ZM77.9191 66.5315C67.3626 66.5315 58.7776 57.9628 58.7776 47.4262C58.7776 36.8896 67.3626 28.3209 77.9191 28.3209C88.4757 28.3209 97.0607 36.8896 97.0607 47.4262C97.0607 57.9628 88.4757 66.5315 77.9191 66.5315ZM70.2625 45.8978C71.9565 45.8978 73.3252 44.5317 73.3252 42.8409C73.3252 41.1501 71.9565 39.7841 70.2625 39.7841C68.5685 39.7841 67.1999 41.1501 67.1999 42.8409C67.1999 44.5317 68.5685 45.8978 70.2625 45.8978ZM85.5758 45.8978C87.2698 45.8978 88.6384 44.5317 88.6384 42.8409C88.6384 41.1501 87.2698 39.7841 85.5758 39.7841C83.8818 39.7841 82.5131 41.1501 82.5131 42.8409C82.5131 44.5317 83.8818 45.8978 85.5758 45.8978ZM85.9586 52.833C83.9679 55.2212 81.0297 56.5968 77.9191 56.5968C74.8086 56.5968 71.8704 55.2307 69.8797 52.833C69.0662 51.8586 67.6114 51.7344 66.6448 52.5369C65.6685 53.3488 65.5441 54.7913 66.3481 55.7657C69.2193 59.2046 73.44 61.1725 77.9191 61.1725C82.3983 61.1725 86.619 59.2046 89.4902 55.7657C90.3037 54.7913 90.1698 53.3488 89.1935 52.5369C88.2269 51.7344 86.7721 51.8586 85.9586 52.833Z" fill="white" stroke="#F96660" stroke-width="2.5"/>
<rect x="32.3203" y="77.6194" width="4.44692" height="11.1173" rx="2.22346" transform="rotate(60 32.3203 77.6194)" fill="url(#paint1_linear_228_8)"/>
<rect x="23.9424" y="62.0002" width="4.44692" height="9.44971" rx="2.22346" transform="rotate(60 23.9424 62.0002)" fill="url(#paint2_linear_228_8)"/>
<rect x="26.376" y="70.7996" width="4.44692" height="18.4243" rx="2.22346" transform="rotate(60 26.376 70.7996)" fill="url(#paint3_linear_228_8)"/>
<rect x="8.32812" y="81.699" width="4.27816" height="4.27501" rx="2.13751" transform="rotate(60 8.32812 81.699)" fill="url(#paint4_linear_228_8)"/>
<defs>
<linearGradient id="paint0_linear_228_8" x1="-3.45969" y1="5.42527" x2="74.8676" y2="104.776" gradientUnits="userSpaceOnUse">
<stop stop-color="#FE8664"/>
<stop offset="1" stop-color="#F6595E"/>
</linearGradient>
<linearGradient id="paint1_linear_228_8" x1="34.5438" y1="81.634" x2="34.708" y2="91.5133" gradientUnits="userSpaceOnUse">
<stop offset="0.0107844" stop-color="#FE8664"/>
<stop offset="1" stop-color="#F6595E"/>
</linearGradient>
<linearGradient id="paint2_linear_228_8" x1="25.7834" y1="64.2237" x2="17.2715" y2="78.8952" gradientUnits="userSpaceOnUse">
<stop stop-color="#FD755C"/>
<stop offset="1" stop-color="#FFB8A4"/>
</linearGradient>
<linearGradient id="paint3_linear_228_8" x1="28.217" y1="73.7606" x2="28.0915" y2="93.1538" gradientUnits="userSpaceOnUse">
<stop stop-color="#FE755C"/>
<stop offset="1" stop-color="#F6575E"/>
</linearGradient>
<linearGradient id="paint4_linear_228_8" x1="10.4672" y1="81.699" x2="10.4291" y2="86.8885" gradientUnits="userSpaceOnUse">
<stop stop-color="#FB6C5D"/>
<stop offset="1" stop-color="#FE8664"/>
</linearGradient>
</defs>
</svg>
