<svg viewBox="0 0 52 52" fill="none" xmlns="http://www.w3.org/2000/svg">
<path d="M3.25 30.0625H25.1875V26.0325L12.1875 11.0134V17.1779C12.7746 17.3309 13.307 17.6454 13.7243 18.0858C14.1416 18.5262 14.427 19.0748 14.5482 19.6692C14.6694 20.2637 14.6215 20.8802 14.4099 21.4488C14.1983 22.0174 13.8315 22.5153 13.3512 22.8859C12.8709 23.2565 12.2963 23.485 11.6926 23.5455C11.0889 23.6059 10.4804 23.4959 9.93612 23.2279C9.39184 22.9599 8.93361 22.5447 8.61347 22.0293C8.29332 21.514 8.1241 20.9192 8.125 20.3125C8.125 20.097 8.2106 19.8903 8.36297 19.738C8.51535 19.5856 8.72201 19.5 8.9375 19.5C9.15298 19.5 9.35965 19.5856 9.51202 19.738C9.66439 19.8903 9.75 20.097 9.75 20.3125C9.75 20.6339 9.8453 20.9481 10.0239 21.2153C10.2024 21.4825 10.4562 21.6908 10.7531 21.8138C11.0501 21.9368 11.3768 21.969 11.692 21.9063C12.0072 21.8436 12.2968 21.6888 12.524 21.4615C12.7513 21.2343 12.9061 20.9447 12.9688 20.6295C13.0315 20.3143 12.9993 19.9876 12.8763 19.6906C12.7533 19.3937 12.545 19.1399 12.2778 18.9614C12.0106 18.7828 11.6964 18.6875 11.375 18.6875C11.1595 18.6875 10.9528 18.6019 10.8005 18.4495C10.6481 18.2971 10.5625 18.0905 10.5625 17.875V8.9375C10.567 8.90489 10.5735 8.8726 10.582 8.84081C10.551 8.65524 10.5643 8.46498 10.6208 8.28553C10.6772 8.10607 10.7753 7.94249 10.907 7.80812L12.6831 6.03362C12.9001 5.81661 13.191 5.68945 13.4977 5.67755C13.8043 5.66565 14.1042 5.76989 14.3374 5.96943L31.0489 20.4319C31.8918 20.6026 32.6735 20.9963 33.3125 21.5719V16.25C33.3125 15.819 33.4837 15.4057 33.7884 15.1009C34.0932 14.7962 34.5065 14.625 34.9375 14.625H44.9767C45.2888 14.625 45.5943 14.7149 45.8567 14.8839C46.1191 15.0529 46.3273 15.2939 46.4563 15.5781L50.2279 23.8761C50.3254 24.0878 50.3755 24.3182 50.375 24.5513V34.9375C50.375 35.3685 50.2038 35.7818 49.899 36.0865C49.5943 36.3913 49.181 36.5625 48.75 36.5625H45.435C45.2578 37.798 44.6777 38.9404 43.7848 39.8125H50.375V41.4375H1.625V39.8125H8.21518C7.32224 38.9404 6.74216 37.798 6.565 36.5625H3.25C2.81902 36.5625 2.40569 36.3913 2.10095 36.0865C1.7962 35.7818 1.625 35.3685 1.625 34.9375V31.6875C1.625 31.2565 1.7962 30.8432 2.10095 30.5384C2.40569 30.2337 2.81902 30.0625 3.25 30.0625ZM16.1598 31.6875C17.0527 32.5596 17.6328 33.702 17.81 34.9375H34.19C34.3672 33.702 34.9472 32.5596 35.8402 31.6875H16.1598ZM13.5647 7.44981L12.3248 8.69375L25.3922 23.7859C25.6219 23.012 26.0411 22.3076 26.6119 21.7366C27.1827 21.1657 27.887 20.7463 28.6609 20.5164L13.5647 7.44981ZM30.3981 21.9562C30.2867 21.9433 30.1746 21.9371 30.0625 21.9375C29.6352 21.9358 29.2118 22.0187 28.8167 22.1814C28.4217 22.3441 28.0627 22.5834 27.7606 22.8856C27.4584 23.1877 27.2191 23.5467 27.0564 23.9417C26.8937 24.3368 26.8108 24.7602 26.8125 25.1875V30.0625H33.3125V25.1875C33.3149 24.3831 33.0178 23.6066 32.479 23.0093C31.9403 22.4119 31.1984 22.0365 30.3981 21.9562ZM48.75 27.6445L46.306 27.625L46.319 26L48.75 26.0195V24.5505L44.9767 16.25H34.9375V30.0625H48.75V27.6445ZM48.75 31.6875H43.7848C44.6777 32.5596 45.2578 33.702 45.435 34.9375H48.75V31.6875ZM43.875 35.75C43.875 34.9465 43.6367 34.1611 43.1903 33.493C42.7439 32.8249 42.1095 32.3042 41.3671 31.9967C40.6248 31.6893 39.808 31.6088 39.0199 31.7656C38.2319 31.9223 37.508 32.3092 36.9399 32.8774C36.3717 33.4455 35.9848 34.1694 35.8281 34.9574C35.6713 35.7455 35.7518 36.5623 36.0592 37.3046C36.3667 38.047 36.8874 38.6814 37.5555 39.1278C38.2236 39.5742 39.009 39.8125 39.8125 39.8125C40.8895 39.8112 41.9221 39.3828 42.6837 38.6212C43.4453 37.8596 43.8737 36.827 43.875 35.75ZM35.8402 39.8125C34.9472 38.9404 34.3672 37.798 34.19 36.5625H17.81C17.6328 37.798 17.0527 38.9404 16.1598 39.8125H35.8402ZM12.1875 39.8125C12.991 39.8125 13.7764 39.5742 14.4445 39.1278C15.1126 38.6814 15.6333 38.047 15.9408 37.3046C16.2482 36.5623 16.3287 35.7455 16.1719 34.9574C16.0152 34.1694 15.6283 33.4455 15.0601 32.8774C14.492 32.3092 13.7681 31.9223 12.9801 31.7656C12.192 31.6088 11.3752 31.6893 10.6328 31.9967C9.89052 32.3042 9.25604 32.8249 8.80965 33.493C8.36326 34.1611 8.125 34.9465 8.125 35.75C8.12629 36.827 8.55471 37.8596 9.3163 38.6212C10.0779 39.3828 11.1105 39.8112 12.1875 39.8125ZM3.25 34.9375H6.565C6.74216 33.702 7.32224 32.5596 8.21518 31.6875H3.25V34.9375Z" fill="#F8694F"/>
<path d="M36.5627 23.1562V18.2812C36.5627 17.958 36.6911 17.648 36.9197 17.4195C37.1482 17.1909 37.4582 17.0625 37.7815 17.0625H42.7946C43.0331 17.0624 43.2664 17.1324 43.4656 17.2637C43.6648 17.395 43.821 17.5818 43.915 17.8011L46.004 22.6761C46.0834 22.8614 46.1156 23.0635 46.0977 23.2644C46.0798 23.4652 46.0124 23.6585 45.9014 23.8269C45.7905 23.9953 45.6395 24.1335 45.462 24.2291C45.2844 24.3248 45.086 24.3749 44.8843 24.375H37.7815C37.4582 24.375 37.1482 24.2466 36.9197 24.018C36.6911 23.7895 36.5627 23.4795 36.5627 23.1562ZM38.1877 22.75H44.2676L42.5273 18.6875H38.1877V22.75Z" fill="#F8694F"/>
<path d="M36.5625 26H38.1875V28.4375H36.5625V26Z" fill="#F8694F"/>
<path d="M39.8125 33.3125C40.2946 33.3125 40.7659 33.4555 41.1667 33.7233C41.5675 33.9911 41.88 34.3718 42.0645 34.8172C42.2489 35.2626 42.2972 35.7527 42.2032 36.2255C42.1091 36.6984 41.877 37.1327 41.5361 37.4736C41.1952 37.8145 40.7609 38.0466 40.288 38.1407C39.8152 38.2347 39.3251 38.1864 38.8797 38.002C38.4343 37.8175 38.0536 37.505 37.7858 37.1042C37.518 36.7034 37.375 36.2321 37.375 35.75C37.375 35.1035 37.6318 34.4836 38.0889 34.0264C38.546 33.5693 39.166 33.3125 39.8125 33.3125ZM39.8125 36.5625C39.9732 36.5625 40.1303 36.5148 40.2639 36.4256C40.3975 36.3363 40.5017 36.2094 40.5632 36.0609C40.6246 35.9125 40.6407 35.7491 40.6094 35.5915C40.578 35.4339 40.5007 35.2891 40.387 35.1755C40.2734 35.0618 40.1286 34.9845 39.971 34.9531C39.8134 34.9218 39.65 34.9379 39.5016 34.9994C39.3531 35.0608 39.2262 35.165 39.1369 35.2986C39.0477 35.4322 39 35.5893 39 35.75C39 35.9655 39.0856 36.1722 39.238 36.3245C39.3903 36.4769 39.597 36.5625 39.8125 36.5625ZM12.1875 33.3125C12.6696 33.3125 13.1409 33.4555 13.5417 33.7233C13.9425 33.9911 14.255 34.3718 14.4395 34.8172C14.6239 35.2626 14.6722 35.7527 14.5782 36.2255C14.4841 36.6984 14.252 37.1327 13.9111 37.4736C13.5702 37.8145 13.1359 38.0466 12.663 38.1407C12.1902 38.2347 11.7001 38.1864 11.2547 38.002C10.8093 37.8175 10.4286 37.505 10.1608 37.1042C9.89296 36.7034 9.75 36.2321 9.75 35.75C9.75 35.1035 10.0068 34.4836 10.4639 34.0264C10.921 33.5693 11.541 33.3125 12.1875 33.3125ZM12.1875 36.5625C12.3482 36.5625 12.5053 36.5148 12.6389 36.4256C12.7725 36.3363 12.8767 36.2094 12.9382 36.0609C12.9996 35.9125 13.0157 35.7491 12.9844 35.5915C12.953 35.4339 12.8757 35.2891 12.762 35.1755C12.6484 35.0618 12.5036 34.9845 12.346 34.9531C12.1884 34.9218 12.025 34.9379 11.8766 34.9994C11.7281 35.0608 11.6012 35.165 11.5119 35.2986C11.4227 35.4322 11.375 35.5893 11.375 35.75C11.375 35.9655 11.4606 36.1722 11.613 36.3245C11.7653 36.4769 11.972 36.5625 12.1875 36.5625ZM30.0625 27.625C29.5804 27.625 29.1091 27.482 28.7083 27.2142C28.3075 26.9464 27.995 26.5657 27.8105 26.1203C27.6261 25.6749 27.5778 25.1848 27.6718 24.712C27.7659 24.2391 27.998 23.8048 28.3389 23.4639C28.6798 23.123 29.1141 22.8909 29.587 22.7968C30.0598 22.7028 30.5499 22.7511 30.9953 22.9355C31.4407 23.12 31.8214 23.4325 32.0892 23.8333C32.357 24.2341 32.5 24.7054 32.5 25.1875C32.5 25.834 32.2432 26.454 31.7861 26.9111C31.329 27.3682 30.709 27.625 30.0625 27.625ZM30.0625 24.375C29.9018 24.375 29.7447 24.4227 29.6111 24.5119C29.4775 24.6012 29.3733 24.7281 29.3118 24.8766C29.2503 25.025 29.2343 25.1884 29.2656 25.346C29.297 25.5036 29.3743 25.6484 29.488 25.762C29.6016 25.8757 29.7464 25.953 29.904 25.9844C30.0616 26.0157 30.225 25.9996 30.3734 25.9382C30.5219 25.8767 30.6488 25.7725 30.7381 25.6389C30.8273 25.5053 30.875 25.3482 30.875 25.1875C30.875 24.972 30.7894 24.7653 30.637 24.613C30.4846 24.4606 30.278 24.375 30.0625 24.375Z" fill="#F8694F"/>
</svg>
