<svg viewBox="0 0 179 187" fill="none" xmlns="http://www.w3.org/2000/svg">
<rect x="39" width="140" height="140" rx="70" fill="url(#paint0_linear_93_394)"/>
<path d="M109 35C89.6653 35 74 50.6357 74 69.9337C74 89.2318 89.6653 104.867 109 104.867C128.335 104.867 144 89.2318 144 69.9337C144 50.6357 128.335 35 109 35ZM109 98.1061C93.4335 98.1061 80.7742 85.4708 80.7742 69.9337C80.7742 54.3967 93.4335 41.7614 109 41.7614C124.567 41.7614 137.226 54.3967 137.226 69.9337C137.226 85.4708 124.567 98.1061 109 98.1061ZM97.7097 67.6799C100.208 67.6799 102.226 65.6656 102.226 63.1723C102.226 60.6791 100.208 58.6648 97.7097 58.6648C95.2117 58.6648 93.1935 60.6791 93.1935 63.1723C93.1935 65.6656 95.2117 67.6799 97.7097 67.6799ZM120.29 67.6799C122.788 67.6799 124.806 65.6656 124.806 63.1723C124.806 60.6791 122.788 58.6648 120.29 58.6648C117.792 58.6648 115.774 60.6791 115.774 63.1723C115.774 65.6656 117.792 67.6799 120.29 67.6799ZM120.855 77.9065C117.919 81.428 113.587 83.4564 109 83.4564C104.413 83.4564 100.081 81.4421 97.1452 77.9065C95.9456 76.4697 93.8004 76.2866 92.375 77.4698C90.9355 78.6671 90.752 80.7941 91.9375 82.2309C96.1714 87.302 102.395 90.2037 109 90.2037C115.605 90.2037 121.829 87.302 126.062 82.2309C127.262 80.7941 127.065 78.6671 125.625 77.4698C124.2 76.2866 122.054 76.4697 120.855 77.9065Z" fill="white" stroke="#F96660" stroke-width="3.5"/>
<rect x="63.8574" y="140.666" width="9.00092" height="22.5023" rx="4.50046" transform="rotate(43.8869 63.8574 140.666)" fill="url(#paint1_linear_93_394)"/>
<rect x="38.792" y="115" width="9.00092" height="19.127" rx="4.50046" transform="rotate(43.8869 38.792 115)" fill="url(#paint2_linear_93_394)"/>
<rect x="48.4678" y="130.744" width="9.00092" height="37.2922" rx="4.50046" transform="rotate(43.8869 48.4678 130.744)" fill="url(#paint3_linear_93_394)"/>
<rect x="19.4961" y="162.077" width="8.65932" height="8.65296" rx="4.32648" transform="rotate(43.8869 19.4961 162.077)" fill="url(#paint4_linear_93_394)"/>
<defs>
<linearGradient id="paint0_linear_93_394" x1="-11" y1="8" x2="104.5" y2="154.5" gradientUnits="userSpaceOnUse">
<stop stop-color="#FE8664"/>
<stop offset="1" stop-color="#F6595E"/>
</linearGradient>
<linearGradient id="paint1_linear_93_394" x1="68.3579" y1="148.792" x2="68.6903" y2="168.789" gradientUnits="userSpaceOnUse">
<stop offset="0.0107844" stop-color="#FE8664"/>
<stop offset="1" stop-color="#F6595E"/>
</linearGradient>
<linearGradient id="paint2_linear_93_394" x1="42.5183" y1="119.5" x2="25.2896" y2="149.197" gradientUnits="userSpaceOnUse">
<stop stop-color="#FD755C"/>
<stop offset="1" stop-color="#FFB8A4"/>
</linearGradient>
<linearGradient id="paint3_linear_93_394" x1="52.1941" y1="136.737" x2="51.9402" y2="175.991" gradientUnits="userSpaceOnUse">
<stop stop-color="#FE755C"/>
<stop offset="1" stop-color="#F6575E"/>
</linearGradient>
<linearGradient id="paint4_linear_93_394" x1="23.8258" y1="162.077" x2="23.7486" y2="172.581" gradientUnits="userSpaceOnUse">
<stop stop-color="#FB6C5D"/>
<stop offset="1" stop-color="#FE8664"/>
</linearGradient>
</defs>
</svg>
