<svg width="43" height="35" viewBox="0 0 43 35" fill="none" xmlns="http://www.w3.org/2000/svg">
<rect x="6.72363" y="9.56647" width="1.86667" height="4.66667" rx="0.933333" transform="rotate(-90 6.72363 9.56647)" fill="url(#paint0_linear_93_370)"/>
<rect x="5.32324" y="16.1" width="1.86667" height="3.96667" rx="0.933333" transform="rotate(-90 5.32324 16.1)" fill="url(#paint1_linear_93_370)"/>
<rect x="5.32324" y="12.8331" width="1.86667" height="6.53333" rx="0.933333" transform="rotate(-90 5.32324 12.8331)" fill="url(#paint2_linear_93_370)"/>
<rect x="12.5361" y="12.7625" width="1.79582" height="1.7945" rx="0.897252" transform="rotate(-90 12.5361 12.7625)" fill="url(#paint3_linear_93_370)"/>
<path d="M19.8527 8.03161C16.5885 4.76745 11.2963 4.76745 8.03209 8.03161C4.76792 11.2958 4.76792 16.588 8.03209 19.8522L21.0586 32.8787L32.0254 21.9118C32.4969 21.4403 32.4969 20.6759 32.0254 20.2044L19.8527 8.03161Z" stroke="url(#paint4_linear_93_370)" stroke-width="3"/>
<path d="M22.3163 8.03161C25.5804 4.76745 30.8727 4.76745 34.1369 8.03161C37.401 11.2958 37.401 16.588 34.1369 19.8522L21.1104 32.8787L15.2485 27.0168C11.9576 23.7259 11.9576 18.3903 15.2485 15.0994L22.3163 8.03161Z" fill="url(#paint5_linear_93_370)" stroke="#FE8664" stroke-width="3"/>
<circle cx="28.0773" cy="14.2228" r="2" stroke="#FFF4F4" stroke-width="0.765857"/>
<rect x="27.5166" y="16.045" width="1.12138" height="2.94362" fill="#FFF4F4"/>
<rect width="1.12138" height="3.37518" transform="matrix(-4.37114e-08 -1 -1 4.37114e-08 33.0811 14.9111)" fill="#FFF4F4"/>
<rect x="23.1182" y="14.9111" width="1.12138" height="3.37518" transform="rotate(-90 23.1182 14.9111)" fill="#FFF4F4"/>
<rect x="18.6357" y="20.2346" width="1.37503" height="4.27063" rx="0.687513" transform="rotate(-135 18.6357 20.2346)" fill="#FFF4F4"/>
<rect x="22.9844" y="24.7372" width="1.37503" height="4.27063" rx="0.687513" transform="rotate(-135 22.9844 24.7372)" fill="#FFF4F4"/>
<rect x="18.0439" y="25.4006" width="1.37503" height="5.34165" rx="0.687513" transform="rotate(-135 18.0439 25.4006)" fill="#FFF4F4"/>
<rect x="22.3271" y="21.1167" width="1.37503" height="1.37402" rx="0.687009" transform="rotate(-135 22.3271 21.1167)" fill="#FFF4F4"/>
<circle cx="28.0766" cy="14.2226" r="4.85689" stroke="#FFF4F4" stroke-width="1.5"/>
<defs>
<linearGradient id="paint0_linear_93_370" x1="7.65697" y1="11.2517" x2="7.72591" y2="15.3987" gradientUnits="userSpaceOnUse">
<stop offset="0.0107844" stop-color="#FE8664"/>
<stop offset="1" stop-color="#F6595E"/>
</linearGradient>
<linearGradient id="paint1_linear_93_370" x1="6.09603" y1="17.0333" x2="6.1648" y2="20.9117" gradientUnits="userSpaceOnUse">
<stop stop-color="#FD755C"/>
<stop offset="1" stop-color="#FFB8A4"/>
</linearGradient>
<linearGradient id="paint2_linear_93_370" x1="6.09603" y1="13.8831" x2="6.05845" y2="20.7601" gradientUnits="userSpaceOnUse">
<stop stop-color="#FE755C"/>
<stop offset="1" stop-color="#F6575E"/>
</linearGradient>
<linearGradient id="paint3_linear_93_370" x1="13.434" y1="12.7625" x2="13.418" y2="14.9408" gradientUnits="userSpaceOnUse">
<stop stop-color="#FB6C5D"/>
<stop offset="1" stop-color="#FE8664"/>
</linearGradient>
<linearGradient id="paint4_linear_93_370" x1="6.97143" y1="6.97095" x2="19.7172" y2="22.05" gradientUnits="userSpaceOnUse">
<stop stop-color="#FF7F5B"/>
<stop offset="1" stop-color="#F24A5E"/>
</linearGradient>
<linearGradient id="paint5_linear_93_370" x1="28.001" y1="4.55" x2="19.601" y2="34.0667" gradientUnits="userSpaceOnUse">
<stop stop-color="#F24A5E"/>
<stop offset="1" stop-color="#FF7F5B"/>
</linearGradient>
</defs>
</svg>
