<svg viewBox="0 0 24 30" fill="none" xmlns="http://www.w3.org/2000/svg">
<path d="M20.5 0.125H3.5C2.65462 0.125 1.84387 0.460825 1.2461 1.0586C0.648325 1.65637 0.3125 2.46712 0.3125 3.3125V26.6875C0.3125 27.5329 0.648325 28.3436 1.2461 28.9414C1.84387 29.5392 2.65462 29.875 3.5 29.875H20.5C21.3454 29.875 22.1561 29.5392 22.7539 28.9414C23.3517 28.3436 23.6875 27.5329 23.6875 26.6875V3.3125C23.6875 2.46712 23.3517 1.65637 22.7539 1.0586C22.1561 0.460825 21.3454 0.125 20.5 0.125ZM3.5 2.25H20.5C20.7818 2.25 21.052 2.36194 21.2513 2.5612C21.4506 2.76046 21.5625 3.03071 21.5625 3.3125V10.75H2.4375V3.3125C2.4375 3.03071 2.54944 2.76046 2.7487 2.5612C2.94796 2.36194 3.21821 2.25 3.5 2.25V2.25ZM21.5625 26.6875C21.5625 26.9693 21.4506 27.2395 21.2513 27.4388C21.052 27.6381 20.7818 27.75 20.5 27.75H3.5C3.21821 27.75 2.94796 27.6381 2.7487 27.4388C2.54944 27.2395 2.4375 26.9693 2.4375 26.6875V12.875H21.5625V26.6875Z" fill="#F6595E"/>
<path d="M18.375 25.625C18.6568 25.625 18.927 25.5131 19.1263 25.3138C19.3256 25.1145 19.4375 24.8443 19.4375 24.5625V16.0625C19.4375 15.7807 19.3256 15.5105 19.1263 15.3112C18.927 15.1119 18.6568 15 18.375 15C18.0932 15 17.823 15.1119 17.6237 15.3112C17.4244 15.5105 17.3125 15.7807 17.3125 16.0625V24.5625C17.3125 24.8443 17.4244 25.1145 17.6237 25.3138C17.823 25.5131 18.0932 25.625 18.375 25.625Z" fill="#F6595E"/>
<path d="M5.625 17.125C5.76384 17.1233 5.90101 17.0944 6.02875 17.04C6.15751 16.9862 6.2761 16.9107 6.37938 16.8169C6.47785 16.7176 6.55576 16.5998 6.60863 16.4704C6.66151 16.3409 6.68831 16.2023 6.6875 16.0625C6.68359 15.7812 6.57353 15.5117 6.37938 15.3081L6.22 15.1806C6.16077 15.1404 6.09646 15.1082 6.02875 15.085C5.96548 15.0526 5.89725 15.0311 5.82687 15.0212C5.69057 14.9895 5.5488 14.9895 5.4125 15.0212L5.22125 15.085C5.15354 15.1082 5.08923 15.1404 5.03 15.1806L4.87062 15.3081C4.67647 15.5117 4.56641 15.7812 4.5625 16.0625C4.5625 16.3443 4.67444 16.6145 4.8737 16.8138C5.07296 17.013 5.34321 17.125 5.625 17.125Z" fill="#F6595E"/>
<path d="M9.12087 16.8169C9.21965 16.9164 9.33716 16.9955 9.46663 17.0494C9.59611 17.1034 9.73498 17.1311 9.87525 17.1311C10.0155 17.1311 10.1544 17.1034 10.2839 17.0494C10.4133 16.9955 10.5308 16.9164 10.6296 16.8169C10.7235 16.7136 10.7989 16.595 10.8527 16.4662C10.9072 16.3385 10.9361 16.2013 10.9377 16.0625C10.9338 15.7812 10.8238 15.5117 10.6296 15.3081C10.5774 15.26 10.5204 15.2173 10.4596 15.1806C10.4054 15.1386 10.3443 15.1062 10.279 15.085C10.2157 15.0526 10.1475 15.0311 10.0771 15.0212C9.94082 14.9895 9.79905 14.9895 9.66275 15.0212L9.4715 15.085C9.40379 15.1082 9.33948 15.1404 9.28025 15.1806C9.22459 15.2198 9.17136 15.2624 9.12087 15.3081C9.02248 15.4078 8.94642 15.5274 8.89775 15.6587C8.84154 15.7859 8.8125 15.9234 8.8125 16.0625C8.8125 16.2015 8.84154 16.3391 8.89775 16.4662C8.95155 16.595 9.02702 16.7136 9.12087 16.8169V16.8169Z" fill="#F6595E"/>
<path d="M14.125 17.125C14.4068 17.125 14.677 17.0131 14.8763 16.8138C15.0756 16.6145 15.1875 16.3443 15.1875 16.0625C15.1836 15.7812 15.0735 15.5117 14.8794 15.3081C14.8271 15.2601 14.7702 15.2173 14.7094 15.1806C14.6551 15.1386 14.594 15.1062 14.5287 15.085C14.4655 15.0526 14.3972 15.0311 14.3269 15.0213C14.1233 14.9782 13.9114 15.0005 13.7213 15.085C13.5908 15.1356 13.4717 15.2114 13.3706 15.3081C13.1765 15.5117 13.0664 15.7812 13.0625 16.0625C13.0625 16.3443 13.1744 16.6145 13.3737 16.8138C13.573 17.0131 13.8432 17.125 14.125 17.125Z" fill="#F6595E"/>
<path d="M5.625 21.375C5.76384 21.3733 5.90101 21.3444 6.02875 21.29C6.15751 21.2362 6.2761 21.1607 6.37938 21.0669C6.47785 20.9676 6.55576 20.8498 6.60863 20.7204C6.66151 20.5909 6.68831 20.4523 6.6875 20.3125C6.68359 20.0312 6.57353 19.7617 6.37938 19.5581C6.32889 19.5124 6.27566 19.4698 6.22 19.4306C6.16077 19.3904 6.09646 19.3582 6.02875 19.335C5.96548 19.3026 5.89725 19.2811 5.82687 19.2712C5.69057 19.2395 5.5488 19.2395 5.4125 19.2712L5.22125 19.335C5.15354 19.3582 5.08923 19.3904 5.03 19.4306C4.97434 19.4698 4.92111 19.5124 4.87062 19.5581C4.67647 19.7617 4.56641 20.0312 4.5625 20.3125C4.5625 20.5943 4.67444 20.8645 4.8737 21.0638C5.07296 21.263 5.34321 21.375 5.625 21.375Z" fill="#F6595E"/>
<path d="M9.12087 21.0669C9.21965 21.1665 9.33716 21.2455 9.46663 21.2995C9.59611 21.3534 9.73498 21.3812 9.87525 21.3812C10.0155 21.3812 10.1544 21.3534 10.2839 21.2995C10.4133 21.2455 10.5308 21.1665 10.6296 21.0669C10.7235 20.9636 10.7989 20.845 10.8527 20.7163C10.909 20.5891 10.938 20.4516 10.938 20.3125C10.938 20.1735 10.909 20.036 10.8527 19.9088C10.8022 19.7784 10.7264 19.6592 10.6296 19.5582C10.5774 19.5101 10.5204 19.4674 10.4596 19.4307C10.4054 19.3886 10.3443 19.3563 10.279 19.335C10.2157 19.3027 10.1475 19.2811 10.0771 19.2713C9.90643 19.2371 9.72995 19.2454 9.5632 19.2954C9.39646 19.3454 9.24457 19.4357 9.12087 19.5582C9.02414 19.6592 8.94832 19.7784 8.89775 19.9088C8.84154 20.036 8.8125 20.1735 8.8125 20.3125C8.8125 20.4516 8.84154 20.5891 8.89775 20.7163C8.95155 20.845 9.02702 20.9636 9.12087 21.0669V21.0669Z" fill="#F6595E"/>
<path d="M13.3709 21.0669C13.5195 21.2167 13.7094 21.3189 13.9163 21.3604C14.1232 21.4019 14.3378 21.3809 14.5327 21.3C14.7277 21.219 14.894 21.0819 15.0107 20.906C15.1274 20.7302 15.189 20.5235 15.1878 20.3125C15.1839 20.0312 15.0738 19.7617 14.8797 19.5581C14.8274 19.5101 14.7705 19.4673 14.7097 19.4306C14.6554 19.3886 14.5943 19.3562 14.529 19.335C14.4658 19.3026 14.3975 19.2811 14.3272 19.2713C14.1236 19.2282 13.9117 19.2505 13.7215 19.335C13.5897 19.3827 13.4699 19.4589 13.3708 19.558C13.2716 19.6572 13.1955 19.7769 13.1478 19.9088C13.0883 20.0348 13.0592 20.1731 13.0628 20.3125C13.0611 20.4506 13.0864 20.5878 13.1372 20.7163C13.1988 20.8432 13.2774 20.9612 13.3709 21.0669Z" fill="#F6595E"/>
<path d="M5.625 25.625C5.76384 25.6233 5.90101 25.5944 6.02875 25.54C6.15751 25.4862 6.2761 25.4107 6.37938 25.3169C6.47785 25.2176 6.55576 25.0998 6.60863 24.9704C6.66151 24.8409 6.68831 24.7023 6.6875 24.5625C6.68359 24.2812 6.57353 24.0117 6.37938 23.8081L6.22 23.6806C6.16077 23.6404 6.09646 23.6082 6.02875 23.585C5.96548 23.5526 5.89725 23.5311 5.82687 23.5212C5.69057 23.4895 5.5488 23.4895 5.4125 23.5212L5.22125 23.585C5.15354 23.6082 5.08923 23.6404 5.03 23.6806L4.87062 23.8081C4.67647 24.0117 4.56641 24.2812 4.5625 24.5625C4.5625 24.8443 4.67444 25.1145 4.8737 25.3138C5.07296 25.513 5.34321 25.625 5.625 25.625Z" fill="#F6595E"/>
<path d="M9.12087 25.3169C9.21965 25.4165 9.33716 25.4955 9.46663 25.5495C9.59611 25.6034 9.73498 25.6312 9.87525 25.6312C10.0155 25.6312 10.1544 25.6034 10.2839 25.5495C10.4133 25.4955 10.5308 25.4165 10.6296 25.3169C10.7235 25.2136 10.7989 25.095 10.8527 24.9663C10.909 24.8391 10.938 24.7016 10.938 24.5625C10.938 24.4235 10.909 24.286 10.8527 24.1588C10.8022 24.0284 10.7264 23.9092 10.6296 23.8082C10.5774 23.7601 10.5204 23.7174 10.4596 23.6807C10.4054 23.6386 10.3443 23.6063 10.279 23.585C10.2157 23.5527 10.1475 23.5311 10.0771 23.5213C9.90643 23.4871 9.72995 23.4954 9.5632 23.5454C9.39646 23.5954 9.24457 23.6857 9.12087 23.8082C9.02414 23.9092 8.94832 24.0284 8.89775 24.1588C8.84154 24.286 8.8125 24.4235 8.8125 24.5625C8.8125 24.7016 8.84154 24.8391 8.89775 24.9663C8.95155 25.095 9.02702 25.2136 9.12087 25.3169V25.3169Z" fill="#F6595E"/>
<path d="M14.1253 25.625C14.4071 25.625 14.6773 25.5131 14.8766 25.3138C15.0759 25.1145 15.1878 24.8443 15.1878 24.5625C15.1839 24.2812 15.0738 24.0117 14.8797 23.8081C14.8274 23.7601 14.7705 23.7173 14.7097 23.6806C14.6554 23.6386 14.5943 23.6062 14.529 23.585C14.4658 23.5526 14.3975 23.5311 14.3272 23.5213C14.1236 23.4782 13.9117 23.5005 13.7215 23.585C13.5897 23.6327 13.4699 23.7089 13.3708 23.808C13.2716 23.9072 13.1955 24.0269 13.1478 24.1588C13.0883 24.2848 13.0592 24.4231 13.0628 24.5625C13.0628 24.8443 13.1747 25.1145 13.374 25.3138C13.5733 25.5131 13.8435 25.625 14.1253 25.625Z" fill="#F6595E"/>
</svg>
