<svg width="36" height="59" viewBox="0 0 36 59" fill="none" xmlns="http://www.w3.org/2000/svg">
<path d="M18.1649 28.7099C19.7916 28.7114 21.3933 28.3103 22.8272 27.5424C24.2612 26.7745 25.4827 25.6635 26.3829 24.3087C27.2832 22.9539 27.834 21.3974 27.9865 19.7779C28.1389 18.1584 27.8881 16.5264 27.2564 15.0275C26.6248 13.5285 25.6319 12.2092 24.3664 11.1872C23.1009 10.1652 21.6022 9.47233 20.0038 9.17039C18.4055 8.86845 16.7572 8.96683 15.2061 9.45674C13.655 9.94666 12.2493 10.8129 11.1144 11.9781V7.27375C11.1144 6.90181 10.9666 6.5451 10.7036 6.2821C10.4406 6.01909 10.0839 5.87134 9.71198 5.87134C9.34004 5.87134 8.98333 6.01909 8.72033 6.2821C8.45733 6.5451 8.30957 6.90181 8.30957 7.27375V18.8545C8.31254 21.4674 9.35183 23.9724 11.1994 25.82C13.047 27.6676 15.552 28.7069 18.1649 28.7099ZM18.1649 11.8039C19.5594 11.8039 20.9226 12.2174 22.082 12.9922C23.2415 13.7669 24.1452 14.868 24.6788 16.1564C25.2124 17.4447 25.3521 18.8623 25.08 20.23C24.808 21.5977 24.1365 22.8539 23.1504 23.84C22.1644 24.826 20.9081 25.4975 19.5404 25.7696C18.1728 26.0416 16.7551 25.902 15.4668 25.3683C14.1785 24.8347 13.0774 23.931 12.3026 22.7716C11.5279 21.6121 11.1144 20.249 11.1144 18.8545C11.1165 16.9852 11.86 15.1931 13.1818 13.8713C14.5036 12.5495 16.2957 11.806 18.1649 11.8039Z" fill="url(#paint0_linear_93_279)"/>
<path d="M22.6887 43.5798C22.5167 43.6487 22.3602 43.7511 22.228 43.8809C22.0959 44.0106 21.9907 44.1653 21.9187 44.336C21.8466 44.5066 21.8091 44.6899 21.8083 44.8751C21.8074 45.0603 21.8433 45.2439 21.9138 45.4152C21.9843 45.5865 22.088 45.7421 22.219 45.8731C22.35 46.0041 22.5056 46.1078 22.6769 46.1783C22.8482 46.2488 23.0317 46.2847 23.217 46.2838C23.4022 46.283 23.5854 46.2455 23.7561 46.1734C26.7846 44.925 29.4588 42.9496 31.5423 40.4219C33.7636 37.7208 35.0931 34.5944 35.3869 31.3806C35.4165 31.0572 35.3329 30.7337 35.1506 30.4651C34.9682 30.1965 34.6983 29.9995 34.3868 29.9078C31.1784 28.9608 27.7377 29.186 24.6801 30.543C21.6224 31.9 19.1471 34.3003 17.6967 37.3149C16.2462 34.3003 13.7708 31.9 10.713 30.543C7.65519 29.186 4.21443 28.9608 1.00588 29.9078C0.694462 29.9995 0.424533 30.1965 0.242156 30.4651C0.0597785 30.7337 -0.0237464 31.0572 0.0058346 31.3806C0.298238 34.5798 1.68172 37.7128 4.00655 40.4406C6.16026 42.9423 8.8693 44.9056 11.9172 46.1734C12.0878 46.2455 12.2711 46.283 12.4563 46.2838C12.6415 46.2847 12.8251 46.2488 12.9964 46.1783C13.1677 46.1078 13.3233 46.004 13.4543 45.8731C13.5853 45.7421 13.689 45.5864 13.7595 45.4151C13.83 45.2439 13.8658 45.0603 13.865 44.8751C13.8642 44.6898 13.8266 44.5066 13.7546 44.3359C13.6825 44.1653 13.5774 44.0106 13.4452 43.8808C13.3131 43.751 13.1565 43.6487 12.9846 43.5798C7.08091 41.1501 3.81605 36.3768 2.97788 32.318C4.60533 32.0223 6.27787 32.0878 7.87722 32.5098C9.47656 32.9319 10.9636 33.7001 12.2333 34.7603C13.503 35.8205 14.5242 37.1467 15.2248 38.6451C15.9254 40.1435 16.2882 41.7775 16.2875 43.4316C16.2875 43.4746 16.2902 43.517 16.294 43.559V55.7542H2.44544C2.0735 55.7542 1.71679 55.902 1.45379 56.165C1.19079 56.428 1.04303 56.7847 1.04303 57.1566C1.04303 57.5286 1.19079 57.8853 1.45379 58.1483C1.71679 58.4113 2.0735 58.5591 2.44544 58.5591H33.8847C34.2567 58.5591 34.6134 58.4113 34.8764 58.1483C35.1394 57.8853 35.2872 57.5286 35.2872 57.1566C35.2872 56.7847 35.1394 56.428 34.8764 56.165C34.6134 55.902 34.2567 55.7542 33.8847 55.7542H19.0988V43.5553C19.1026 43.5132 19.1053 43.4708 19.1053 43.4278C19.1052 41.7733 19.4687 40.139 20.1701 38.6406C20.8715 37.1421 21.8936 35.8161 23.1641 34.7564C24.4347 33.6967 25.9226 32.9291 27.5226 32.508C29.1226 32.0869 30.7955 32.0226 32.4231 32.3195C31.4978 37.0843 27.7187 41.5096 22.6887 43.5798Z" fill="url(#paint1_linear_93_279)"/>
<path d="M26.3389 10.5227C26.5231 10.5227 26.7055 10.4864 26.8756 10.4159C27.0458 10.3454 27.2004 10.2421 27.3306 10.1119C27.4608 9.98169 27.5641 9.82709 27.6346 9.65694C27.7051 9.48679 27.7413 9.30442 27.7413 9.12026V1.40241C27.7413 1.03047 27.5936 0.673761 27.3306 0.410757C27.0676 0.147754 26.7109 0 26.3389 0C25.967 0 25.6103 0.147754 25.3473 0.410757C25.0843 0.673761 24.9365 1.03047 24.9365 1.40241V9.1202C24.9365 9.49215 25.0843 9.84886 25.3473 10.1119C25.6103 10.3749 25.967 10.5227 26.3389 10.5227Z" fill="url(#paint2_linear_93_279)"/>
<path d="M18.1651 7.44448C18.5371 7.44448 18.8938 7.29673 19.1568 7.03373C19.4198 6.77072 19.5675 6.41401 19.5675 6.04207V1.40241C19.5675 1.03047 19.4198 0.673761 19.1568 0.410757C18.8938 0.147754 18.5371 0 18.1651 0C17.7932 0 17.4365 0.147754 17.1735 0.410757C16.9105 0.673761 16.7627 1.03047 16.7627 1.40241V6.04202C16.7627 6.22619 16.799 6.40856 16.8694 6.57871C16.9399 6.74887 17.0432 6.90348 17.1734 7.03371C17.3037 7.16394 17.4583 7.26725 17.6284 7.33773C17.7986 7.40821 17.9809 7.44448 18.1651 7.44448Z" fill="url(#paint3_linear_93_279)"/>
<defs>
<linearGradient id="paint0_linear_93_279" x1="18.1697" y1="5.87134" x2="-8.00012" y2="34" gradientUnits="userSpaceOnUse">
<stop stop-color="#F5515F"/>
<stop offset="1" stop-color="#FF7F5B"/>
</linearGradient>
<linearGradient id="paint1_linear_93_279" x1="17.6964" y1="29.3313" x2="17.6964" y2="58.5591" gradientUnits="userSpaceOnUse">
<stop stop-color="#F5515F"/>
<stop offset="1" stop-color="#FF7F5B"/>
</linearGradient>
<linearGradient id="paint2_linear_93_279" x1="26.3389" y1="0" x2="26.3389" y2="10.5227" gradientUnits="userSpaceOnUse">
<stop stop-color="#F5515F"/>
<stop offset="1" stop-color="#FF7F5B"/>
</linearGradient>
<linearGradient id="paint3_linear_93_279" x1="18.1651" y1="0" x2="18.1651" y2="7.44448" gradientUnits="userSpaceOnUse">
<stop stop-color="#F5515F"/>
<stop offset="1" stop-color="#FF7F5B"/>
</linearGradient>
</defs>
</svg>
