<svg width="23" height="20" viewBox="0 0 23 20" fill="none" xmlns="http://www.w3.org/2000/svg">
<path fill-rule="evenodd" clip-rule="evenodd" d="M17.1148 9.40894C17.3358 9.86479 17.5308 10.3868 17.7141 10.9797C18.1287 12.3209 18.1966 12.5227 18.4487 13.0678C18.6449 13.492 18.8698 13.8748 19.138 14.2281C19.6647 13.5812 19.9708 12.9164 19.9708 12.3001H22.1634C22.1634 16.1094 16.4818 19.9741 11.2005 19.9741C5.91918 19.9741 0.237631 16.1094 0.237631 12.3001H2.4302C2.4302 12.7869 2.62117 13.304 2.96101 13.8186L4.53544 9.09537L4.1325 8.28951L2.21374 9.24889L0 7.03515L2.4302 2.17474V0L3.74149 0.262257C7.84729 1.08342 10.1042 2.88895 10.1042 5.7224C10.1042 6.21322 10.7097 6.81868 11.2005 6.81868H12.2968C13.828 6.81868 14.9089 7.07749 15.7196 7.65374C18.0515 6.40768 20.457 6.55613 22.7715 8.09909L21.5552 9.92342C20.0408 8.91379 18.6032 8.74229 17.1148 9.40894ZM4.69236 15.5581C4.91545 15.7225 5.15106 15.8817 5.3973 16.0344C6.8897 13.3477 8.16424 12.3001 10.6523 12.3001C13.4168 12.3001 15.7772 13.9975 16.4737 16.3437C16.8383 16.1436 17.1846 15.9285 17.5073 15.7026C17.0888 15.1782 16.7466 14.6107 16.4587 13.9881C16.1479 13.3161 16.0688 13.0813 15.6193 11.6272C14.9577 9.48689 14.4747 9.01126 12.2968 9.01126H11.2005C9.49874 9.01126 7.91163 7.42415 7.91163 5.7224C7.91163 4.39846 6.89438 3.39033 4.60643 2.72503L2.689 6.55989L5.11305 5.34786L6.90269 8.92714L4.69236 15.5581ZM7.36142 17.0131C8.57917 17.4884 9.90643 17.7815 11.2005 17.7815C12.2833 17.7815 13.3894 17.5763 14.4351 17.2308C14.1299 15.6973 12.5734 14.4927 10.6523 14.4927C9.22557 14.4927 8.43812 15.0985 7.36142 17.0131Z" fill="white"/>
</svg>
