<svg width="20" height="29" viewBox="0 0 20 29" fill="none" xmlns="http://www.w3.org/2000/svg">
<path fill-rule="evenodd" clip-rule="evenodd" d="M4.1498 1C3.40956 1 2.7998 1.60975 2.7998 2.35V8.2C2.79981 8.68897 2.91336 9.17237 3.13203 9.60977L3.1566 9.65745L5.07262 11.9268L5.75992 11.3449L3.93004 9.17756C3.78277 8.87255 3.69978 8.53927 3.69977 8.20033V2.35027C3.69977 2.09638 3.89591 1.90027 4.14977 1.90027H15.8498C16.1036 1.90027 16.2998 2.09638 16.2998 2.35027V8.20033C16.2998 8.54719 16.2183 8.88974 16.0642 9.20042L14.6527 11.3925L15.4103 11.8794L16.857 9.63108L16.8675 9.61042C17.0862 9.17303 17.1997 8.68963 17.1998 8.20066V2.35066C17.1998 1.61041 16.59 1.00066 15.8498 1.00066L4.1498 1Z" fill="white" stroke="white" stroke-width="0.5"/>
<path fill-rule="evenodd" clip-rule="evenodd" d="M7.74282 3.24468C7.62377 3.24655 7.51032 3.29547 7.42729 3.3808C7.34427 3.46614 7.29844 3.5809 7.29985 3.69996V8.63765C7.29901 8.69728 7.31002 8.75645 7.33226 8.81179C7.3545 8.86712 7.38751 8.91752 7.42938 8.95999C7.47125 9.00246 7.52114 9.03618 7.57616 9.0592C7.63117 9.08221 7.69021 9.09402 7.74985 9.09402C7.80949 9.09402 7.86853 9.08221 7.92354 9.0592C7.97856 9.03618 8.02845 9.00246 8.07032 8.95999C8.11219 8.91752 8.1452 8.86712 8.16744 8.81179C8.18968 8.75645 8.20069 8.69728 8.19985 8.63765V3.69996C8.20056 3.63982 8.18921 3.58018 8.16647 3.52451C8.14374 3.46883 8.11007 3.4183 8.06747 3.37586C8.02486 3.33342 7.97418 3.2999 7.91842 3.27737C7.86266 3.25484 7.80295 3.24375 7.74282 3.24468Z" fill="white" stroke="white" stroke-width="0.5"/>
<path fill-rule="evenodd" clip-rule="evenodd" d="M9.9998 14.3137L8.975 17.5833H5.49805L6.52636 18.3866L8.22617 19.7172L7.2541 22.818L9.9998 21.0584L12.7455 22.818L11.7734 19.7172L14.5016 17.5833H11.0246L9.9998 14.3137ZM9.9998 17.3213L10.3637 18.4833H11.8912L10.7275 19.3938L11.1459 20.7245L9.9998 19.9897L8.85371 20.7245L9.27207 19.3938L8.1084 18.4833H9.63593L9.9998 17.3213Z" fill="white" stroke="white" stroke-width="0.5"/>
<path d="M10 10C5.03476 10 1 14.0348 1 19C1 23.9652 5.03476 28 10 28C14.9652 28 19 23.9652 19 19C19 14.0348 14.9652 10 10 10ZM10 10.9C14.4788 10.9 18.1 14.5211 18.1 19C18.1 23.4788 14.4788 27.1 10 27.1C5.52116 27.1 1.9 23.4788 1.9 19C1.9 14.5211 5.52116 10.9 10 10.9Z" fill="white" stroke="white" stroke-width="0.5"/>
<path d="M10 12.25C6.27741 12.25 3.25 15.2774 3.25 19C3.25 22.7226 6.27741 25.75 10 25.75C13.7226 25.75 16.75 22.7226 16.75 19C16.75 15.2774 13.7226 12.25 10 12.25ZM10 13.15C13.2362 13.15 15.85 15.7638 15.85 19C15.85 22.2362 13.2362 24.85 10 24.85C6.76381 24.85 4.15 22.2362 4.15 19C4.15 15.7638 6.76381 13.15 10 13.15Z" fill="white" stroke="white" stroke-width="0.5"/>
<path fill-rule="evenodd" clip-rule="evenodd" d="M12.2428 3.24468C12.1238 3.24655 12.0103 3.29547 11.9273 3.3808C11.8443 3.46614 11.7984 3.5809 11.7998 3.69996V8.63765C11.799 8.69728 11.81 8.75645 11.8323 8.81179C11.8545 8.86712 11.8875 8.91752 11.9294 8.95999C11.9712 9.00246 12.0211 9.03618 12.0762 9.0592C12.1312 9.08221 12.1902 9.09402 12.2498 9.09402C12.3095 9.09402 12.3685 9.08221 12.4235 9.0592C12.4786 9.03618 12.5285 9.00246 12.5703 8.95999C12.6122 8.91752 12.6452 8.86712 12.6674 8.81179C12.6897 8.75645 12.7007 8.69728 12.6998 8.63765V3.69996C12.7006 3.63982 12.6892 3.58018 12.6665 3.52451C12.6437 3.46883 12.6101 3.4183 12.5675 3.37586C12.5249 3.33342 12.4742 3.2999 12.4184 3.27737C12.3627 3.25484 12.303 3.24375 12.2428 3.24468Z" fill="white" stroke="white" stroke-width="0.5"/>
</svg>
