<svg width="23" height="27" viewBox="0 0 23 27" fill="none" xmlns="http://www.w3.org/2000/svg">
<path d="M20.9593 14.4858H1.06831C0.163283 14.4858 0.0131283 15.0635 0 15.4003C0.448412 21.4094 5.25089 26.1458 11.1205 26.1458C16.8989 26.1458 21.6526 21.5599 22.2278 15.6854C22.229 15.676 22.229 15.6674 22.2302 15.6579C22.2368 15.5841 22.2356 15.5086 22.2405 15.4339C22.206 14.5896 21.2752 14.4936 20.9593 14.4858Z" fill="white"/>
<path d="M7.47704 6.85172C7.64893 6.89521 7.8274 6.92433 8.01119 6.935V6.94649L8.13058 6.9469C8.14617 6.9469 8.16012 6.95182 8.17529 6.95182C8.19088 6.95182 8.20606 6.94772 8.22165 6.9469L8.5593 6.94854V6.951L14.4916 6.95018C15.2883 6.95018 15.6313 7.16392 15.7753 7.3071C15.8615 7.4868 15.914 7.68618 15.914 7.8987C15.914 8.36926 15.6765 8.78403 15.3171 9.03183C15.3093 9.03839 15.299 9.04209 15.2924 9.04783C15.2453 9.0786 15.1952 9.10321 15.1435 9.12824C14.8227 9.25706 14.3222 9.25583 14.3222 9.25583H11.7031L7.86391 9.25542C7.86391 9.25542 7.40196 9.24886 6.95642 9.38547C6.94493 9.38957 6.93344 9.39327 6.92073 9.39778C6.87437 9.41214 6.82842 9.42896 6.78206 9.44742C6.54575 9.54588 6.30452 9.69317 6.09406 9.91758C6.08872 9.92291 6.0838 9.92701 6.07847 9.93194C6.0719 9.9385 6.06575 9.94178 6.06042 9.94835C6.05385 9.95573 6.05262 9.95901 6.0477 9.9664C5.62021 10.3836 5.35272 10.9613 5.35272 11.6066C5.35272 11.7572 5.37241 11.902 5.404 12.0423C5.44011 12.1719 5.56687 12.4702 5.9997 12.4718H6.19867C6.68155 12.4612 6.80462 11.5742 6.80462 11.5742L6.80832 11.5746C6.83662 11.4708 6.87888 11.3728 6.93673 11.2846C6.93919 11.2809 6.94042 11.2776 6.94452 11.2731C6.95108 11.2645 6.95847 11.2571 6.96503 11.248C7.08319 11.1086 7.41591 10.8534 8.28483 10.8534L14.2184 10.8538V10.8513L14.5548 10.8501C14.5712 10.8505 14.5856 10.8546 14.6008 10.8546C14.6159 10.8546 14.6315 10.8501 14.6467 10.8501L14.7649 10.8493V10.8378C14.9482 10.8271 15.1283 10.798 15.3002 10.7545C16.5688 10.5001 17.5251 9.38137 17.5251 8.03819C17.5251 7.62382 17.4278 7.2349 17.2646 6.88413C17.1439 6.57397 16.9643 6.29377 16.7292 6.06443C16.7238 6.05705 16.7226 6.05377 16.7165 6.04638C16.7111 6.03982 16.705 6.03613 16.6984 6.02956C16.6931 6.02505 16.6881 6.02095 16.6828 6.01561C16.5917 5.91879 16.4941 5.84207 16.394 5.77151C16.3636 5.74895 16.3329 5.72761 16.3005 5.70751C16.227 5.66197 16.1528 5.62464 16.0793 5.59059C15.363 5.27879 14.396 5.35387 14.396 5.35387H9.69694H9.47745H8.4555C8.4555 5.35387 7.95458 5.3551 7.63252 5.22587C7.58247 5.20084 7.53078 5.17664 7.48483 5.14587C7.47704 5.14012 7.46678 5.13643 7.46022 5.12987C7.0996 4.88207 6.86329 4.46771 6.86329 3.99673C6.86329 3.23653 7.4795 2.62073 8.2393 2.62073H11.0738H11.4024H11.6592C12.8416 2.62073 13.0545 1.75919 13.0918 1.36452V0.425438C13.0918 0.0640003 12.8284 0.00656413 12.7891 0C12.4038 0.0114872 11.7876 0.107898 11.7876 0.62072C11.7876 0.742157 11.7876 0.836926 11.7876 0.92185C11.7753 1.07652 11.6814 1.36411 11.1616 1.36411H8.04319C8.03827 1.36452 8.0317 1.36452 8.02637 1.36452C8.02514 1.36452 8.02391 1.36411 8.02268 1.36411C8.01611 1.36411 8.01119 1.36616 8.00463 1.36616C7.81058 1.37601 7.62596 1.39324 7.46924 1.4199C7.46678 1.42072 7.46391 1.42072 7.46145 1.42113C7.35109 1.44042 7.25632 1.4638 7.18534 1.49334C7.16114 1.50319 7.14555 1.51385 7.1316 1.52411C6.04031 1.89621 5.25098 2.91858 5.25098 4.13499C5.25098 5.47859 6.20729 6.59736 7.47704 6.85172Z" fill="white"/>
</svg>
