<svg width="341" height="432" viewBox="0 0 341 432" fill="none" xmlns="http://www.w3.org/2000/svg">
<path d="M1 0.499512C19 8 22.4806 9.76621 30.3916 15.6505C38.3017 21.5347 43.3755 30.2631 47.2411 39.1159C57.1701 61.8484 60.4618 86.5898 67.2497 110.329C74.0376 134.069 85.4135 158.159 106.524 172.213C139.476 194.153 183.383 184.924 222.525 178.581C232.768 176.921 243.572 175.567 253.401 179.019C265.985 183.44 274.648 195.148 278.592 207.459C282.535 219.77 282.517 232.824 282.749 245.655C283.493 286.96 287.7 329.926 309.626 365.749C331.552 401.572 387.247 440.858 458.787 428.634" stroke="black" stroke-opacity="0.1" stroke-miterlimit="10"/>
</svg>
