<svg width="25" height="24" viewBox="0 0 25 24" fill="none" xmlns="http://www.w3.org/2000/svg">
<path d="M18.1206 21.1392L12.8322 22.8769C12.3337 23.0406 11.7957 23.0406 11.2971 22.8769L6.0087 21.1392C4.41942 20.617 3.20461 19.3228 2.78407 17.7035L1 10.835L12.0647 12.0644L23.1293 10.835L21.3452 17.7035C20.9248 19.3228 19.7099 20.617 18.1206 21.1392Z" stroke="#EA4745" stroke-width="1.8" stroke-linecap="round" stroke-linejoin="round"/>
<path d="M5.29954 6.23411C5.67295 5.3006 6.57708 4.68848 7.5825 4.68848H16.5471C17.5525 4.68848 18.4568 5.3006 18.8301 6.23411L20.6707 10.8355L12.0648 12.0649L3.45898 10.8355L5.29954 6.23411Z" stroke="#EA4745" stroke-width="1.8" stroke-linecap="round" stroke-linejoin="round"/>
<path d="M12.0645 1V4.68822" stroke="#EA4745" stroke-width="1.8" stroke-linecap="round" stroke-linejoin="round"/>
<path d="M10.835 1H13.2938" stroke="#EA4745" stroke-width="1.8" stroke-linecap="round" stroke-linejoin="round"/>
<path d="M12.0645 12.0645V16.9821" stroke="#EA4745" stroke-width="1.8" stroke-linecap="round" stroke-linejoin="round"/>
</svg>
