<svg width="28" height="23" viewBox="0 0 28 23" fill="none" xmlns="http://www.w3.org/2000/svg">
<path d="M3.21 5.6202C5.29 2.8902 8.54 1.2002 12.05 1.2002H19.2C21.41 1.2002 23.1 2.8902 23.1 5.1002V16.8002C23.88 16.8002 24.4 16.2802 24.4 15.5002C24.4 14.7202 24.92 14.2002 25.7 14.2002C26.48 14.2002 27 14.7202 27 15.5002C27 17.7102 25.31 19.4002 23.1 19.4002H21.8H20.5H13.74C13.22 20.9602 11.79 22.0002 10.1 22.0002C8.41 22.0002 6.98 20.9602 6.46 19.4002H4.9C2.69 19.4002 1 17.7102 1 15.5002V12.2502C1 11.9902 1 11.7302 1 11.6002C1.13 9.39019 1.91 7.31019 3.21 5.6202ZM4.77 7.96019C4.64 8.22019 4.51 8.48019 4.38 8.61019C4.25 8.74019 4.25 8.8702 4.12 9.1302C3.99 9.3902 3.99 9.6502 3.86 9.91019C3.86 10.0402 3.73 10.1702 3.73 10.3002H15.3C16.08 10.3002 16.6 9.7802 16.6 9.0002C16.6 8.22019 16.08 7.7002 15.3 7.7002H4.9C4.9 7.83019 4.9 7.83019 4.77 7.96019ZM10.1 19.4002C10.88 19.4002 11.4 18.8802 11.4 18.1002C11.4 17.3202 10.88 16.8002 10.1 16.8002C9.32 16.8002 8.8 17.3202 8.8 18.1002C8.8 18.8802 9.32 19.4002 10.1 19.4002ZM3.6 15.5002C3.6 16.2802 4.12 16.8002 4.9 16.8002H6.46V16.6702C6.46 16.5402 6.46 16.5402 6.59 16.4102C6.72 16.2802 6.72 16.1502 6.85 16.0202L6.98 15.8902C7.11 15.7602 7.24 15.6302 7.37 15.5002C7.37 15.5002 7.37 15.5002 7.5 15.3702C7.63 15.2402 7.89 15.1102 8.02 14.9802L8.15 14.8502C8.28 14.7202 8.41 14.7202 8.54 14.5902C8.67 14.5902 8.67 14.5902 8.8 14.4602C8.93 14.4602 9.06 14.3302 9.32 14.3302C9.45 14.3302 9.45 14.3302 9.58 14.3302C9.58 14.2002 9.84 14.2002 10.1 14.2002C10.36 14.2002 10.62 14.2002 10.88 14.3302C11.01 14.3302 11.01 14.3302 11.14 14.3302C11.27 14.3302 11.4 14.4602 11.66 14.4602C11.79 14.4602 11.79 14.4602 11.92 14.5902C12.05 14.7202 12.18 14.7202 12.31 14.8502C12.31 14.8502 12.44 14.8502 12.44 14.9802C12.57 15.1102 12.83 15.2402 12.96 15.3702C12.96 15.3702 12.96 15.3702 13.09 15.5002C13.22 15.6302 13.35 15.7602 13.48 15.8902L13.61 16.0202C13.74 16.1502 13.74 16.2802 13.87 16.4102C13.87 16.5402 13.87 16.5402 14 16.6702V16.8002H20.5V5.1002C20.5 4.3202 19.98 3.8002 19.2 3.8002H12.05C10.36 3.8002 8.8 4.3202 7.5 5.1002H15.3C17.51 5.1002 19.2 6.79019 19.2 9.0002C19.2 11.2102 17.51 12.9002 15.3 12.9002H3.6V15.5002Z" fill="#EA4745" stroke="white" stroke-width="0.8"/>
</svg>
