<svg width="28" height="19" viewBox="0 0 28 19" fill="none" xmlns="http://www.w3.org/2000/svg">
<path d="M19.6875 0C19.1133 0 18.6348 0.362305 18.457 0.875H14.875V2.625H18.5938L18.8672 3.5H15.75C13.4668 3.5 12.3184 4.73047 11.8945 5.25H8.94141C8.60303 5.05176 7.39307 4.375 5.6875 4.375C3.79736 4.375 2.24219 5.11328 2.24219 5.11328L3.00781 6.69922C3.00781 6.69922 4.25879 6.125 5.6875 6.125C6.39502 6.125 7.06152 6.34033 7.54688 6.53516L6.78125 8.12109C6.29932 7.97412 5.77979 7.875 5.25 7.875C2.35498 7.875 0 10.23 0 13.125C0 16.02 2.35498 18.375 5.25 18.375C7.85107 18.375 10.0044 16.4849 10.418 14H13.4531C14.1162 14 14.7451 13.6138 15.0391 13.0156H15.0117L15.9688 11.0742C17.4248 10.4043 18.6108 9.24219 19.4414 8.14844C19.6704 7.84766 19.8652 7.5708 20.043 7.30078L21.9023 13.3711L23.5977 12.8789L22.6133 9.65234C22.6611 9.64893 22.7021 9.625 22.75 9.625C24.6812 9.625 26.25 11.1938 26.25 13.125C26.25 15.0562 24.6812 16.625 22.75 16.625C20.8188 16.625 19.25 15.0562 19.25 13.125C19.25 12.1919 19.6089 11.3477 20.207 10.7188L19.6602 8.88672C18.3545 9.84375 17.5 11.3887 17.5 13.125C17.5 16.02 19.855 18.375 22.75 18.375C25.645 18.375 28 16.02 28 13.125C28 10.23 25.645 7.875 22.75 7.875C22.5176 7.875 22.292 7.89893 22.0664 7.92969L20.4531 2.625H21.875V0H19.6875ZM15.75 5.25H19.25C19.1201 5.48584 18.7305 6.18311 18.0469 7.08203C17.2334 8.14844 16.1021 9.2832 15.0117 9.67969L14.6562 9.78906L14.5195 10.1172L13.4531 12.25H5.25V14H8.61328C8.22363 15.5073 6.87695 16.625 5.25 16.625C3.31885 16.625 1.75 15.0562 1.75 13.125C1.75 11.1938 3.31885 9.625 5.25 9.625C6.53857 9.625 7.64941 10.3325 8.25781 11.375H10.1992C9.84375 10.3701 9.18408 9.50537 8.33984 8.88672L9.29688 7H12.7148L12.9883 6.61719C12.9883 6.61719 13.8359 5.25 15.75 5.25Z" fill="#EA4745"/>
</svg>
