<svg width="25" height="23" viewBox="0 0 25 23" fill="none" xmlns="http://www.w3.org/2000/svg">
<path d="M12.5005 1.99144C11.1348 0.710814 9.3472 5.95049e-05 7.49187 0C6.50986 0.00104263 5.53775 0.200115 4.63148 0.58576C3.72521 0.971406 2.90267 1.53601 2.2112 2.24708C-0.738109 5.26748 -0.736856 9.99172 2.2137 12.9993L11.4038 22.3711C11.6169 22.7533 12.028 23 12.5005 23C12.6946 22.9981 12.8855 22.9498 13.0579 22.859C13.2303 22.7682 13.3794 22.6374 13.4933 22.4772L22.7874 12.9993C25.738 9.99044 25.738 5.26748 22.7849 2.24197C22.0938 1.5322 21.2719 0.968747 20.3665 0.58399C19.4611 0.199233 18.4901 0.000766419 17.5092 0C15.6539 0.000309273 13.8664 0.71103 12.5005 1.99144ZM21.0125 4.04935C22.9716 6.05741 22.9729 9.19412 21.0151 11.192L12.5005 19.8748L3.98604 11.192C2.0282 9.19412 2.02945 6.05741 3.98354 4.05446C4.93614 3.08814 6.18204 2.55641 7.49187 2.55641C8.8017 2.55641 10.0426 3.08814 10.9877 4.05191L11.6144 4.69101C11.7307 4.80981 11.8688 4.90406 12.0209 4.96837C12.1729 5.03268 12.3359 5.06578 12.5005 5.06578C12.6652 5.06578 12.8282 5.03268 12.9802 4.96837C13.1323 4.90406 13.2704 4.80981 13.3867 4.69101L14.0134 4.05191C15.9086 2.1231 19.1199 2.12821 21.0125 4.04935Z" fill="white"/>
</svg>
