<svg width="27" height="22" viewBox="0 0 27 22" fill="none" xmlns="http://www.w3.org/2000/svg">
<path d="M12.3261 0C7.35023 0 3.99864 0.586957 3.99864 0.586957C3.92155 0.601398 3.84806 0.630884 3.78237 0.673731C3.71667 0.716577 3.66006 0.771944 3.61577 0.836671C3.57147 0.901397 3.54036 0.974215 3.52421 1.05097C3.50806 1.12772 3.50719 1.2069 3.52165 1.28398C3.5361 1.36107 3.5656 1.43456 3.60845 1.50025C3.65131 1.56593 3.70669 1.62253 3.77142 1.66682C3.83615 1.7111 3.90898 1.7422 3.98573 1.75834C4.06248 1.77448 4.14166 1.77534 4.21875 1.76087C4.21875 1.76087 4.66269 1.69703 5.28261 1.61413V6.45652H2.34783V7.63043H5.28261V9.9966C6.51404 10.0535 7.77527 10.1919 9.00611 10.4185C8.77427 9.69593 8.46597 8.77456 8.18071 8.01562C7.80579 7.01963 7.01269 6.65832 6.45652 6.52989V1.46739C7.87224 1.32122 9.89421 1.17391 12.3261 1.17391C14.1665 1.17391 15.773 1.25342 17.0584 1.35734C17.0636 1.37597 17.0697 1.39434 17.0768 1.41236L21.0754 10.5652L18.9844 15.2609H14.087V14.252C14.087 13.5888 13.662 13.0127 12.9864 12.748C10.2365 11.6715 6.60605 11.0559 3.5034 11.1522C2.47622 11.1839 1.76982 11.4162 1.33899 11.8675C0.16156 13.1013 0 15.167 0 17.0217C0 17.3457 0.262957 17.6087 0.586957 17.6087H1.22894C1.1902 17.7983 1.17391 17.9949 1.17391 18.1957C1.17391 19.8139 2.49046 21.1304 4.1087 21.1304C5.52561 21.1304 6.71552 20.1203 6.98845 18.7826H21.1855C21.4584 20.1203 22.6477 21.1304 24.0652 21.1304C25.6835 21.1304 27 19.8139 27 18.1957C27 18.0618 26.9803 17.9396 26.9633 17.8105C26.985 17.7482 27 17.678 27 17.6087V14.087C27 14.0388 26.9934 13.9872 26.9817 13.9402C26.4741 11.9112 22.9927 10.4357 22.1576 10.1067L18.3791 1.48573C19.6651 1.62471 20.4334 1.76087 20.4334 1.76087C20.5105 1.77534 20.5897 1.77448 20.6664 1.75834C20.7432 1.7422 20.816 1.7111 20.8808 1.66682C20.9455 1.62253 21.0009 1.56593 21.0437 1.50025C21.0866 1.43456 21.1161 1.36107 21.1305 1.28398C21.145 1.2069 21.1441 1.12772 21.128 1.05097C21.1118 0.974215 21.0807 0.901397 21.0364 0.836671C20.9921 0.771944 20.9355 0.716577 20.8698 0.673731C20.8041 0.630884 20.7306 0.601398 20.6535 0.586957C20.6535 0.586957 17.3019 0 12.3261 0ZM16.9484 5.28261C16.8169 5.29682 16.6941 5.35499 16.5999 5.44769L14.252 7.79552C14.1966 7.85092 14.1527 7.91669 14.1227 7.98907C14.0927 8.06146 14.0773 8.13905 14.0773 8.2174C14.0773 8.29575 14.0927 8.37334 14.1227 8.44573C14.1527 8.51812 14.1966 8.58389 14.252 8.63929C14.3074 8.6947 14.3732 8.73864 14.4456 8.76863C14.518 8.79861 14.5956 8.81404 14.6739 8.81404C14.7523 8.81404 14.8298 8.7986 14.9022 8.76861C14.9746 8.73863 15.0404 8.69467 15.0958 8.63927L15.8478 7.88723L19.4062 11.4273L19.9198 10.2717L16.6916 7.04348L17.4436 6.29144C17.5359 6.20554 17.598 6.09224 17.6208 5.96828C17.6437 5.84433 17.626 5.71632 17.5705 5.60317C17.515 5.49003 17.4245 5.39777 17.3124 5.34004C17.2004 5.2823 17.0727 5.26217 16.9484 5.28261ZM4.1087 16.4348C5.07952 16.4348 5.86957 17.2248 5.86957 18.1957C5.86957 19.1665 5.07952 19.9565 4.1087 19.9565C3.13787 19.9565 2.34783 19.1665 2.34783 18.1957C2.34783 17.2248 3.13787 16.4348 4.1087 16.4348ZM24.0652 16.4348C25.036 16.4348 25.8261 17.2248 25.8261 18.1957C25.8261 19.1665 25.036 19.9565 24.0652 19.9565C23.0944 19.9565 22.3043 19.1665 22.3043 18.1957C22.3043 17.2248 23.0944 16.4348 24.0652 16.4348Z" fill="#EA4745"/>
</svg>
