<svg width="25" height="21" viewBox="0 0 25 21" fill="none" xmlns="http://www.w3.org/2000/svg">
<path fill-rule="evenodd" clip-rule="evenodd" d="M0.156078 5.64319C0.306506 5.43952 0.544677 5.31934 0.797883 5.31934H3.98937C4.20098 5.31934 4.40391 5.4034 4.55355 5.55303L6.44752 7.447H20.3723C22.9281 7.447 25 9.51891 25 12.0747C25 13.0441 24.2141 13.83 23.2447 13.83H16.202L13.2245 20.2814C13.094 20.5639 12.8112 20.7449 12.5 20.7449H9.30852C9.05532 20.7449 8.81715 20.6247 8.66671 20.421C8.51629 20.2173 8.47147 19.9543 8.54593 19.7123L10.3559 13.83H2.92554C2.57527 13.83 2.26596 13.6016 2.16295 13.2668L0.0352891 6.35185C-0.0391736 6.10985 0.00565081 5.84687 0.156078 5.64319ZM1.87817 6.91508L3.51483 12.2342H11.4362C11.6894 12.2342 11.9276 12.3544 12.078 12.5581C12.2284 12.7618 12.2732 13.0248 12.1987 13.2668L10.3888 19.1491H11.9895L14.967 12.6977C15.0974 12.4152 15.3803 12.2342 15.6915 12.2342H23.2447C23.3328 12.2342 23.4043 12.1627 23.4043 12.0747C23.4043 10.4002 22.0468 9.04274 20.3723 9.04274H6.11703C5.90542 9.04274 5.70248 8.9587 5.55285 8.80902L3.65888 6.91508H1.87817Z" fill="#EA4745"/>
<path fill-rule="evenodd" clip-rule="evenodd" d="M11.671 8.47531C12.0921 8.34573 12.3285 7.8993 12.1988 7.47813L10.3889 1.59574H11.9896L14.9671 8.04713C15.1518 8.44722 15.6258 8.6219 16.026 8.43722C16.4261 8.25254 16.6007 7.77851 16.4161 7.37841L13.2246 0.463521C13.0941 0.180957 12.8113 0 12.5001 0H9.30862C9.05542 0 8.81725 0.120191 8.66682 0.323862C8.51639 0.527532 8.47157 0.790511 8.54603 1.03252L10.6737 7.94741C10.8033 8.36861 11.2498 8.60499 11.671 8.47531Z" fill="#EA4745"/>
</svg>
