<svg width="26" height="26" viewBox="0 0 26 26" fill="none" xmlns="http://www.w3.org/2000/svg">
<path d="M1.625 12.1875H24.375" stroke="#EA4745" stroke-width="1.5" stroke-linecap="round" stroke-linejoin="round"/>
<path d="M22.75 18.6875V21.125C22.75 21.3405 22.6644 21.5472 22.512 21.6995C22.3597 21.8519 22.153 21.9375 21.9375 21.9375H19.5C19.2845 21.9375 19.0778 21.8519 18.9255 21.6995C18.7731 21.5472 18.6875 21.3405 18.6875 21.125V18.6875" stroke="#EA4745" stroke-width="1.5" stroke-linecap="round" stroke-linejoin="round"/>
<path d="M7.3125 18.6875V21.125C7.3125 21.3405 7.2269 21.5472 7.07452 21.6995C6.92215 21.8519 6.71549 21.9375 6.5 21.9375H4.0625C3.84701 21.9375 3.64035 21.8519 3.48798 21.6995C3.3356 21.5472 3.25 21.3405 3.25 21.125V18.6875" stroke="#EA4745" stroke-width="1.5" stroke-linecap="round" stroke-linejoin="round"/>
<path d="M6.5 15.4375H8.125" stroke="#EA4745" stroke-width="1.5" stroke-linecap="round" stroke-linejoin="round"/>
<path d="M17.875 15.4375H19.5" stroke="#EA4745" stroke-width="1.5" stroke-linecap="round" stroke-linejoin="round"/>
<path d="M22.75 12.1875L19.7336 6.90626C19.6633 6.78246 19.5614 6.6796 19.4382 6.6082C19.3151 6.53681 19.1752 6.49947 19.0328 6.50001H6.96719C6.82484 6.49947 6.68492 6.53681 6.56177 6.6082C6.43862 6.6796 6.33668 6.78246 6.26641 6.90626L3.25 12.1875V18.6875H22.75V12.1875Z" stroke="#EA4745" stroke-width="1.5" stroke-linecap="round" stroke-linejoin="round"/>
</svg>
