<svg width="28" height="23" viewBox="0 0 28 23" fill="none" xmlns="http://www.w3.org/2000/svg">
<path d="M24.27 19.2437C23.75 20.8188 22.32 22 20.5 22C18.81 22 17.38 20.95 16.86 19.375H11.14C10.62 20.95 9.19 22 7.5 22C5.68 22 4.25 20.8188 3.73 19.2437C2.17 18.7188 1 17.275 1 15.4375V10.1875C1 7.69375 2.69 5.59375 5.03 5.06875C4.9 4.80625 4.9 4.54375 4.9 4.28125C4.9 2.44375 6.33 1 8.15 1H17.25C19.07 1 20.5 2.44375 20.5 4.28125C20.5 4.54375 20.5 4.675 20.37 4.9375H20.63C22.58 4.9375 24.27 5.9875 25.18 7.69375L26.48 10.3188C26.61 10.5813 26.61 10.7125 26.74 10.975C26.87 11.3688 27 11.7625 27 12.1562V15.4375C27 17.275 25.83 18.7188 24.27 19.2437ZM20.5 19.375C21.28 19.375 21.8 18.85 21.8 18.0625C21.8 17.275 21.28 16.75 20.5 16.75C19.72 16.75 19.2 17.275 19.2 18.0625C19.2 18.85 19.72 19.375 20.5 19.375ZM7.5 19.375C8.28 19.375 8.8 18.85 8.8 18.0625C8.8 17.275 8.28 16.75 7.5 16.75C6.72 16.75 6.2 17.275 6.2 18.0625C6.2 18.85 6.72 19.375 7.5 19.375ZM3.6 10.1875H16.6V7.5625H8.15H6.2C4.77 7.5625 3.6 8.74375 3.6 10.1875ZM17.25 3.625H8.15C7.76 3.625 7.5 3.8875 7.5 4.28125C7.5 4.675 7.76 4.9375 8.15 4.9375H17.25C17.64 4.9375 17.9 4.675 17.9 4.28125C17.9 3.8875 17.64 3.625 17.25 3.625ZM22.84 9.00625C22.45 8.0875 21.54 7.5625 20.63 7.5625H19.2V10.1875H23.49L22.84 9.00625ZM24.4 12.8125H3.6V15.4375C3.6 15.8313 3.73 16.0938 3.99 16.3562C4.12 16.225 4.12 15.9625 4.25 15.8313C4.38 15.7 4.51 15.5687 4.64 15.3062L4.77 15.175C4.9 15.0437 5.03 14.9125 5.16 14.7812C5.16 14.7812 5.29 14.7812 5.29 14.65C5.42 14.5187 5.68 14.3875 5.94 14.3875H6.07C6.2 14.3875 6.46 14.2563 6.59 14.2563H6.72C6.98 14.125 7.24 14.125 7.5 14.125C7.76 14.125 8.02 14.125 8.28 14.2563C8.41 14.2563 8.41 14.2563 8.54 14.2563C8.67 14.2563 8.8 14.3875 9.06 14.3875C9.19 14.3875 9.19 14.3875 9.32 14.5188C9.45 14.65 9.58 14.65 9.71 14.7812C9.71 14.7812 9.84 14.7813 9.84 14.9125C9.97 15.0438 10.23 15.175 10.36 15.3062C10.36 15.3062 10.36 15.3062 10.49 15.4375C10.62 15.5688 10.75 15.7 10.88 15.8313L11.01 15.9625C11.14 16.0937 11.14 16.225 11.27 16.3562C11.27 16.4875 11.27 16.4875 11.4 16.6187V16.75H16.86V16.6187C16.86 16.4875 16.86 16.4875 16.99 16.3562C17.12 16.225 17.12 16.0937 17.25 15.9625L17.38 15.8313C17.51 15.7 17.64 15.5688 17.77 15.4375C17.77 15.4375 17.77 15.4375 17.9 15.3062C18.03 15.175 18.29 15.0438 18.42 14.9125L18.55 14.7812C18.68 14.65 18.81 14.65 18.94 14.5188C19.07 14.5188 19.07 14.5188 19.2 14.3875C19.33 14.3875 19.46 14.2563 19.72 14.2563C19.85 14.2563 19.85 14.2563 19.98 14.2563C19.98 14.125 20.24 14.125 20.5 14.125C20.76 14.125 21.02 14.125 21.15 14.2563C21.28 14.2563 21.28 14.2563 21.28 14.2563C21.41 14.2563 21.67 14.3875 21.8 14.3875H21.93C22.19 14.5188 22.32 14.65 22.58 14.65C22.58 14.65 22.71 14.65 22.71 14.7812C22.84 14.9125 22.97 15.0437 23.1 15.175L23.23 15.3062C23.36 15.4375 23.49 15.5688 23.62 15.8313C23.75 15.9625 23.88 16.0938 23.88 16.3562C24.27 16.0938 24.4 15.8313 24.4 15.4375V12.8125Z" fill="#EA4745" stroke="white"/>
</svg>
