<svg width="35" height="42" viewBox="0 0 35 42" fill="none" xmlns="http://www.w3.org/2000/svg">
<path d="M32.9837 22.7964H1.68121C0.256959 22.7964 0.02066 23.7054 0 24.2355C0.705669 33.692 8.26336 41.1457 17.5003 41.1457C26.594 41.1457 34.0748 33.9289 34.98 24.6842C34.9819 24.6693 34.9819 24.6558 34.9839 24.6409C34.9942 24.5247 34.9923 24.4059 35 24.2884C34.9458 22.9597 33.4808 22.8087 32.9837 22.7964Z" fill="white"/>
<path d="M11.7668 10.7826C12.0374 10.851 12.3182 10.8969 12.6074 10.9137V10.9317L12.7953 10.9324C12.8198 10.9324 12.8418 10.9401 12.8657 10.9401C12.8902 10.9401 12.9141 10.9337 12.9386 10.9324L13.47 10.935V10.9388L22.8057 10.9375C24.0595 10.9375 24.5993 11.2739 24.8259 11.4992C24.9615 11.782 25.0441 12.0958 25.0441 12.4302C25.0441 13.1708 24.6703 13.8235 24.1047 14.2134C24.0925 14.2238 24.0763 14.2296 24.066 14.2386C23.9918 14.287 23.913 14.3258 23.8316 14.3652C23.3268 14.5679 22.5391 14.566 22.5391 14.566H18.4174L12.3757 14.5653C12.3757 14.5653 11.6487 14.555 10.9475 14.77C10.9295 14.7764 10.9114 14.7822 10.8914 14.7893C10.8184 14.8119 10.7461 14.8384 10.6731 14.8675C10.3013 15.0224 9.92164 15.2542 9.59043 15.6074C9.58204 15.6157 9.57429 15.6222 9.5659 15.6299C9.55557 15.6403 9.54588 15.6454 9.53749 15.6558C9.52716 15.6674 9.52522 15.6726 9.51748 15.6842C8.84473 16.3408 8.42379 17.2498 8.42379 18.2654C8.42379 18.5023 8.45478 18.7302 8.50449 18.951C8.5613 19.1551 8.7608 19.6244 9.44194 19.627H9.75507C10.515 19.6102 10.7087 18.2144 10.7087 18.2144L10.7145 18.215C10.759 18.0517 10.8255 17.8974 10.9165 17.7586C10.9204 17.7528 10.9224 17.7476 10.9288 17.7405C10.9391 17.7269 10.9508 17.7153 10.9611 17.7011C11.147 17.4816 11.6706 17.08 13.0381 17.08L22.3758 17.0807V17.0768L22.9052 17.0749C22.931 17.0755 22.9536 17.082 22.9775 17.082C23.0014 17.082 23.0259 17.0749 23.0498 17.0749L23.2357 17.0736V17.0555C23.5243 17.0387 23.8077 16.9929 24.0783 16.9244C26.0745 16.5241 27.5795 14.7635 27.5795 12.6497C27.5795 11.9977 27.4265 11.3856 27.1695 10.8336C26.9797 10.3455 26.6969 9.90454 26.327 9.54364C26.3186 9.53201 26.3166 9.52685 26.307 9.51523C26.2986 9.5049 26.2889 9.49909 26.2786 9.48876C26.2702 9.48166 26.2624 9.4752 26.254 9.46681C26.1107 9.31444 25.957 9.19371 25.7995 9.08266C25.7517 9.04715 25.7033 9.01358 25.6523 8.98194C25.5367 8.91028 25.4199 8.85153 25.3043 8.79794C24.177 8.30726 22.6553 8.42541 22.6553 8.42541H15.2603H14.9149H13.3067C13.3067 8.42541 12.5183 8.42735 12.0115 8.22398C11.9328 8.18459 11.8514 8.1465 11.7791 8.09808C11.7668 8.08904 11.7507 8.08323 11.7404 8.0729C11.1729 7.68294 10.801 7.03086 10.801 6.28968C10.801 5.09334 11.7707 4.12426 12.9664 4.12426H17.427H17.9442H18.3483C20.209 4.12426 20.5441 2.76844 20.6029 2.14735V0.669514C20.6029 0.100718 20.1884 0.01033 20.1264 0C19.5202 0.0180775 18.5504 0.1698 18.5504 0.976831C18.5504 1.16794 18.5504 1.31708 18.5504 1.45072C18.5311 1.69412 18.3832 2.1467 17.5652 2.1467H12.6578C12.6501 2.14735 12.6397 2.14735 12.6313 2.14735C12.6294 2.14735 12.6275 2.1467 12.6255 2.1467C12.6152 2.1467 12.6074 2.14993 12.5971 2.14993C12.2917 2.16543 12.0012 2.19254 11.7546 2.23451C11.7507 2.2358 11.7462 2.2358 11.7423 2.23645C11.5686 2.26679 11.4195 2.30359 11.3078 2.35008C11.2697 2.36557 11.2452 2.38236 11.2232 2.3985C9.50585 2.98408 8.26367 4.59298 8.26367 6.50726C8.26367 8.62168 9.76862 10.3823 11.7668 10.7826Z" fill="white"/>
</svg>
