<svg width="34" height="30" viewBox="0 0 34 30" fill="none" xmlns="http://www.w3.org/2000/svg">
<path fill-rule="evenodd" clip-rule="evenodd" d="M25.5541 14.0485C25.884 14.7291 26.1752 15.5085 26.4488 16.3937C27.0679 18.3963 27.1693 18.6976 27.5457 19.5114C27.8387 20.1449 28.1745 20.7164 28.5749 21.2439C29.3614 20.2781 29.8183 19.2854 29.8183 18.3653H33.092C33.092 24.0529 24.6089 29.8233 16.7234 29.8233C8.83791 29.8233 0.354807 24.0529 0.354807 18.3653H3.62853C3.62853 19.0921 3.91366 19.8642 4.42108 20.6326L6.77184 13.5803L6.17023 12.377L3.30533 13.8095L0 10.5042L3.62853 3.2471V0L5.58641 0.391575C11.7168 1.61765 15.0866 4.31348 15.0866 8.54409C15.0866 9.27694 15.9906 10.181 16.7234 10.181H18.3603C20.6465 10.181 22.2605 10.5674 23.4708 11.4278C26.9527 9.56729 30.5443 9.78894 34 12.0927L32.1841 14.8166C29.9228 13.3091 27.7763 13.0531 25.5541 14.0485ZM7.00615 23.2298C7.33925 23.4752 7.69103 23.7129 8.05869 23.9409C10.287 19.9294 12.19 18.3653 15.905 18.3653C20.0325 18.3653 23.557 20.8997 24.5968 24.4028C25.1412 24.1039 25.6582 23.7829 26.1402 23.4456C25.5152 22.6625 25.0044 21.8153 24.5744 20.8857C24.1103 19.8822 23.9923 19.5316 23.3211 17.3606C22.3332 14.1648 21.6121 13.4547 18.3603 13.4547H16.7234C14.1825 13.4547 11.8128 11.085 11.8128 8.54409C11.8128 6.56733 10.294 5.06209 6.87784 4.06874L4.01494 9.79455L7.63428 7.98488L10.3064 13.3291L7.00615 23.2298ZM10.9913 25.4022C12.8095 26.1118 14.7913 26.5496 16.7234 26.5496C18.3402 26.5496 19.9916 26.2431 21.5529 25.7273C21.0973 23.4375 18.7734 21.639 15.905 21.639C13.7747 21.639 12.5989 22.5435 10.9913 25.4022Z" fill="white"/>
</svg>
