<svg width="30" height="34" viewBox="0 0 30 34" fill="none" xmlns="http://www.w3.org/2000/svg">
<path d="M12.1169 33.9604V23.6513C12.1169 23.5324 12.1948 23.4531 12.3117 23.4531H17.6883C17.8052 23.4531 17.8831 23.5324 17.8831 23.6513V33.9604H27.0779C28.6753 33.9604 30 32.6122 30 30.9866V14.2542C30 13.2233 29.5714 12.2321 28.8701 11.4787L17.1818 0.892128C15.974 -0.297376 13.987 -0.297376 12.7792 0.892128L1.16883 11.4787L1.12987 11.5184C0.38961 12.2321 0 13.263 0 14.2939V31.0262C0 32.6519 1.32467 34 2.92208 34H12.1169V33.9604ZM2.72727 30.9866V14.2542C2.72727 13.9767 2.84416 13.6991 3.03896 13.5009L14.6494 2.95394L14.6883 2.91429C14.8831 2.75569 15.1558 2.75569 15.3117 2.91429L26.961 13.5009C27.1558 13.6991 27.2727 13.9767 27.2727 14.2542V30.9866C27.2727 31.1055 27.1948 31.1848 27.0779 31.1848H20.6104V23.6513C20.6104 22.0257 19.2857 20.6776 17.6883 20.6776H12.3117C10.7143 20.6776 9.38961 22.0257 9.38961 23.6513V31.1848H2.92208C2.80519 31.1848 2.72727 31.1055 2.72727 30.9866Z" fill="white"/>
</svg>
