<svg width="34" height="36" viewBox="0 0 34 36" fill="none" xmlns="http://www.w3.org/2000/svg">
<path d="M27.5938 4.46875C24.3563 4.46875 21.8125 7.0125 21.8125 10.25C21.8125 13.025 23.7781 15.3375 26.4375 15.9156V24.7031C26.4375 28.8656 23.0844 32.2188 18.9219 32.2188C14.7594 32.2188 11.4062 28.8656 11.4062 24.7031V24.0094C15.9156 23.4312 19.5 19.5 19.5 14.875V5.625C19.5 4.35312 18.4594 3.3125 17.1875 3.3125H16.0312C15.3375 3.3125 14.875 2.85 14.875 2.15625C14.875 1.4625 14.4125 1 13.7188 1C13.025 1 12.5625 1.4625 12.5625 2.15625C12.5625 4.12188 14.0656 5.625 16.0312 5.625H17.1875V14.875C17.1875 18.6906 14.0656 21.8125 10.25 21.8125C6.43438 21.8125 3.3125 18.6906 3.3125 14.875V5.625H4.46875C6.43438 5.625 7.9375 4.12188 7.9375 2.15625C7.9375 1.4625 7.475 1 6.78125 1C6.0875 1 5.625 1.4625 5.625 2.15625C5.625 2.85 5.1625 3.3125 4.46875 3.3125H3.3125C2.04062 3.3125 1 4.35312 1 5.625V14.875C1 19.6156 4.58437 23.4312 9.09375 24.0094V24.7031C9.09375 30.1375 13.4875 34.5312 18.9219 34.5312C24.3562 34.5312 28.75 30.1375 28.75 24.7031V15.9156C31.4094 15.3375 33.375 13.025 33.375 10.25C33.375 7.0125 30.8312 4.46875 27.5938 4.46875ZM28.4031 11.0594C28.1719 11.2906 27.9406 11.4062 27.5938 11.4062C27.4781 11.4062 27.2469 11.4062 27.1313 11.2906C27.0156 11.175 26.9 11.175 26.7844 11.0594C26.5531 10.8281 26.4375 10.5969 26.4375 10.25C26.4375 9.90312 26.5531 9.67188 26.7844 9.44063C26.9 9.325 27.0156 9.20938 27.1313 9.20938C27.5938 8.97813 28.0563 9.09375 28.4031 9.44063C28.6344 9.67188 28.75 9.90312 28.75 10.25C28.75 10.5969 28.6344 10.8281 28.4031 11.0594Z" fill="white" stroke="white"/>
</svg>
