<svg width="26" height="26" viewBox="0 0 26 26" fill="none" xmlns="http://www.w3.org/2000/svg">
<path d="M24.9854 24.1396L16.5271 15.6812C16.4728 15.6235 16.4073 15.5774 16.3346 15.5459C16.2619 15.5144 16.1834 15.4982 16.1042 15.4982C16.0249 15.4982 15.9465 15.5144 15.8737 15.5459C15.801 15.5774 15.7355 15.6235 15.6812 15.6812L13.6875 17.6629L8.25 12.2254V9.45833H11.875V10.6667C11.875 10.8269 11.9387 10.9806 12.052 11.0939C12.1653 11.2072 12.3189 11.2708 12.4792 11.2708H19.7292C19.8406 11.2696 19.9497 11.2387 20.0452 11.1813C20.1408 11.124 20.2194 11.0423 20.2729 10.9446C20.3204 10.8441 20.3399 10.7327 20.3293 10.6221C20.3186 10.5115 20.2783 10.4058 20.2125 10.3162L18.0617 7.34375L20.2125 4.37125C20.2882 4.28761 20.3395 4.18479 20.3609 4.07399C20.3822 3.9632 20.3726 3.84868 20.3333 3.74292C20.2751 3.63578 20.187 3.5479 20.0798 3.48997C19.9725 3.43204 19.8507 3.40657 19.7292 3.41667H15.5V1.60417C15.5 1.44393 15.4363 1.29026 15.323 1.17696C15.2097 1.06365 15.0561 1 14.8958 1H7.64583C7.4856 1 7.33193 1.06365 7.21862 1.17696C7.10532 1.29026 7.04167 1.44393 7.04167 1.60417V12.2254L1.53167 17.7354C1.19388 18.0765 1.00303 18.5362 1 19.0162V23.3542C1 23.8349 1.19096 24.2959 1.53087 24.6358C1.87078 24.9757 2.3318 25.1667 2.8125 25.1667H24.5625C24.6818 25.1661 24.7982 25.1302 24.8971 25.0635C24.996 24.9969 25.073 24.9024 25.1183 24.7921C25.1677 24.6832 25.1814 24.5615 25.1575 24.4443C25.1337 24.3271 25.0734 24.2205 24.9854 24.1396ZM18.545 4.625L16.8292 7.04167C16.7527 7.14249 16.7113 7.26555 16.7113 7.39208C16.7113 7.51861 16.7527 7.64167 16.8292 7.7425L18.545 10.1592H13.0833V9.45833H14.8958C15.0561 9.45833 15.2097 9.39468 15.323 9.28138C15.4363 9.16807 15.5 9.0144 15.5 8.85417V4.625H18.545ZM14.2917 8.25H8.25V2.20833H14.2917V8.25ZM2.8125 23.9583C2.65227 23.9583 2.49859 23.8947 2.38529 23.7814C2.27199 23.6681 2.20833 23.5144 2.20833 23.3542V19.0162C2.20737 18.937 2.22299 18.8584 2.25421 18.7856C2.28543 18.7128 2.33154 18.6473 2.38958 18.5933L7.64583 13.3371L13.2646 18.9437L18.2671 23.9583H2.8125ZM19.9829 23.9583L14.5454 18.5208L16.1042 16.9621L23.1004 23.9583H19.9829Z" fill="white" stroke="white" stroke-width="0.5"/>
</svg>
