<svg width="458" height="504" viewBox="0 0 458 504" fill="none" xmlns="http://www.w3.org/2000/svg">
<path d="M349.025 410.593C349.025 408.055 346.968 405.998 344.431 405.998H343.595C341.058 405.998 339 408.055 339 410.593C339 413.131 341.058 415.188 343.595 415.188H344.431C346.968 415.188 349.025 413.131 349.025 410.593Z" fill="url(#paint0_linear_143_575)"/>
<path d="M376.732 144.853C400.362 166.914 408.752 233.27 421.497 292.158C425.024 308.449 422.695 325.65 414.082 339.583C395.28 369.968 362.672 361.778 334.578 355.382C312.294 350.309 285.325 348.341 270.758 366.07C260.126 379.005 260.273 397.681 257.789 414.511C254.586 436.182 244.733 458.477 225.71 468.17C201.813 480.348 171.652 468.209 152.548 448.485C133.449 428.76 122.077 402.773 107.769 379.174C87.3175 345.428 60.4001 315.945 41.781 281.114C23.1588 246.288 13.7279 202.7 30.9848 167.727C44.5769 140.196 72.8409 122.691 102.351 116.496C131.865 110.311 162.668 114.142 192.331 120.592C216.052 125.746 240.573 132.577 264.013 126.906C279.585 123.139 310.791 113.803 326.614 116.901C344.019 120.309 363.545 132.543 376.732 144.853Z" fill="#FFF4F4"/>
<path d="M108.535 458.07C54.1159 458.07 10.0003 413.954 10.0003 359.535C10.0003 305.116 54.1159 261 108.535 261C162.955 261 207.07 305.116 207.07 359.535C207.07 413.954 162.955 458.07 108.535 458.07Z" stroke="black" stroke-opacity="0.1" stroke-width="0.7039" stroke-miterlimit="10"/>
<path d="M108.535 450.95C58.048 450.95 17.1202 410.022 17.1202 359.535C17.1202 309.048 58.048 268.12 108.535 268.12C159.022 268.12 199.95 309.048 199.95 359.535C199.95 410.022 159.022 450.95 108.535 450.95Z" stroke="black" stroke-opacity="0.1" stroke-width="0.688" stroke-miterlimit="10"/>
<path d="M108.535 443.83C61.9803 443.83 24.2401 406.09 24.2401 359.535C24.2401 312.98 61.9803 275.24 108.535 275.24C155.09 275.24 192.83 312.98 192.83 359.535C192.83 406.09 155.09 443.83 108.535 443.83Z" stroke="black" stroke-opacity="0.1" stroke-width="0.6722" stroke-miterlimit="10"/>
<path d="M108.535 436.71C65.9124 436.71 31.36 402.158 31.36 359.535C31.36 316.912 65.9124 282.36 108.535 282.36C151.158 282.36 185.71 316.912 185.71 359.535C185.71 402.158 151.158 436.71 108.535 436.71Z" stroke="black" stroke-opacity="0.1" stroke-width="0.6564" stroke-miterlimit="10"/>
<path d="M108.536 429.591C69.8449 429.591 38.4798 398.226 38.4798 359.535C38.4798 320.844 69.8449 289.479 108.536 289.479C147.227 289.479 178.592 320.844 178.592 359.535C178.592 398.226 147.227 429.591 108.536 429.591Z" stroke="black" stroke-opacity="0.1" stroke-width="0.6406" stroke-miterlimit="10"/>
<path d="M108.536 422.471C73.7771 422.471 45.5997 394.294 45.5997 359.535C45.5997 324.776 73.7771 296.599 108.536 296.599C143.294 296.599 171.472 324.776 171.472 359.535C171.472 394.294 143.294 422.471 108.536 422.471Z" stroke="black" stroke-opacity="0.1" stroke-width="0.6247" stroke-miterlimit="10"/>
<path d="M108.536 415.351C77.7092 415.351 52.7195 390.361 52.7195 359.535C52.7195 328.709 77.7092 303.719 108.536 303.719C139.362 303.719 164.352 328.709 164.352 359.535C164.352 390.361 139.362 415.351 108.536 415.351Z" stroke="black" stroke-opacity="0.1" stroke-width="0.6089" stroke-miterlimit="10"/>
<path d="M108.535 408.231C81.6414 408.231 59.8395 386.429 59.8395 359.535C59.8395 332.641 81.6414 310.839 108.535 310.839C135.43 310.839 157.231 332.641 157.231 359.535C157.231 386.429 135.43 408.231 108.535 408.231Z" stroke="black" stroke-opacity="0.1" stroke-width="0.5931" stroke-miterlimit="10"/>
<path d="M108.535 401.112C85.5729 401.112 66.9583 382.497 66.9583 359.535C66.9583 336.573 85.5729 317.958 108.535 317.958C131.498 317.958 150.112 336.573 150.112 359.535C150.112 382.497 131.498 401.112 108.535 401.112Z" stroke="black" stroke-opacity="0.1" stroke-width="0.5773" stroke-miterlimit="10"/>
<path d="M108.535 393.992C89.5051 393.992 74.0782 378.565 74.0782 359.535C74.0782 340.505 89.5051 325.078 108.535 325.078C127.565 325.078 142.992 340.505 142.992 359.535C142.992 378.565 127.565 393.992 108.535 393.992Z" stroke="black" stroke-opacity="0.1" stroke-width="0.5615" stroke-miterlimit="10"/>
<path d="M108.535 386.872C93.4372 386.872 81.1981 374.633 81.1981 359.535C81.1981 344.437 93.4372 332.198 108.535 332.198C123.633 332.198 135.872 344.437 135.872 359.535C135.872 374.633 123.633 386.872 108.535 386.872Z" stroke="black" stroke-opacity="0.1" stroke-width="0.5456" stroke-miterlimit="10"/>
<path d="M108.535 379.752C97.3694 379.752 88.3179 370.701 88.3179 359.535C88.3179 348.369 97.3694 339.318 108.535 339.318C119.7 339.318 128.752 348.369 128.752 359.535C128.752 370.701 119.7 379.752 108.535 379.752Z" stroke="black" stroke-opacity="0.1" stroke-width="0.5298" stroke-miterlimit="10"/>
<path d="M108.535 372.632C101.302 372.632 95.4379 366.768 95.4379 359.535C95.4379 352.302 101.302 346.438 108.535 346.438C115.768 346.438 121.632 352.302 121.632 359.535C121.632 366.768 115.768 372.632 108.535 372.632Z" stroke="black" stroke-opacity="0.1" stroke-width="0.514" stroke-miterlimit="10"/>
<path d="M108.536 365.513C105.234 365.513 102.558 362.837 102.558 359.535C102.558 356.233 105.234 353.557 108.536 353.557C111.837 353.557 114.514 356.233 114.514 359.535C114.514 362.837 111.837 365.513 108.536 365.513Z" stroke="black" stroke-opacity="0.1" stroke-width="0.4982" stroke-miterlimit="10"/>
<path d="M332.489 245.528C312.707 258.205 297.539 277.582 288.684 300.852C265.532 361.685 209.51 374.309 186.883 368.832C160.601 362.457 137.233 342.148 121.858 317.226C106.484 292.305 98.4768 263.137 94.848 234.222C92.0207 211.621 91.8032 188.339 98.6684 167.685C105.378 147.506 118.375 131.109 131.444 115.455C148.25 95.3223 165.902 75.4065 188.013 62.4089C206.038 51.8042 230.515 46.9414 247.817 61.9371C262.563 74.7238 267.157 97.8541 282.08 110.383C302.981 127.923 332.398 116.348 356.523 127.099C384.66 139.629 397.445 172.801 388.941 191.863C380.078 211.736 354.411 231.479 332.489 245.528Z" stroke="url(#paint1_linear_143_575)" stroke-miterlimit="10"/>
<path d="M43.9326 111.694C43.9326 109.157 41.8755 107.099 39.3379 107.099C36.8003 107.099 34.7431 109.157 34.7431 111.694C34.7431 114.232 36.8003 116.289 39.3379 116.289C41.8755 116.289 43.9326 114.232 43.9326 111.694Z" fill="url(#paint2_linear_143_575)"/>
<defs>
<linearGradient id="paint0_linear_143_575" x1="346.186" y1="415.986" x2="344.995" y2="406.888" gradientUnits="userSpaceOnUse">
<stop stop-color="#FFA56F"/>
<stop offset="1" stop-color="#F4505E"/>
</linearGradient>
<linearGradient id="paint1_linear_143_575" x1="98.5977" y1="277.068" x2="380.307" y2="269.347" gradientUnits="userSpaceOnUse">
<stop stop-color="#F65260"/>
<stop offset="1" stop-color="#FB8669"/>
</linearGradient>
<linearGradient id="paint2_linear_143_575" x1="41.3301" y1="117.088" x2="40.0346" y2="108.018" gradientUnits="userSpaceOnUse">
<stop stop-color="#FFA56F"/>
<stop offset="1" stop-color="#F4505E"/>
</linearGradient>
</defs>
</svg>
