<svg width="634" height="640" viewBox="0 0 634 640" fill="none" xmlns="http://www.w3.org/2000/svg">
<path d="M349.062 135.31C350.331 137.508 349.578 140.318 347.38 141.587L346.657 142.005C344.459 143.273 341.649 142.52 340.38 140.323C339.111 138.125 339.864 135.315 342.062 134.046L342.785 133.629C344.983 132.36 347.793 133.113 349.062 135.31Z" fill="url(#paint0_linear_143_637)"/>
<path d="M505.926 351.594C515.36 320.674 489.448 259.013 471.041 201.642C465.95 185.77 455.333 172.038 440.907 164.278C409.433 147.365 385.287 170.762 364.156 190.348C347.393 205.883 325.022 221.072 303.542 213.002C287.867 207.116 278.656 190.868 268.089 177.535C254.481 160.369 234.8 145.987 213.479 147.105C186.694 148.506 166.644 174.1 159.961 200.733C153.284 227.366 156.429 255.556 155.837 283.148C154.999 322.599 146.429 361.59 147.72 401.065C149.006 440.536 162.632 482.999 195.064 504.658C220.6 521.705 253.83 522.733 282.484 513.342C311.137 503.942 335.897 485.223 358.361 464.806C376.327 448.482 394.147 430.305 417.282 423.497C432.652 418.973 464.345 411.454 476.5 400.86C489.868 389.206 500.661 368.849 505.926 351.594Z" fill="#FFF4F4"/>
<path d="M393.613 265.549C370.143 264.461 347.318 255.263 328.014 239.539C277.548 198.432 222.719 215.51 205.863 231.567C186.29 250.229 176.207 279.501 175.352 308.771C174.498 338.041 182.148 367.304 193.463 394.16C202.315 415.147 213.767 435.418 230.04 449.872C245.94 463.993 265.394 471.695 284.539 478.717C309.16 487.75 334.405 496.171 360.053 496.372C380.965 496.543 404.594 488.516 412.081 466.878C418.457 448.432 410.871 426.104 417.53 407.792C426.861 382.151 458.124 377.466 473.642 356.094C491.744 331.174 486.23 296.054 469.335 283.798C451.723 271.019 419.623 266.754 393.613 265.549Z" stroke="url(#paint1_linear_143_637)" stroke-miterlimit="10"/>
<path d="M234.292 546.711C235.561 548.908 234.808 551.718 232.611 552.987C230.413 554.256 227.603 553.503 226.334 551.305C225.065 549.108 225.818 546.298 228.016 545.029C230.214 543.76 233.024 544.513 234.292 546.711Z" fill="url(#paint2_linear_143_637)"/>
<path d="M153.535 400.07C99.1159 400.07 55.0003 355.954 55.0003 301.535C55.0003 247.116 99.1159 203 153.535 203C207.955 203 252.07 247.116 252.07 301.535C252.07 355.954 207.955 400.07 153.535 400.07Z" stroke="black" stroke-opacity="0.1" stroke-width="0.7039" stroke-miterlimit="10"/>
<path d="M153.535 392.95C103.048 392.95 62.1202 352.022 62.1202 301.535C62.1202 251.048 103.048 210.12 153.535 210.12C204.022 210.12 244.95 251.048 244.95 301.535C244.95 352.022 204.022 392.95 153.535 392.95Z" stroke="black" stroke-opacity="0.1" stroke-width="0.688" stroke-miterlimit="10"/>
<path d="M153.535 385.83C106.98 385.83 69.2401 348.09 69.2401 301.535C69.2401 254.98 106.98 217.24 153.535 217.24C200.09 217.24 237.83 254.98 237.83 301.535C237.83 348.09 200.09 385.83 153.535 385.83Z" stroke="black" stroke-opacity="0.1" stroke-width="0.6722" stroke-miterlimit="10"/>
<path d="M153.535 378.71C110.912 378.71 76.36 344.157 76.36 301.535C76.36 258.912 110.912 224.36 153.535 224.36C196.158 224.36 230.71 258.912 230.71 301.535C230.71 344.157 196.158 378.71 153.535 378.71Z" stroke="black" stroke-opacity="0.1" stroke-width="0.6564" stroke-miterlimit="10"/>
<path d="M153.536 371.591C114.845 371.591 83.4798 340.226 83.4798 301.535C83.4798 262.844 114.845 231.479 153.536 231.479C192.227 231.479 223.592 262.844 223.592 301.535C223.592 340.226 192.227 371.591 153.536 371.591Z" stroke="black" stroke-opacity="0.1" stroke-width="0.6406" stroke-miterlimit="10"/>
<path d="M153.536 364.471C118.777 364.471 90.5997 336.294 90.5997 301.535C90.5997 266.777 118.777 238.599 153.536 238.599C188.294 238.599 216.472 266.777 216.472 301.535C216.472 336.294 188.294 364.471 153.536 364.471Z" stroke="black" stroke-opacity="0.1" stroke-width="0.6247" stroke-miterlimit="10"/>
<path d="M153.536 357.351C122.709 357.351 97.7195 332.361 97.7195 301.535C97.7195 270.709 122.709 245.719 153.536 245.719C184.362 245.719 209.352 270.709 209.352 301.535C209.352 332.361 184.362 357.351 153.536 357.351Z" stroke="black" stroke-opacity="0.1" stroke-width="0.6089" stroke-miterlimit="10"/>
<path d="M153.535 350.231C126.641 350.231 104.839 328.429 104.839 301.535C104.839 274.641 126.641 252.839 153.535 252.839C180.43 252.839 202.231 274.641 202.231 301.535C202.231 328.429 180.43 350.231 153.535 350.231Z" stroke="black" stroke-opacity="0.1" stroke-width="0.5931" stroke-miterlimit="10"/>
<path d="M153.535 343.112C130.573 343.112 111.958 324.497 111.958 301.535C111.958 278.573 130.573 259.958 153.535 259.958C176.498 259.958 195.112 278.573 195.112 301.535C195.112 324.497 176.498 343.112 153.535 343.112Z" stroke="black" stroke-opacity="0.1" stroke-width="0.5773" stroke-miterlimit="10"/>
<path d="M153.535 335.992C134.505 335.992 119.078 320.565 119.078 301.535C119.078 282.505 134.505 267.078 153.535 267.078C172.565 267.078 187.992 282.505 187.992 301.535C187.992 320.565 172.565 335.992 153.535 335.992Z" stroke="black" stroke-opacity="0.1" stroke-width="0.5615" stroke-miterlimit="10"/>
<path d="M153.535 328.872C138.437 328.872 126.198 316.633 126.198 301.535C126.198 286.437 138.437 274.198 153.535 274.198C168.633 274.198 180.872 286.437 180.872 301.535C180.872 316.633 168.633 328.872 153.535 328.872Z" stroke="black" stroke-opacity="0.1" stroke-width="0.5456" stroke-miterlimit="10"/>
<path d="M153.535 321.752C142.369 321.752 133.318 312.7 133.318 301.535C133.318 290.369 142.369 281.318 153.535 281.318C164.7 281.318 173.752 290.369 173.752 301.535C173.752 312.7 164.7 321.752 153.535 321.752Z" stroke="black" stroke-opacity="0.1" stroke-width="0.5298" stroke-miterlimit="10"/>
<path d="M153.535 314.632C146.302 314.632 140.438 308.768 140.438 301.535C140.438 294.302 146.302 288.438 153.535 288.438C160.768 288.438 166.632 294.302 166.632 301.535C166.632 308.768 160.768 314.632 153.535 314.632Z" stroke="black" stroke-opacity="0.1" stroke-width="0.514" stroke-miterlimit="10"/>
<path d="M153.536 307.513C150.234 307.513 147.558 304.837 147.558 301.535C147.558 298.234 150.234 295.557 153.536 295.557C156.837 295.557 159.514 298.234 159.514 301.535C159.514 304.837 156.837 307.513 153.536 307.513Z" stroke="black" stroke-opacity="0.1" stroke-width="0.4982" stroke-miterlimit="10"/>
<defs>
<linearGradient id="paint0_linear_143_637" x1="343.907" y1="132.059" x2="347.424" y2="140.534" gradientUnits="userSpaceOnUse">
<stop stop-color="#FFA56F"/>
<stop offset="1" stop-color="#F4505E"/>
</linearGradient>
<linearGradient id="paint1_linear_143_637" x1="175.287" y1="355.179" x2="423.115" y2="221.011" gradientUnits="userSpaceOnUse">
<stop stop-color="#F65260"/>
<stop offset="1" stop-color="#FB8669"/>
</linearGradient>
<linearGradient id="paint2_linear_143_637" x1="229.342" y1="543.341" x2="232.755" y2="551.843" gradientUnits="userSpaceOnUse">
<stop stop-color="#FFA56F"/>
<stop offset="1" stop-color="#F4505E"/>
</linearGradient>
</defs>
</svg>
