<svg width="511" height="511" viewBox="0 0 511 511" fill="none" xmlns="http://www.w3.org/2000/svg">
<path d="M187.024 473.595C187.024 471.057 184.967 469 182.43 469H181.594C179.057 469 177 471.057 177 473.595C177 476.132 179.057 478.189 181.594 478.189H182.43C184.967 478.189 187.024 476.132 187.024 473.595Z" fill="url(#paint0_linear_143_671)"/>
<path d="M146.589 419.792C118.055 404.598 92.7762 342.675 65.2238 289.092C57.6008 274.269 55.3985 257.051 60.112 241.364C70.4085 207.148 104.026 206.619 132.817 205.526C155.655 204.658 182.215 199.579 191.697 178.685C198.618 163.438 193.642 145.436 191.686 128.537C189.171 106.776 192.918 82.6896 208.784 68.4044C228.715 50.4554 260.99 54.3746 284.549 68.4821C308.102 82.5924 325.812 104.75 345.74 123.842C374.229 151.145 407.86 172.656 434.86 201.482C461.861 230.302 482.252 269.963 474.635 308.211C468.631 338.322 445.861 362.546 418.959 376.167C392.052 389.781 361.307 394.052 330.986 395.5C306.739 396.661 281.286 396.409 260.112 407.954C246.046 415.622 218.319 432.717 202.233 433.82C184.54 435.032 162.513 428.269 146.589 419.792Z" fill="#FFF4F4"/>
<path d="M370.535 506.07C316.116 506.07 272 461.954 272 407.535C272 353.116 316.116 309 370.535 309C424.955 309 469.07 353.116 469.07 407.535C469.07 461.954 424.955 506.07 370.535 506.07Z" stroke="black" stroke-opacity="0.1" stroke-width="0.7039" stroke-miterlimit="10"/>
<path d="M370.535 498.95C320.048 498.95 279.12 458.022 279.12 407.535C279.12 357.048 320.048 316.12 370.535 316.12C421.022 316.12 461.95 357.048 461.95 407.535C461.95 458.022 421.022 498.95 370.535 498.95Z" stroke="black" stroke-opacity="0.1" stroke-width="0.688" stroke-miterlimit="10"/>
<path d="M370.535 491.83C323.98 491.83 286.24 454.09 286.24 407.535C286.24 360.98 323.98 323.24 370.535 323.24C417.09 323.24 454.83 360.98 454.83 407.535C454.83 454.09 417.09 491.83 370.535 491.83Z" stroke="black" stroke-opacity="0.1" stroke-width="0.6722" stroke-miterlimit="10"/>
<path d="M370.535 484.71C327.912 484.71 293.36 450.157 293.36 407.535C293.36 364.912 327.912 330.36 370.535 330.36C413.158 330.36 447.71 364.912 447.71 407.535C447.71 450.157 413.158 484.71 370.535 484.71Z" stroke="black" stroke-opacity="0.1" stroke-width="0.6564" stroke-miterlimit="10"/>
<path d="M370.536 477.591C331.845 477.591 300.48 446.226 300.48 407.535C300.48 368.844 331.845 337.479 370.536 337.479C409.227 337.479 440.592 368.844 440.592 407.535C440.592 446.226 409.227 477.591 370.536 477.591Z" stroke="black" stroke-opacity="0.1" stroke-width="0.6406" stroke-miterlimit="10"/>
<path d="M370.536 470.471C335.777 470.471 307.6 442.294 307.6 407.535C307.6 372.777 335.777 344.599 370.536 344.599C405.294 344.599 433.472 372.777 433.472 407.535C433.472 442.294 405.294 470.471 370.536 470.471Z" stroke="black" stroke-opacity="0.1" stroke-width="0.6247" stroke-miterlimit="10"/>
<path d="M370.536 463.351C339.709 463.351 314.72 438.361 314.72 407.535C314.72 376.709 339.709 351.719 370.536 351.719C401.362 351.719 426.352 376.709 426.352 407.535C426.352 438.361 401.362 463.351 370.536 463.351Z" stroke="black" stroke-opacity="0.1" stroke-width="0.6089" stroke-miterlimit="10"/>
<path d="M370.535 456.231C343.641 456.231 321.839 434.429 321.839 407.535C321.839 380.641 343.641 358.839 370.535 358.839C397.43 358.839 419.231 380.641 419.231 407.535C419.231 434.429 397.43 456.231 370.535 456.231Z" stroke="black" stroke-opacity="0.1" stroke-width="0.5931" stroke-miterlimit="10"/>
<path d="M370.535 449.112C347.573 449.112 328.958 430.497 328.958 407.535C328.958 384.573 347.573 365.958 370.535 365.958C393.498 365.958 412.112 384.573 412.112 407.535C412.112 430.497 393.498 449.112 370.535 449.112Z" stroke="black" stroke-opacity="0.1" stroke-width="0.5773" stroke-miterlimit="10"/>
<path d="M370.535 441.992C351.505 441.992 336.078 426.565 336.078 407.535C336.078 388.505 351.505 373.078 370.535 373.078C389.565 373.078 404.992 388.505 404.992 407.535C404.992 426.565 389.565 441.992 370.535 441.992Z" stroke="black" stroke-opacity="0.1" stroke-width="0.5615" stroke-miterlimit="10"/>
<path d="M370.535 434.872C355.437 434.872 343.198 422.633 343.198 407.535C343.198 392.437 355.437 380.198 370.535 380.198C385.633 380.198 397.872 392.437 397.872 407.535C397.872 422.633 385.633 434.872 370.535 434.872Z" stroke="black" stroke-opacity="0.1" stroke-width="0.5456" stroke-miterlimit="10"/>
<path d="M370.535 427.752C359.369 427.752 350.318 418.7 350.318 407.535C350.318 396.369 359.369 387.318 370.535 387.318C381.7 387.318 390.752 396.369 390.752 407.535C390.752 418.7 381.7 427.752 370.535 427.752Z" stroke="black" stroke-opacity="0.1" stroke-width="0.5298" stroke-miterlimit="10"/>
<path d="M370.535 420.632C363.302 420.632 357.438 414.768 357.438 407.535C357.438 400.302 363.302 394.438 370.535 394.438C377.768 394.438 383.632 400.302 383.632 407.535C383.632 414.768 377.768 420.632 370.535 420.632Z" stroke="black" stroke-opacity="0.1" stroke-width="0.514" stroke-miterlimit="10"/>
<path d="M370.536 413.513C367.234 413.513 364.558 410.837 364.558 407.535C364.558 404.234 367.234 401.557 370.536 401.557C373.837 401.557 376.514 404.234 376.514 407.535C376.514 410.837 373.837 413.513 370.536 413.513Z" stroke="black" stroke-opacity="0.1" stroke-width="0.4982" stroke-miterlimit="10"/>
<path d="M389.489 255.528C369.707 268.205 354.539 287.582 345.684 310.852C322.532 371.685 266.51 384.309 243.883 378.832C217.601 372.457 194.233 352.148 178.858 327.226C163.484 302.305 155.477 273.137 151.848 244.222C149.021 221.621 148.803 198.339 155.668 177.685C162.378 157.506 175.375 141.109 188.444 125.455C205.25 105.322 222.902 85.4065 245.013 72.4089C263.038 61.8042 287.515 56.9414 304.817 71.9371C319.563 84.7238 324.157 107.854 339.08 120.383C359.981 137.923 389.398 126.348 413.523 137.099C441.66 149.629 454.445 182.801 445.941 201.863C437.078 221.736 411.411 241.479 389.489 255.528Z" stroke="url(#paint1_linear_143_671)" stroke-miterlimit="10"/>
<path d="M120.189 161.595C120.189 159.057 118.132 157 115.595 157C113.057 157 111 159.057 111 161.595C111 164.132 113.057 166.189 115.595 166.189C118.132 166.189 120.189 164.132 120.189 161.595Z" fill="url(#paint2_linear_143_671)"/>
<defs>
<linearGradient id="paint0_linear_143_671" x1="184.185" y1="478.988" x2="182.994" y2="469.89" gradientUnits="userSpaceOnUse">
<stop stop-color="#FFA56F"/>
<stop offset="1" stop-color="#F4505E"/>
</linearGradient>
<linearGradient id="paint1_linear_143_671" x1="155.598" y1="287.068" x2="437.307" y2="279.347" gradientUnits="userSpaceOnUse">
<stop stop-color="#F65260"/>
<stop offset="1" stop-color="#FB8669"/>
</linearGradient>
<linearGradient id="paint2_linear_143_671" x1="117.587" y1="166.988" x2="116.291" y2="157.919" gradientUnits="userSpaceOnUse">
<stop stop-color="#FFA56F"/>
<stop offset="1" stop-color="#F4505E"/>
</linearGradient>
</defs>
</svg>
