<svg width="24" height="24" viewBox="0 0 24 24" fill="none" xmlns="http://www.w3.org/2000/svg">
<g clip-path="url(#clip0_118_581)">
<path d="M23.6583 4.26901L20.7143 3.28701L19.7323 0.342014C19.7048 0.259377 19.6561 0.185356 19.5912 0.12728C19.5263 0.0692038 19.4474 0.0290865 19.3622 0.0109005C19.2771 -0.00728551 19.1886 -0.00290946 19.1057 0.0235954C19.0227 0.0501002 18.9481 0.0978144 18.8892 0.162014L16.1313 3.16201C16.0468 3.25433 16.0001 3.37493 16.0003 3.50001V6.94001L14.8003 8.13401C13.0868 6.69043 10.8961 5.93854 8.65722 6.0256C6.41838 6.11267 4.29269 7.03243 2.69649 8.60473C1.10029 10.177 0.148574 12.2886 0.0277434 14.5259C-0.093087 16.7632 0.625674 18.9649 2.04325 20.7L0.71525 22.38C0.554782 22.5884 0.482884 22.8517 0.515132 23.1127C0.547379 23.3737 0.681176 23.6116 0.887538 23.7747C1.0939 23.9377 1.35621 24.013 1.61764 23.984C1.87907 23.9551 2.11857 23.8243 2.28425 23.62L3.48425 22.099C5.09385 23.3569 7.08476 24.0273 9.12736 23.9993C11.17 23.9713 13.1417 23.2465 14.7163 21.945L16.2502 23.665C16.4286 23.86 16.676 23.9776 16.9398 23.9927C17.2036 24.0079 17.4628 23.9193 17.6623 23.746C17.8601 23.5697 17.9799 23.322 17.9952 23.0575C18.0106 22.7929 17.9203 22.5331 17.7442 22.335L16.1103 20.5C17.2376 19.0524 17.8931 17.2935 17.9883 15.4612C18.0834 13.6289 17.6136 11.8116 16.6423 10.255C16.6215 10.2224 16.5936 10.1949 16.5607 10.1746C16.5279 10.1543 16.4908 10.1416 16.4524 10.1376C16.4139 10.1335 16.3751 10.1382 16.3387 10.1513C16.3023 10.1643 16.2693 10.1854 16.2423 10.213L14.6003 11.859C14.5636 11.8955 14.5396 11.9428 14.5318 11.9939C14.5241 12.0451 14.533 12.0973 14.5573 12.143C15.269 13.5196 15.4468 15.1107 15.0563 16.6105C14.6658 18.1102 13.7347 19.4126 12.4419 20.2673C11.1492 21.1219 9.58616 21.4685 8.05333 21.2404C6.52049 21.0123 5.1261 20.2255 4.13829 19.0314C3.15048 17.8373 2.63898 16.3202 2.70216 14.7718C2.76533 13.2234 3.39872 11.753 4.48052 10.6433C5.56232 9.53365 7.01616 8.8631 8.56249 8.7606C10.1088 8.65809 11.6384 9.13087 12.8573 10.088L11.7823 11.163C11.2396 10.7634 10.6174 10.4851 9.95779 10.3471C9.29817 10.2091 8.61658 10.2145 7.95925 10.363C7.13407 10.5493 6.37361 10.9526 5.75643 11.5312C5.13925 12.1098 4.68775 12.8426 4.44857 13.6541C4.20939 14.4655 4.19121 15.3261 4.3959 16.1469C4.60059 16.9677 5.02074 17.719 5.61293 18.3231C6.20512 18.9272 6.94787 19.3623 7.76444 19.5833C8.58101 19.8043 9.44179 19.8033 10.2578 19.5804C11.0739 19.3574 11.8156 18.9206 12.4064 18.3151C12.9971 17.7096 13.4155 16.9573 13.6183 16.136C13.8371 15.2524 13.7951 14.3243 13.4973 13.464C13.4821 13.4247 13.4573 13.3897 13.4252 13.3624C13.393 13.3351 13.3545 13.3164 13.3132 13.3078C13.2719 13.2992 13.2291 13.3012 13.1888 13.3134C13.1484 13.3257 13.1118 13.3479 13.0823 13.378L10.9223 15.537C10.8106 15.9251 10.5835 16.2701 10.2711 16.5261C9.95873 16.7821 9.57586 16.9369 9.17336 16.9701C8.77086 17.0033 8.36779 16.9133 8.01769 16.7119C7.6676 16.5106 7.38705 16.2075 7.21332 15.8429C7.0396 15.4783 6.98092 15.0695 7.04508 14.6707C7.10924 14.272 7.29321 13.9022 7.57253 13.6105C7.85186 13.3188 8.21333 13.119 8.60892 13.0377C9.0045 12.9563 9.41548 12.9972 9.78725 13.155L8.60025 14.34C8.53056 14.4097 8.47527 14.4924 8.43755 14.5834C8.39983 14.6744 8.38041 14.772 8.38041 14.8705C8.38041 14.969 8.39983 15.0666 8.43755 15.1576C8.47527 15.2487 8.53056 15.3314 8.60025 15.401C8.74267 15.5384 8.93285 15.6152 9.13075 15.6152C9.32865 15.6152 9.51884 15.5384 9.66125 15.401L17.0602 8.00001H20.5002C20.6258 8.00014 20.7468 7.95302 20.8393 7.86801L23.8393 5.11201C23.9034 5.05315 23.9511 4.97854 23.9776 4.89558C24.0041 4.81262 24.0085 4.72418 23.9902 4.63901C23.972 4.55374 23.9317 4.47474 23.8735 4.40983C23.8153 4.34492 23.7411 4.29638 23.6583 4.26901Z" fill="white"/>
</g>
<defs>
<clipPath id="clip0_118_581">
<rect width="24" height="24" fill="white"/>
</clipPath>
</defs>
</svg>
