<svg width="56" height="56" viewBox="0 0 56 56" fill="none" xmlns="http://www.w3.org/2000/svg">
<path d="M28 31.875C19.4537 31.875 12.5 38.8287 12.5 47.375V53.1875C12.5 54.257 13.368 55.125 14.4375 55.125H41.5625C42.632 55.125 43.5 54.257 43.5 53.1875V47.375C43.5 38.8287 36.5463 31.875 28 31.875ZM39.625 51.25H35.75V49.3125C35.75 48.243 34.882 47.375 33.8125 47.375C32.743 47.375 31.875 48.243 31.875 49.3125V51.25H24.125V49.3125C24.125 48.243 23.257 47.375 22.1875 47.375C21.118 47.375 20.25 48.243 20.25 49.3125V51.25H16.375V47.375C16.375 40.9638 21.5888 35.75 28 35.75C34.4112 35.75 39.625 40.9638 39.625 47.375V51.25Z" fill="url(#paint0_linear_118_724)"/>
<path d="M20.25 20.5174V23.8576C20.25 27.2095 22.978 29.9375 26.3299 29.9375H29.6701C33.022 29.9375 35.75 27.2095 35.75 23.8576V20.5174C35.75 17.1655 33.022 14.4375 29.6701 14.4375H26.3299C22.978 14.4375 20.25 17.1655 20.25 20.5174ZM24.125 20.5174C24.125 19.3026 25.1151 18.3125 26.3299 18.3125H29.6701C30.8849 18.3125 31.875 19.3026 31.875 20.5174V23.8576C31.875 25.0724 30.8849 26.0625 29.6701 26.0625H26.3299C25.1151 26.0625 24.125 25.0724 24.125 23.8576V20.5174Z" fill="url(#paint1_linear_118_724)"/>
<path d="M39.625 18.3125C38.5555 18.3125 37.6875 19.1805 37.6875 20.25C37.6875 21.3195 38.5555 22.1875 39.625 22.1875C46.0362 22.1875 51.25 27.4013 51.25 33.8125V37.6875H47.375V35.75C47.375 34.6805 46.507 33.8125 45.4375 33.8125C44.368 33.8125 43.5 34.6805 43.5 35.75V39.625C43.5 40.6945 44.368 41.5625 45.4375 41.5625H53.1875C54.257 41.5625 55.125 40.6945 55.125 39.625V33.8125C55.125 25.2662 48.1713 18.3125 39.625 18.3125Z" fill="url(#paint2_linear_118_724)"/>
<path d="M37.9549 16.375H41.2951C44.647 16.375 47.375 13.647 47.375 10.2951V6.95487C47.375 3.603 44.647 0.875 41.2951 0.875H37.9549C34.603 0.875 31.875 3.603 31.875 6.95487V10.2951C31.875 13.647 34.603 16.375 37.9549 16.375ZM35.75 6.95487C35.75 5.74006 36.7401 4.75 37.9549 4.75H41.2951C42.5099 4.75 43.5 5.74006 43.5 6.95487V10.2951C43.5 11.5099 42.5099 12.5 41.2951 12.5H37.9549C36.7401 12.5 35.75 11.5099 35.75 10.2951V6.95487Z" fill="url(#paint3_linear_118_724)"/>
<path d="M2.8125 41.5625H10.5625C11.632 41.5625 12.5 40.6945 12.5 39.625V35.75C12.5 34.6805 11.632 33.8125 10.5625 33.8125C9.493 33.8125 8.625 34.6805 8.625 35.75V37.6875H4.75V33.8125C4.75 27.4013 9.96381 22.1875 16.375 22.1875C17.4445 22.1875 18.3125 21.3195 18.3125 20.25C18.3125 19.1805 17.4445 18.3125 16.375 18.3125C7.82869 18.3125 0.875 25.2662 0.875 33.8125V39.625C0.875 40.6945 1.743 41.5625 2.8125 41.5625Z" fill="url(#paint4_linear_118_724)"/>
<path d="M14.7049 16.375H18.0451C21.397 16.375 24.125 13.647 24.125 10.2951V6.95487C24.125 3.603 21.397 0.875 18.0451 0.875H14.7049C11.353 0.875 8.625 3.603 8.625 6.95487V10.2951C8.625 13.647 11.353 16.375 14.7049 16.375ZM12.5 6.95487C12.5 5.74006 13.4901 4.75 14.7049 4.75H18.0451C19.2599 4.75 20.25 5.74006 20.25 6.95487V10.2951C20.25 11.5099 19.2599 12.5 18.0451 12.5H14.7049C13.4901 12.5 12.5 11.5099 12.5 10.2951V6.95487Z" fill="url(#paint5_linear_118_724)"/>
<defs>
<linearGradient id="paint0_linear_118_724" x1="52.5714" y1="29.3571" x2="36.3482" y2="59.6028" gradientUnits="userSpaceOnUse">
<stop stop-color="#FE8664"/>
<stop offset="1" stop-color="#F6595E"/>
</linearGradient>
<linearGradient id="paint1_linear_118_724" x1="40.2857" y1="12.7589" x2="28" y2="29.9375" gradientUnits="userSpaceOnUse">
<stop stop-color="#FE8664"/>
<stop offset="1" stop-color="#F6595E"/>
</linearGradient>
<linearGradient id="paint2_linear_118_724" x1="60.2277" y1="15.7946" x2="40.7759" y2="36.1936" gradientUnits="userSpaceOnUse">
<stop stop-color="#FE8664"/>
<stop offset="1" stop-color="#F6595E"/>
</linearGradient>
<linearGradient id="paint3_linear_118_724" x1="51.9107" y1="-0.803572" x2="39.625" y2="16.375" gradientUnits="userSpaceOnUse">
<stop stop-color="#FE8664"/>
<stop offset="1" stop-color="#F6595E"/>
</linearGradient>
<linearGradient id="paint4_linear_118_724" x1="23.4152" y1="15.7946" x2="3.9634" y2="36.1936" gradientUnits="userSpaceOnUse">
<stop stop-color="#FE8664"/>
<stop offset="1" stop-color="#F6595E"/>
</linearGradient>
<linearGradient id="paint5_linear_118_724" x1="28.6607" y1="-0.803572" x2="16.375" y2="16.375" gradientUnits="userSpaceOnUse">
<stop stop-color="#FE8664"/>
<stop offset="1" stop-color="#F6595E"/>
</linearGradient>
</defs>
</svg>
