<svg width="86" height="86" viewBox="0 0 86 86" fill="none" xmlns="http://www.w3.org/2000/svg">
<rect opacity="0.1" width="86" height="86" rx="43" fill="url(#paint0_linear_426_4)"/>
<rect x="23.6758" y="32.085" width="2.69467" height="6.73667" rx="1.34733" transform="rotate(-90 23.6758 32.085)" fill="url(#paint1_linear_426_4)"/>
<rect x="21.6562" y="41.5164" width="2.69467" height="5.72617" rx="1.34733" transform="rotate(-90 21.6562 41.5164)" fill="url(#paint2_linear_426_4)"/>
<rect x="21.6562" y="36.8008" width="2.69467" height="9.43133" rx="1.34733" transform="rotate(-90 21.6562 36.8008)" fill="url(#paint3_linear_426_4)"/>
<rect x="32.0684" y="36.6985" width="2.5924" height="2.5905" rx="1.29525" transform="rotate(-90 32.0684 36.6985)" fill="url(#paint4_linear_426_4)"/>
<path d="M41.6742 29.7522C36.8976 24.9756 29.1532 24.9756 24.3765 29.7522C19.5999 34.5288 19.5999 42.2733 24.3765 47.0499L43.2981 65.9715L59.2465 50.0231C59.9917 49.2779 59.9917 48.0696 59.2465 47.3244L41.6742 29.7522Z" stroke="url(#paint5_linear_426_4)" stroke-width="4"/>
<path d="M44.6421 29.3986C49.614 24.4267 57.675 24.4267 62.6469 29.3986C67.6188 34.3705 67.6188 42.4316 62.6469 47.4034L43.3718 66.6786L34.4393 57.7461C29.4288 52.7356 29.4288 44.612 34.4393 39.6015L44.6421 29.3986Z" fill="url(#paint6_linear_426_4)" stroke="#FFE2DA" stroke-width="3"/>
<circle cx="53.4282" cy="38.8064" r="2.5" stroke="#FFF4F4" stroke-width="1.87985"/>
<rect x="52.6172" y="41.437" width="1.61879" height="4.24932" fill="#FFF4F4"/>
<rect width="1.61879" height="4.87232" transform="matrix(-4.37114e-08 -1 -1 4.37114e-08 60.6523 39.8)" fill="#FFF4F4"/>
<rect x="46.2695" y="39.8" width="1.61879" height="4.87232" transform="rotate(-90 46.2695 39.8)" fill="#FFF4F4"/>
<rect x="39.8008" y="47.4849" width="1.98495" height="6.16496" rx="0.992474" transform="rotate(-135 39.8008 47.4849)" fill="#FFF4F4"/>
<rect x="46.0781" y="53.9849" width="1.98495" height="6.16496" rx="0.992474" transform="rotate(-135 46.0781 53.9849)" fill="#FFF4F4"/>
<rect x="38.9453" y="54.9426" width="1.98495" height="7.71106" rx="0.992474" transform="rotate(-135 38.9453 54.9426)" fill="#FFF4F4"/>
<rect x="45.1289" y="48.7585" width="1.98495" height="1.98349" rx="0.991746" transform="rotate(-135 45.1289 48.7585)" fill="#FFF4F4"/>
<circle cx="53.4299" cy="38.8064" r="7.09395" stroke="#FFF4F4" stroke-width="2"/>
<defs>
<linearGradient id="paint0_linear_426_4" x1="9" y1="-17" x2="103.5" y2="70" gradientUnits="userSpaceOnUse">
<stop stop-color="#040000"/>
<stop offset="1" stop-color="#97222A" stop-opacity="0"/>
</linearGradient>
<linearGradient id="paint1_linear_426_4" x1="25.0231" y1="34.5176" x2="25.1226" y2="40.5041" gradientUnits="userSpaceOnUse">
<stop offset="0.0107844" stop-color="#FFEEE9"/>
<stop offset="1" stop-color="#FFB5B7"/>
</linearGradient>
<linearGradient id="paint2_linear_426_4" x1="22.7718" y1="42.8637" x2="22.8711" y2="48.4624" gradientUnits="userSpaceOnUse">
<stop stop-color="#FFE9E6"/>
<stop offset="1" stop-color="#FFB8A4"/>
</linearGradient>
<linearGradient id="paint3_linear_426_4" x1="22.7718" y1="38.3165" x2="22.7176" y2="48.244" gradientUnits="userSpaceOnUse">
<stop stop-color="#FFECE9"/>
<stop offset="1" stop-color="#FFA8AC"/>
</linearGradient>
<linearGradient id="paint4_linear_426_4" x1="33.3646" y1="36.6985" x2="33.3415" y2="39.8431" gradientUnits="userSpaceOnUse">
<stop stop-color="#FFBAB3"/>
<stop offset="1" stop-color="#FFF2EE"/>
</linearGradient>
<linearGradient id="paint5_linear_426_4" x1="22.9623" y1="28.338" x2="41.3617" y2="50.1056" gradientUnits="userSpaceOnUse">
<stop stop-color="#FFECE7"/>
<stop offset="1" stop-color="#FFA4AF"/>
</linearGradient>
<linearGradient id="paint6_linear_426_4" x1="59.5502" y1="22.9906" x2="44.2243" y2="65.6" gradientUnits="userSpaceOnUse">
<stop stop-color="#F24A5E"/>
<stop offset="1" stop-color="#FFA88F"/>
</linearGradient>
</defs>
</svg>
