<svg width="40" height="56" viewBox="0 0 40 56" fill="none" xmlns="http://www.w3.org/2000/svg">
<path d="M19.0352 56.0006C18.5393 56.0004 18.0542 55.8512 17.6385 55.5711C17.2229 55.2909 16.8946 54.8918 16.6933 54.4221C16.4921 53.9524 16.4267 53.4323 16.5049 52.9248C16.5831 52.4173 16.8017 51.9442 17.1341 51.5629C17.6229 51.039 18.0071 50.4201 18.2643 49.7417C18.5216 49.0634 18.647 48.3391 18.6333 47.6103C18.4984 45.6378 18.0821 43.6968 17.3981 41.8507C16.5942 39.6524 16.1227 37.3387 16.0001 34.9912C15.9917 33.4651 16.3408 31.9596 17.0174 30.6042C17.6941 29.2487 18.678 28.0837 19.8848 27.2093C20.4259 26.7827 21.1083 26.5963 21.7819 26.6912C22.4555 26.7861 23.0652 27.1544 23.4768 27.7152C23.8884 28.276 24.0683 28.9832 23.9767 29.6814C23.8852 30.3797 23.5298 31.0116 22.9888 31.4382C22.406 31.8102 21.9274 32.334 21.6006 32.9574C21.2739 33.5808 21.1104 34.282 21.1264 34.9912C21.2679 36.7848 21.6561 38.5483 22.2791 40.228C23.1424 42.5933 23.6419 45.0844 23.7595 47.6103C23.7791 50.3966 22.7699 53.085 20.9388 55.125C20.6985 55.4011 20.4048 55.6218 20.0768 55.7726C19.7489 55.9235 19.394 56.0012 19.0352 56.0006Z" fill="url(#paint0_linear_118_265)"/>
<path d="M22.6612 32.0003C22.0664 32.0008 21.488 31.8056 21.015 31.4447C20.5419 31.0838 20.2006 30.5772 20.0435 30.003C19.8864 29.4287 19.9222 28.8187 20.1455 28.2669C20.3688 27.715 20.7671 27.252 21.2791 26.9491C26.4003 23.9206 31.9107 17.959 31.9107 12.0281C31.9098 11.0918 31.7783 10.1603 31.5199 9.26048C31.1963 8.15413 30.523 7.18265 29.6011 6.4918C28.6793 5.80095 27.5584 5.42798 26.4068 5.42884C25.2194 5.48421 24.0787 5.90809 23.1428 6.64169C22.2068 7.3753 21.5222 8.38227 21.1837 9.52296C20.9824 10.0264 20.635 10.458 20.1864 10.762C19.7378 11.066 19.2086 11.2286 18.6668 11.2287C18.1249 11.2288 17.5953 11.0664 17.1465 10.7623C16.6976 10.4583 16.3501 10.0266 16.1487 9.52296C15.8108 8.38217 15.1265 7.37501 14.1907 6.64133C13.2549 5.90766 12.1142 5.48388 10.9268 5.42884C9.7754 5.4286 8.65488 5.80181 7.73311 6.49256C6.81133 7.18332 6.13792 8.15445 5.81375 9.26048C5.55537 10.1603 5.42386 11.0918 5.42302 12.0281C5.42302 17.7443 10.3363 22.5488 12.448 24.3501C12.9883 24.8189 13.3217 25.4825 13.3756 26.1962C13.4296 26.91 13.1997 27.6162 12.7361 28.1611C12.2724 28.7061 11.6125 29.0456 10.9 29.1058C10.1875 29.166 9.48008 28.9421 8.93171 28.4827C5.59656 25.6397 0 19.719 0 12.0281C0.000593715 10.5866 0.202477 9.15227 0.599787 7.76675C1.25129 5.52871 2.6097 3.56226 4.47149 2.16206C6.33328 0.761866 8.59818 0.00331125 10.9268 6.0898e-05C12.3858 -0.00493955 13.8294 0.29848 15.1632 0.89047C16.497 1.48246 17.6909 2.34968 18.6668 3.4354C19.6428 2.34968 20.8367 1.48245 22.1704 0.890465C23.5042 0.298475 24.9478 -0.00494297 26.4068 6.0898e-05C28.736 0.00296825 31.0014 0.761719 32.8633 2.16252C34.7253 3.56331 36.0833 5.53065 36.7339 7.76946C37.1314 9.15402 37.3333 10.5875 37.3337 12.0281C37.3337 20.6854 30.171 27.9949 24.0383 31.6225C23.6214 31.8696 23.1457 32.0001 22.6612 32.0003Z" fill="url(#paint1_linear_118_265)"/>
<path d="M22.8178 50.6659C22.7912 50.6659 22.5292 50.6632 22.5026 50.6618C22.1636 50.6508 21.83 50.569 21.5209 50.4209C21.2117 50.2728 20.933 50.0615 20.7007 49.7988C20.4684 49.5362 20.2871 49.2275 20.1671 48.8904C20.047 48.5532 19.9907 48.1942 20.0012 47.8339C20.0033 47.4709 20.0747 47.1121 20.2112 46.7793C20.3477 46.4465 20.5463 46.1466 20.7951 45.8979C21.0439 45.6492 21.3377 45.4568 21.6585 45.3325C21.9794 45.2082 22.3206 45.1544 22.6616 45.1746C25.7859 45.3152 28.8513 44.2406 31.2841 42.1521C32.7575 40.5845 33.7996 38.6185 34.2975 36.4666C33.3996 36.6436 32.5197 36.9115 31.6699 37.2668C31.0353 37.529 30.329 37.5143 29.7046 37.2256C29.0803 36.937 28.5884 36.3979 28.336 35.7257C28.0837 35.0534 28.0914 34.3024 28.3573 33.6361C28.6232 32.9698 29.1259 32.4422 29.756 32.168C32.126 31.1922 34.6434 30.6836 37.1848 30.667C37.2112 30.667 37.4709 30.6695 37.4975 30.6708C37.8396 30.6822 38.1762 30.7656 38.4877 30.9164C38.7991 31.0672 39.0793 31.2823 39.3119 31.5492C39.5445 31.8161 39.7249 32.1295 39.8426 32.4711C39.9603 32.8128 40.013 33.1759 39.9976 33.5394C39.7201 38.2801 37.8711 42.763 34.7791 46.1919C31.4118 49.1338 27.1761 50.7181 22.8178 50.6659Z" fill="url(#paint2_linear_118_265)"/>
<path d="M15.052 46.6659C13.4086 46.6908 11.7805 46.3328 10.2861 45.618C7.45588 44.0219 5.27594 41.4075 4.15072 38.2598C3.92113 37.5904 3.95492 36.8532 4.24468 36.2098C4.53444 35.5664 5.05653 35.0692 5.69654 34.8273C6.33654 34.5853 7.04226 34.6183 7.65902 34.9191C8.27578 35.2198 8.75327 35.7637 8.98685 36.4315C9.65369 38.2445 10.8858 39.7697 12.4844 40.7611C13.2921 41.1348 14.169 41.3166 15.052 41.2935C16.0254 41.2876 16.9927 41.1329 17.9232 40.8345C18.5657 40.6027 19.2699 40.6462 19.8818 40.9554C20.4937 41.2645 20.9635 41.8143 21.1885 42.4843C21.4135 43.1544 21.3754 43.8902 21.0826 44.531C20.7897 45.1718 20.2659 45.6654 19.6256 45.9038C18.1486 46.4063 16.6053 46.6634 15.052 46.6659Z" fill="url(#paint3_linear_118_265)"/>
<defs>
<linearGradient id="paint0_linear_118_265" x1="20" y1="26.667" x2="36.5045" y2="33.5664" gradientUnits="userSpaceOnUse">
<stop stop-color="#FE8664"/>
<stop offset="1" stop-color="#F24A5E"/>
</linearGradient>
<linearGradient id="paint1_linear_118_265" x1="18.6668" y1="0" x2="40.2208" y2="38.544" gradientUnits="userSpaceOnUse">
<stop stop-color="#FE8664"/>
<stop offset="1" stop-color="#F24A5E"/>
</linearGradient>
<linearGradient id="paint2_linear_118_265" x1="30.0001" y1="30.667" x2="44.4717" y2="52.8488" gradientUnits="userSpaceOnUse">
<stop stop-color="#FE8664"/>
<stop offset="1" stop-color="#F24A5E"/>
</linearGradient>
<linearGradient id="paint3_linear_118_265" x1="12.6667" y1="34.667" x2="19.7846" y2="50.426" gradientUnits="userSpaceOnUse">
<stop stop-color="#FE8664"/>
<stop offset="1" stop-color="#F24A5E"/>
</linearGradient>
</defs>
</svg>
