<svg width="48" height="48" viewBox="0 0 48 48" fill="none" xmlns="http://www.w3.org/2000/svg">
<path d="M3 27.75H23.25V24.03L11.25 10.1663V15.8565C11.7919 15.9977 12.2834 16.2881 12.6686 16.6946C13.0538 17.1011 13.3173 17.6075 13.4291 18.1562C13.541 18.705 13.4968 19.2741 13.3015 19.7989C13.1061 20.3238 12.7676 20.7833 12.3242 21.1255C11.8808 21.4676 11.3504 21.6785 10.7932 21.7343C10.2359 21.7901 9.67422 21.6886 9.17181 21.4412C8.66939 21.1938 8.24641 20.8105 7.95089 20.3348C7.65538 19.8591 7.49916 19.31 7.5 18.75C7.5 18.5511 7.57901 18.3603 7.71967 18.2197C7.86032 18.079 8.05109 18 8.25 18C8.44891 18 8.63968 18.079 8.78033 18.2197C8.92098 18.3603 9 18.5511 9 18.75C9 19.0467 9.08797 19.3367 9.25279 19.5834C9.41761 19.83 9.65188 20.0223 9.92597 20.1358C10.2001 20.2494 10.5017 20.2791 10.7926 20.2212C11.0836 20.1633 11.3509 20.0205 11.5607 19.8107C11.7704 19.6009 11.9133 19.3336 11.9712 19.0427C12.0291 18.7517 11.9993 18.4501 11.8858 18.176C11.7723 17.9019 11.58 17.6676 11.3334 17.5028C11.0867 17.338 10.7967 17.25 10.5 17.25C10.3011 17.25 10.1103 17.171 9.96967 17.0303C9.82901 16.8897 9.75 16.6989 9.75 16.5V8.25002C9.75412 8.21992 9.76013 8.19011 9.768 8.16077C9.73939 7.98948 9.75166 7.81385 9.80379 7.6482C9.85592 7.48255 9.94645 7.33155 10.068 7.20752L11.7075 5.56952C11.9078 5.3692 12.1763 5.25182 12.4594 5.24084C12.7425 5.22985 13.0193 5.32607 13.2345 5.51027L28.6605 18.8603C29.4386 19.0178 30.1602 19.3812 30.75 19.9125V15C30.75 14.6022 30.908 14.2207 31.1893 13.9394C31.4706 13.6581 31.8522 13.5 32.25 13.5H41.517C41.8051 13.5 42.0871 13.583 42.3293 13.739C42.5715 13.895 42.7636 14.1175 42.8827 14.3798L46.3642 22.0395C46.4542 22.235 46.5005 22.4476 46.5 22.6628V32.25C46.5 32.6478 46.342 33.0294 46.0607 33.3107C45.7794 33.592 45.3978 33.75 45 33.75H41.94C41.7765 34.8905 41.241 35.945 40.4167 36.75H46.5V38.25H1.5V36.75H7.58325C6.759 35.945 6.22354 34.8905 6.06 33.75H3C2.60217 33.75 2.22064 33.592 1.93933 33.3107C1.65803 33.0294 1.5 32.6478 1.5 32.25V29.25C1.5 28.8522 1.65803 28.4707 1.93933 28.1894C2.22064 27.908 2.60217 27.75 3 27.75ZM14.9167 29.25C15.741 30.055 16.2765 31.1096 16.44 32.25H31.56C31.7235 31.1096 32.259 30.055 33.0832 29.25H14.9167ZM12.5212 6.87677L11.3767 8.02502L23.439 21.9563C23.651 21.2418 24.038 20.5916 24.5649 20.0646C25.0917 19.5376 25.7419 19.1504 26.4562 18.9383L12.5212 6.87677ZM28.0597 20.2673C27.9569 20.2554 27.8535 20.2496 27.75 20.25C27.3556 20.2484 26.9648 20.3249 26.6001 20.4751C26.2354 20.6253 25.904 20.8463 25.6251 21.1252C25.3462 21.404 25.1253 21.7354 24.9751 22.1001C24.8249 22.4648 24.7484 22.8556 24.75 23.25V27.75H30.75V23.25C30.7522 22.5075 30.478 21.7907 29.9806 21.2393C29.4833 20.6879 28.7986 20.3414 28.0597 20.2673ZM45 25.518L42.744 25.5L42.756 24L45 24.018V22.662L41.517 15H32.25V27.75H45V25.518ZM45 29.25H40.4167C41.241 30.055 41.7765 31.1096 41.94 32.25H45V29.25ZM40.5 33C40.5 32.2583 40.2801 31.5333 39.868 30.9166C39.456 30.2999 38.8703 29.8193 38.1851 29.5355C37.4998 29.2516 36.7458 29.1774 36.0184 29.3221C35.291 29.4668 34.6228 29.8239 34.0983 30.3484C33.5739 30.8728 33.2167 31.541 33.0721 32.2684C32.9274 32.9959 33.0016 33.7499 33.2854 34.4351C33.5693 35.1203 34.0499 35.706 34.6666 36.118C35.2833 36.5301 36.0083 36.75 36.75 36.75C37.7442 36.7488 38.6973 36.3534 39.4003 35.6503C40.1033 34.9473 40.4988 33.9942 40.5 33ZM33.0832 36.75C32.259 35.945 31.7235 34.8905 31.56 33.75H16.44C16.2765 34.8905 15.741 35.945 14.9167 36.75H33.0832ZM11.25 36.75C11.9917 36.75 12.7167 36.5301 13.3334 36.118C13.9501 35.706 14.4307 35.1203 14.7145 34.4351C14.9984 33.7499 15.0726 32.9959 14.9279 32.2684C14.7832 31.541 14.4261 30.8728 13.9016 30.3484C13.3772 29.8239 12.709 29.4668 11.9816 29.3221C11.2542 29.1774 10.5002 29.2516 9.81493 29.5355C9.12971 29.8193 8.54404 30.2999 8.13198 30.9166C7.71993 31.5333 7.5 32.2583 7.5 33C7.50119 33.9942 7.89666 34.9473 8.59966 35.6503C9.30267 36.3534 10.2558 36.7488 11.25 36.75ZM3 32.25H6.06C6.22354 31.1096 6.759 30.055 7.58325 29.25H3V32.25Z" fill="white"/>
<path d="M33.7487 21.375V16.875C33.7487 16.5766 33.8672 16.2905 34.0782 16.0795C34.2892 15.8685 34.5753 15.75 34.8737 15.75H39.5012C39.7214 15.75 39.9367 15.8145 40.1206 15.9357C40.3044 16.0569 40.4487 16.2294 40.5354 16.4318L42.4637 20.9318C42.537 21.1028 42.5668 21.2894 42.5502 21.4748C42.5337 21.6602 42.4715 21.8386 42.369 21.9941C42.2666 22.1495 42.1272 22.2771 41.9634 22.3654C41.7995 22.4537 41.6163 22.4999 41.4302 22.5H34.8737C34.5753 22.5 34.2892 22.3815 34.0782 22.1705C33.8672 21.9595 33.7487 21.6734 33.7487 21.375ZM35.2487 21H40.8609L39.2544 17.25H35.2487V21Z" fill="white"/>
<path d="M33.75 24H35.25V26.25H33.75V24Z" fill="white"/>
<path d="M36.75 30.75C37.195 30.75 37.63 30.882 38 31.1292C38.37 31.3764 38.6584 31.7278 38.8287 32.139C38.999 32.5501 39.0436 33.0025 38.9568 33.439C38.8699 33.8754 38.6557 34.2763 38.341 34.591C38.0263 34.9057 37.6254 35.12 37.189 35.2068C36.7525 35.2936 36.3001 35.249 35.889 35.0787C35.4778 34.9084 35.1264 34.62 34.8792 34.25C34.632 33.88 34.5 33.445 34.5 33C34.5 32.4033 34.7371 31.831 35.159 31.409C35.581 30.9871 36.1533 30.75 36.75 30.75ZM36.75 33.75C36.8983 33.75 37.0433 33.706 37.1667 33.6236C37.29 33.5412 37.3861 33.4241 37.4429 33.287C37.4997 33.15 37.5145 32.9992 37.4856 32.8537C37.4566 32.7082 37.3852 32.5746 37.2803 32.4697C37.1754 32.3648 37.0418 32.2934 36.8963 32.2644C36.7508 32.2355 36.6 32.2503 36.463 32.3071C36.3259 32.3639 36.2088 32.46 36.1264 32.5833C36.044 32.7067 36 32.8517 36 33C36 33.1989 36.079 33.3897 36.2197 33.5303C36.3603 33.671 36.5511 33.75 36.75 33.75ZM11.25 30.75C11.695 30.75 12.13 30.882 12.5 31.1292C12.87 31.3764 13.1584 31.7278 13.3287 32.139C13.499 32.5501 13.5436 33.0025 13.4568 33.439C13.37 33.8754 13.1557 34.2763 12.841 34.591C12.5263 34.9057 12.1254 35.12 11.689 35.2068C11.2525 35.2936 10.8001 35.249 10.389 35.0787C9.97783 34.9084 9.62643 34.62 9.37919 34.25C9.13196 33.88 9 33.445 9 33C9 32.4033 9.23705 31.831 9.65901 31.409C10.081 30.9871 10.6533 30.75 11.25 30.75ZM11.25 33.75C11.3983 33.75 11.5433 33.706 11.6667 33.6236C11.79 33.5412 11.8861 33.4241 11.9429 33.287C11.9997 33.15 12.0145 32.9992 11.9856 32.8537C11.9566 32.7082 11.8852 32.5746 11.7803 32.4697C11.6754 32.3648 11.5418 32.2934 11.3963 32.2644C11.2508 32.2355 11.1 32.2503 10.963 32.3071C10.8259 32.3639 10.7088 32.46 10.6264 32.5833C10.544 32.7067 10.5 32.8517 10.5 33C10.5 33.1989 10.579 33.3897 10.7197 33.5303C10.8603 33.671 11.0511 33.75 11.25 33.75ZM27.75 25.5C27.305 25.5 26.87 25.368 26.5 25.1208C26.13 24.8736 25.8416 24.5222 25.6713 24.111C25.501 23.6999 25.4564 23.2475 25.5432 22.811C25.63 22.3746 25.8443 21.9737 26.159 21.659C26.4737 21.3443 26.8746 21.1301 27.311 21.0432C27.7475 20.9564 28.1999 21.001 28.611 21.1713C29.0222 21.3416 29.3736 21.63 29.6208 22C29.868 22.37 30 22.805 30 23.25C30 23.8467 29.7629 24.419 29.341 24.841C28.919 25.2629 28.3467 25.5 27.75 25.5ZM27.75 22.5C27.6017 22.5 27.4567 22.544 27.3333 22.6264C27.21 22.7088 27.1139 22.8259 27.0571 22.963C27.0003 23.1 26.9855 23.2508 27.0144 23.3963C27.0433 23.5418 27.1148 23.6754 27.2197 23.7803C27.3246 23.8852 27.4582 23.9567 27.6037 23.9856C27.7492 24.0145 27.9 23.9997 28.037 23.9429C28.1741 23.8861 28.2912 23.79 28.3736 23.6667C28.456 23.5433 28.5 23.3983 28.5 23.25C28.5 23.0511 28.421 22.8603 28.2803 22.7197C28.1397 22.579 27.9489 22.5 27.75 22.5Z" fill="white"/>
</svg>
