<svg width="24" height="30" viewBox="0 0 24 30" fill="none" xmlns="http://www.w3.org/2000/svg">
<path d="M20.1875 0H3.1875C2.34212 0 1.53137 0.335825 0.933597 0.933597C0.335825 1.53137 0 2.34212 0 3.1875V26.5625C0 27.4079 0.335825 28.2186 0.933597 28.8164C1.53137 29.4142 2.34212 29.75 3.1875 29.75H20.1875C21.0329 29.75 21.8436 29.4142 22.4414 28.8164C23.0392 28.2186 23.375 27.4079 23.375 26.5625V3.1875C23.375 2.34212 23.0392 1.53137 22.4414 0.933597C21.8436 0.335825 21.0329 0 20.1875 0ZM3.1875 2.125H20.1875C20.4693 2.125 20.7395 2.23694 20.9388 2.4362C21.1381 2.63546 21.25 2.90571 21.25 3.1875V10.625H2.125V3.1875C2.125 2.90571 2.23694 2.63546 2.4362 2.4362C2.63546 2.23694 2.90571 2.125 3.1875 2.125ZM21.25 26.5625C21.25 26.8443 21.1381 27.1145 20.9388 27.3138C20.7395 27.5131 20.4693 27.625 20.1875 27.625H3.1875C2.90571 27.625 2.63546 27.5131 2.4362 27.3138C2.23694 27.1145 2.125 26.8443 2.125 26.5625V12.75H21.25V26.5625Z" fill="white"/>
<path d="M18.0625 25.5C18.3443 25.5 18.6145 25.3881 18.8138 25.1888C19.0131 24.9895 19.125 24.7193 19.125 24.4375V15.9375C19.125 15.6557 19.0131 15.3855 18.8138 15.1862C18.6145 14.9869 18.3443 14.875 18.0625 14.875C17.7807 14.875 17.5105 14.9869 17.3112 15.1862C17.1119 15.3855 17 15.6557 17 15.9375V24.4375C17 24.7193 17.1119 24.9895 17.3112 25.1888C17.5105 25.3881 17.7807 25.5 18.0625 25.5Z" fill="white"/>
<path d="M5.3125 17C5.45134 16.9983 5.58851 16.9694 5.71625 16.915C5.84501 16.8612 5.9636 16.7857 6.06687 16.6919C6.16535 16.5926 6.24326 16.4748 6.29613 16.3454C6.34901 16.2159 6.37581 16.0773 6.375 15.9375C6.37109 15.6562 6.26103 15.3867 6.06687 15.1831L5.9075 15.0556C5.84827 15.0154 5.78396 14.9832 5.71625 14.96C5.65298 14.9276 5.58475 14.9061 5.51437 14.8962C5.37807 14.8645 5.2363 14.8645 5.1 14.8962L4.90875 14.96C4.84104 14.9832 4.77673 15.0154 4.7175 15.0556L4.55812 15.1831C4.36397 15.3867 4.25391 15.6562 4.25 15.9375C4.25 16.2193 4.36194 16.4895 4.5612 16.6888C4.76046 16.888 5.03071 17 5.3125 17Z" fill="white"/>
<path d="M8.80837 16.6919C8.90715 16.7914 9.02466 16.8705 9.15413 16.9244C9.28361 16.9784 9.42248 17.0061 9.56275 17.0061C9.70301 17.0061 9.84188 16.9784 9.97136 16.9244C10.1008 16.8705 10.2183 16.7914 10.3171 16.6919C10.411 16.5886 10.4864 16.47 10.5402 16.3412C10.5947 16.2135 10.6236 16.0763 10.6252 15.9375C10.6213 15.6562 10.5113 15.3867 10.3171 15.1831C10.2649 15.135 10.2079 15.0923 10.1471 15.0556C10.0929 15.0136 10.0318 14.9812 9.9665 14.96C9.90323 14.9276 9.835 14.9061 9.76462 14.8962C9.62832 14.8645 9.48655 14.8645 9.35025 14.8962L9.159 14.96C9.09129 14.9832 9.02698 15.0154 8.96775 15.0556C8.91209 15.0948 8.85886 15.1374 8.80837 15.1831C8.70998 15.2828 8.63392 15.4024 8.58525 15.5337C8.52904 15.6609 8.5 15.7984 8.5 15.9375C8.5 16.0765 8.52904 16.2141 8.58525 16.3412C8.63905 16.47 8.71452 16.5886 8.80837 16.6919Z" fill="white"/>
<path d="M13.8125 17C14.0943 17 14.3645 16.8881 14.5638 16.6888C14.7631 16.4895 14.875 16.2193 14.875 15.9375C14.8711 15.6562 14.761 15.3867 14.5669 15.1831C14.5146 15.1351 14.4577 15.0923 14.3969 15.0556C14.3426 15.0136 14.2815 14.9812 14.2162 14.96C14.153 14.9276 14.0847 14.9061 14.0144 14.8963C13.8108 14.8532 13.5989 14.8755 13.4088 14.96C13.2783 15.0106 13.1592 15.0864 13.0581 15.1831C12.864 15.3867 12.7539 15.6562 12.75 15.9375C12.75 16.2193 12.8619 16.4895 13.0612 16.6888C13.2605 16.8881 13.5307 17 13.8125 17Z" fill="white"/>
<path d="M5.3125 21.25C5.45134 21.2483 5.58851 21.2194 5.71625 21.165C5.84501 21.1112 5.9636 21.0357 6.06687 20.9419C6.16535 20.8426 6.24326 20.7248 6.29613 20.5954C6.34901 20.4659 6.37581 20.3273 6.375 20.1875C6.37109 19.9062 6.26103 19.6367 6.06687 19.4331C6.01639 19.3874 5.96316 19.3448 5.9075 19.3056C5.84827 19.2654 5.78396 19.2332 5.71625 19.21C5.65298 19.1776 5.58475 19.1561 5.51437 19.1462C5.37807 19.1145 5.2363 19.1145 5.1 19.1462L4.90875 19.21C4.84104 19.2332 4.77673 19.2654 4.7175 19.3056C4.66184 19.3448 4.60861 19.3874 4.55812 19.4331C4.36397 19.6367 4.25391 19.9062 4.25 20.1875C4.25 20.4693 4.36194 20.7395 4.5612 20.9388C4.76046 21.138 5.03071 21.25 5.3125 21.25Z" fill="white"/>
<path d="M8.80837 20.9419C8.90715 21.0415 9.02466 21.1205 9.15413 21.1745C9.28361 21.2284 9.42248 21.2562 9.56275 21.2562C9.70301 21.2562 9.84188 21.2284 9.97136 21.1745C10.1008 21.1205 10.2183 21.0415 10.3171 20.9419C10.411 20.8386 10.4864 20.72 10.5402 20.5913C10.5965 20.4641 10.6255 20.3266 10.6255 20.1875C10.6255 20.0485 10.5965 19.911 10.5402 19.7838C10.4897 19.6534 10.4139 19.5342 10.3171 19.4332C10.2649 19.3851 10.2079 19.3424 10.1471 19.3057C10.0929 19.2636 10.0318 19.2313 9.9665 19.21C9.90323 19.1777 9.835 19.1561 9.76462 19.1463C9.59393 19.1121 9.41745 19.1204 9.2507 19.1704C9.08396 19.2204 8.93207 19.3107 8.80837 19.4332C8.71164 19.5342 8.63582 19.6534 8.58525 19.7838C8.52904 19.911 8.5 20.0485 8.5 20.1875C8.5 20.3266 8.52904 20.4641 8.58525 20.5913C8.63905 20.72 8.71452 20.8386 8.80837 20.9419Z" fill="white"/>
<path d="M13.0584 20.9419C13.207 21.0917 13.3969 21.1939 13.6038 21.2354C13.8107 21.2769 14.0253 21.2559 14.2202 21.175C14.4152 21.094 14.5815 20.9569 14.6982 20.781C14.8149 20.6052 14.8765 20.3985 14.8753 20.1875C14.8714 19.9062 14.7613 19.6367 14.5672 19.4331C14.5149 19.3851 14.458 19.3423 14.3972 19.3056C14.3429 19.2636 14.2818 19.2312 14.2165 19.21C14.1533 19.1776 14.085 19.1561 14.0147 19.1463C13.8111 19.1032 13.5992 19.1255 13.409 19.21C13.2772 19.2577 13.1574 19.3339 13.0583 19.433C12.9591 19.5322 12.883 19.6519 12.8353 19.7838C12.7758 19.9098 12.7467 20.0481 12.7503 20.1875C12.7486 20.3256 12.7739 20.4628 12.8247 20.5913C12.8863 20.7182 12.9649 20.8362 13.0584 20.9419Z" fill="white"/>
<path d="M5.3125 25.5C5.45134 25.4983 5.58851 25.4694 5.71625 25.415C5.84501 25.3612 5.9636 25.2857 6.06687 25.1919C6.16535 25.0926 6.24326 24.9748 6.29613 24.8454C6.34901 24.7159 6.37581 24.5773 6.375 24.4375C6.37109 24.1562 6.26103 23.8867 6.06687 23.6831L5.9075 23.5556C5.84827 23.5154 5.78396 23.4832 5.71625 23.46C5.65298 23.4276 5.58475 23.4061 5.51437 23.3962C5.37807 23.3645 5.2363 23.3645 5.1 23.3962L4.90875 23.46C4.84104 23.4832 4.77673 23.5154 4.7175 23.5556L4.55812 23.6831C4.36397 23.8867 4.25391 24.1562 4.25 24.4375C4.25 24.7193 4.36194 24.9895 4.5612 25.1888C4.76046 25.388 5.03071 25.5 5.3125 25.5Z" fill="white"/>
<path d="M8.80837 25.1919C8.90715 25.2915 9.02466 25.3705 9.15413 25.4245C9.28361 25.4784 9.42248 25.5062 9.56275 25.5062C9.70301 25.5062 9.84188 25.4784 9.97136 25.4245C10.1008 25.3705 10.2183 25.2915 10.3171 25.1919C10.411 25.0886 10.4864 24.97 10.5402 24.8413C10.5965 24.7141 10.6255 24.5766 10.6255 24.4375C10.6255 24.2985 10.5965 24.161 10.5402 24.0338C10.4897 23.9034 10.4139 23.7842 10.3171 23.6832C10.2649 23.6351 10.2079 23.5924 10.1471 23.5557C10.0929 23.5136 10.0318 23.4813 9.9665 23.46C9.90323 23.4277 9.835 23.4061 9.76462 23.3963C9.59393 23.3621 9.41745 23.3704 9.2507 23.4204C9.08396 23.4704 8.93207 23.5607 8.80837 23.6832C8.71164 23.7842 8.63582 23.9034 8.58525 24.0338C8.52904 24.161 8.5 24.2985 8.5 24.4375C8.5 24.5766 8.52904 24.7141 8.58525 24.8413C8.63905 24.97 8.71452 25.0886 8.80837 25.1919Z" fill="white"/>
<path d="M13.8128 25.5C14.0946 25.5 14.3648 25.3881 14.5641 25.1888C14.7634 24.9895 14.8753 24.7193 14.8753 24.4375C14.8714 24.1562 14.7613 23.8867 14.5672 23.6831C14.5149 23.6351 14.458 23.5923 14.3972 23.5556C14.3429 23.5136 14.2818 23.4812 14.2165 23.46C14.1533 23.4276 14.085 23.4061 14.0147 23.3963C13.8111 23.3532 13.5992 23.3755 13.409 23.46C13.2772 23.5077 13.1574 23.5839 13.0583 23.683C12.9591 23.7822 12.883 23.9019 12.8353 24.0338C12.7758 24.1598 12.7467 24.2981 12.7503 24.4375C12.7503 24.7193 12.8622 24.9895 13.0615 25.1888C13.2608 25.3881 13.531 25.5 13.8128 25.5Z" fill="white"/>
</svg>
