<svg width="38" height="38" viewBox="0 0 38 38" fill="none" xmlns="http://www.w3.org/2000/svg">
<path d="M19.0342 1C9.07174 1 1 9.05645 1 19C1 28.9435 9.07174 37 19.0342 37C28.9966 37 37.0683 28.9435 37.0683 19C37.0683 9.05645 28.9966 1 19.0342 1ZM19.0342 33.5161C11.0133 33.5161 4.49048 27.0056 4.49048 19C4.49048 10.9944 11.0133 4.48387 19.0342 4.48387C27.055 4.48387 33.5778 10.9944 33.5778 19C33.5778 27.0056 27.055 33.5161 19.0342 33.5161ZM13.2167 17.8387C14.5038 17.8387 15.5437 16.8008 15.5437 15.5161C15.5437 14.2315 14.5038 13.1935 13.2167 13.1935C11.9296 13.1935 10.8897 14.2315 10.8897 15.5161C10.8897 16.8008 11.9296 17.8387 13.2167 17.8387ZM24.8516 17.8387C26.1387 17.8387 27.1786 16.8008 27.1786 15.5161C27.1786 14.2315 26.1387 13.1935 24.8516 13.1935C23.5645 13.1935 22.5246 14.2315 22.5246 15.5161C22.5246 16.8008 23.5645 17.8387 24.8516 17.8387ZM25.1425 23.1081C23.63 24.9226 21.3975 25.9677 19.0342 25.9677C16.6708 25.9677 14.4384 24.9298 12.9258 23.1081C12.3077 22.3677 11.2024 22.2734 10.4679 22.8831C9.7262 23.5 9.63167 24.596 10.2425 25.3363C12.4241 27.9492 15.6309 29.4444 19.0342 29.4444C22.4374 29.4444 25.6443 27.9492 27.8258 25.3363C28.4439 24.596 28.3421 23.5 27.6004 22.8831C26.8659 22.2734 25.7606 22.3677 25.1425 23.1081Z" fill="white" stroke="#FF8B6A"/>
</svg>
