<svg width="24" height="32" viewBox="0 0 24 32" fill="none" xmlns="http://www.w3.org/2000/svg">
<path d="M22.0221 24.9679L21.1561 28.6305C21.0771 28.9708 20.9277 29.2909 20.7176 29.5702C20.5074 29.8494 20.2411 30.0817 19.9357 30.2523C19.6303 30.4228 19.2926 30.5277 18.9441 30.5603C18.5956 30.5929 18.2441 30.5525 17.912 30.4417C14.2442 29.1435 10.9319 27.0048 8.24117 24.1975C5.72868 21.6242 3.8141 18.5308 2.6334 15.1369C1.31907 11.463 0.889888 7.5326 1.38061 3.66396C1.42987 3.31912 1.55052 2.98836 1.7349 2.69274C1.91927 2.39712 2.16332 2.14312 2.45151 1.9469C2.7397 1.75068 3.06572 1.61655 3.4088 1.55305C3.75188 1.48954 4.10452 1.49806 4.44425 1.57805L8.11413 2.44576C8.70918 2.5803 9.23512 2.9262 9.5939 3.41897C9.95269 3.91175 10.1198 4.5178 10.0642 5.12413C9.94198 6.33287 9.95713 7.55166 10.1094 8.75724C10.1706 9.23314 10.094 9.71647 9.88846 10.15C9.68294 10.5835 9.35719 10.9489 8.94981 11.2031L7.02962 12.3863C8.04836 15.8545 9.98575 18.9848 12.6374 21.4469L14.5576 20.2638C14.9678 20.0142 15.4412 19.8872 15.9217 19.898C16.4022 19.9088 16.8696 20.0569 17.2686 20.3247C18.2808 21.0004 19.3661 21.5598 20.504 21.992C21.0785 22.2162 21.5505 22.6432 21.8304 23.1919C22.1103 23.7406 22.1785 24.3727 22.0221 24.9679Z" stroke="white" stroke-width="2" stroke-linecap="round" stroke-linejoin="round"/>
</svg>
