<svg width="80" height="54" viewBox="0 0 80 54" fill="none" xmlns="http://www.w3.org/2000/svg">
<path d="M3 26.693C3 25.5435 3.39607 24.4292 4.12151 23.5375L19.3301 4.84448C20.2796 3.67745 21.7041 3 23.2086 3H25.7978C29.907 3 32.2619 7.68177 29.8121 10.9809L22.016 21.4795C21.5261 22.1393 21.9971 23.0757 22.8189 23.0757H28.9846C31.746 23.0757 33.9846 25.3143 33.9846 28.0757V46C33.9846 48.7614 31.746 51 28.9846 51H8C5.23858 51 3 48.7614 3 46V26.693ZM46.2615 26.693C46.2615 25.5435 46.6576 24.4292 47.383 23.5375L62.5916 4.84448C63.5411 3.67745 64.9656 3 66.4701 3H69.5576C73.571 3 75.9488 7.49043 73.6932 10.8101L66.4203 21.5137C65.9692 22.1776 66.4448 23.0757 67.2475 23.0757H72.2462C75.0076 23.0757 77.2462 25.3143 77.2462 28.0757V46C77.2462 48.7614 75.0076 51 72.2462 51H51.2615C48.5001 51 46.2615 48.7614 46.2615 46V26.693Z" stroke="url(#paint0_linear_118_279)" stroke-width="5"/>
<defs>
<linearGradient id="paint0_linear_118_279" x1="17.1031" y1="3" x2="79.1988" y2="50.7414" gradientUnits="userSpaceOnUse">
<stop stop-color="#F24A5E"/>
<stop offset="1" stop-color="#FD755C"/>
</linearGradient>
</defs>
</svg>
