<svg width="412" height="446" viewBox="0 0 412 446" fill="none" xmlns="http://www.w3.org/2000/svg">
<path d="M331.081 273.648C304.218 290.932 283.843 317.7 272.224 350.06C241.847 434.657 165.232 451.03 134.044 442.842C97.8189 433.314 65.2711 404.353 43.5884 369.122C21.9076 333.891 10.2427 292.888 4.59335 252.339C0.190241 220.645 -0.645937 188.059 8.30152 159.314C17.0456 131.229 34.509 108.583 52.0881 86.9781C74.6942 59.1912 98.4662 31.7279 128.52 14.0493C153.02 -0.375191 186.508 -6.61514 210.607 14.77C231.144 33.0046 237.985 65.48 258.76 83.3574C287.857 108.387 327.973 92.8681 361.339 108.47C400.254 126.655 418.571 173.372 407.338 199.851C395.63 227.457 360.851 254.494 331.081 273.648Z" stroke="url(#paint0_linear_118_85)" stroke-miterlimit="10"/>
<defs>
<linearGradient id="paint0_linear_118_85" x1="10.7302" y1="312.386" x2="396.735" y2="295.647" gradientUnits="userSpaceOnUse">
<stop stop-color="#F65260"/>
<stop offset="1" stop-color="#FB8669"/>
</linearGradient>
</defs>
</svg>
