<svg width="28" height="28" viewBox="0 0 28 28" fill="none" xmlns="http://www.w3.org/2000/svg">
<path fill-rule="evenodd" clip-rule="evenodd" d="M15.2377 2.62493C14.9096 2.29685 14.4645 2.11255 14.0005 2.11255C13.5364 2.11255 13.0914 2.29685 12.7632 2.62493L1.13099 14.2554C0.966917 14.4197 0.874836 14.6425 0.875 14.8747C0.875164 15.1069 0.96756 15.3295 1.13186 15.4936C1.29616 15.6576 1.51891 15.7497 1.75111 15.7495C1.9833 15.7494 2.20592 15.657 2.36999 15.4927L3.50049 14.3622V23.6249C3.50049 24.3211 3.77705 24.9888 4.26933 25.4811C4.76161 25.9734 5.42929 26.2499 6.12549 26.2499H21.8755C22.5717 26.2499 23.2394 25.9734 23.7316 25.4811C24.2239 24.9888 24.5005 24.3211 24.5005 23.6249V14.3622L25.631 15.4927C25.7951 15.657 26.0177 15.7494 26.2499 15.7495C26.4821 15.7497 26.7048 15.6576 26.8691 15.4936C27.0334 15.3295 27.1258 15.1069 27.126 14.8747C27.1261 14.6425 27.0341 14.4197 26.87 14.2554L22.7505 10.1377V4.37493C22.7505 4.14286 22.6583 3.9203 22.4942 3.75621C22.3301 3.59211 22.1076 3.49993 21.8755 3.49993H20.1255C19.8934 3.49993 19.6709 3.59211 19.5068 3.75621C19.3427 3.9203 19.2505 4.14286 19.2505 4.37493V6.63767L15.2377 2.62493ZM22.7505 12.6122L14.0005 3.86218L5.25049 12.6122V23.6249C5.25049 23.857 5.34267 24.0795 5.50677 24.2436C5.67086 24.4077 5.89342 24.4999 6.12549 24.4999H21.8755C22.1076 24.4999 22.3301 24.4077 22.4942 24.2436C22.6583 24.0795 22.7505 23.857 22.7505 23.6249V12.6122ZM14.0005 12.2184C16.9125 9.29068 24.1942 14.4129 14.0005 20.9999C3.80674 14.4129 11.0885 9.29068 14.0005 12.2184Z" fill="white"/>
</svg>
