<svg width="26" height="25" viewBox="0 0 26 25" fill="none" xmlns="http://www.w3.org/2000/svg">
<path d="M3 24.25H15.025C15.7463 24.2504 16.4592 24.0945 17.1146 23.793C17.7699 23.4916 18.3521 23.0517 18.8212 22.5038L25.1988 15.0638C25.3323 14.9082 25.4255 14.7223 25.4703 14.5222C25.515 14.3222 25.5099 14.1142 25.4553 13.9166C25.4007 13.719 25.2983 13.5379 25.1573 13.3891C25.0162 13.2404 24.8407 13.1287 24.6462 13.0638L22.1863 12.2438C21.5917 12.0505 20.9587 12.0068 20.3432 12.1164C19.7277 12.2261 19.1487 12.4858 18.6575 12.8725L14.6762 16.0563L13.905 14.5125C13.4918 13.6804 12.8539 12.9805 12.0634 12.4923C11.273 12.0041 10.3616 11.7469 9.4325 11.75H3C1.62125 11.75 0.5 12.8713 0.5 14.25V21.75C0.5 23.1288 1.62125 24.25 3 24.25ZM3 14.25H9.4325C10.3862 14.25 11.2425 14.7788 11.6688 15.6313L12.2275 16.75H6.75V19.25H14.2675C14.4598 19.2475 14.6489 19.2004 14.82 19.1125L14.8237 19.1113L14.8288 19.1088H14.8325L14.835 19.1075H14.84L14.8412 19.1063C14.8525 19.11 14.845 19.105 14.845 19.105C14.8575 19.105 14.8475 19.1038 14.8475 19.1038H14.8488L14.8512 19.1025L14.855 19.1013L14.8575 19.1L14.86 19.0988L14.8638 19.0975L14.8663 19.0963C14.87 19.0963 14.8675 19.095 14.8687 19.095L14.8725 19.0925L14.875 19.0913L14.8775 19.09L14.8813 19.0888L14.8837 19.0875H14.885L14.8875 19.0863H14.8888L14.8912 19.085L14.8938 19.0838C14.905 19.0825 14.8975 19.0825 14.8975 19.0825L14.9 19.0813C14.9482 19.0522 14.9941 19.0196 15.0375 18.9838L20.22 14.8375C20.5475 14.5775 20.9987 14.4963 21.395 14.6288L22.0913 14.8613L16.925 20.89C16.6874 21.1599 16.3951 21.3761 16.0675 21.5243C15.7399 21.6726 15.3846 21.7495 15.025 21.75H3V14.25ZM18 0.500012H17.9788C17.775 0.502512 16.7213 0.548762 15.5 1.38126C14.3112 0.571262 13.2825 0.506262 13.04 0.501262L13.0025 0.500012H12.9975C11.9963 0.500012 11.0538 0.891262 10.3487 1.59751C9.64125 2.30626 9.25 3.24751 9.25 4.25001C9.25 5.25251 9.64125 6.19376 10.3263 6.88001L14.5938 11.3625C14.7112 11.4844 14.852 11.5813 15.0077 11.6475C15.1635 11.7137 15.331 11.7477 15.5003 11.7476C15.6695 11.7475 15.837 11.7132 15.9927 11.6468C16.1483 11.5804 16.289 11.4833 16.4062 11.3613L20.6513 6.90126C21.36 6.19376 21.75 5.25251 21.75 4.25001C21.75 3.24751 21.3587 2.30626 20.6525 1.59876C20.3054 1.24944 19.8925 0.97246 19.4376 0.783856C18.9827 0.595252 18.4949 0.498774 18.0025 0.500012H18ZM19.25 4.25001C19.25 4.58376 19.12 4.89751 18.8612 5.15626L15.5 8.68751L12.1163 5.13376C11.88 4.89751 11.75 4.58376 11.75 4.25001C11.75 3.91626 11.88 3.60251 12.1175 3.36501C12.3435 3.13508 12.6513 3.00388 12.9738 3.00001C13.005 3.00126 13.6012 3.04001 14.3075 3.60626C14.4087 3.68751 14.5113 3.78001 14.6163 3.88376L15.5 4.76751L16.3837 3.88376C16.4887 3.78001 16.5913 3.68751 16.6925 3.60626C17.3538 3.07501 17.9125 3.00876 18.0075 3.00126C18.1704 3.00123 18.3317 3.03347 18.4821 3.09612C18.6325 3.15876 18.769 3.25058 18.8838 3.36626C19.12 3.60251 19.25 3.91626 19.25 4.25001Z" fill="white"/>
</svg>
