<svg width="232" height="47" viewBox="0 0 232 47" fill="none" xmlns="http://www.w3.org/2000/svg">
<path d="M203.04 19.1133C203.04 14.7871 206.547 11.28 210.873 11.28H223.407C227.733 11.28 231.24 14.7871 231.24 19.1133C231.24 23.4396 227.733 26.9467 223.407 26.9467H209.463H208.523H206.017C204.373 26.9467 203.04 25.614 203.04 23.97V19.1133Z" fill="url(#paint0_linear_54_364)"/>
<path d="M207.817 21.1613C207.817 21.6426 208.178 21.9935 208.67 21.9935C209.151 21.9935 209.522 21.6426 209.522 21.1613C209.522 20.67 209.151 20.319 208.67 20.319C208.178 20.319 207.817 20.67 207.817 21.1613Z" fill="white"/>
<path d="M212.637 21.9935C214.282 21.9935 215.355 20.9507 215.355 19.3565C215.355 17.7723 214.282 16.7195 212.637 16.7195C210.993 16.7195 209.92 17.7723 209.92 19.3565C209.92 20.9407 210.993 21.9935 212.637 21.9935ZM212.637 20.8404C211.845 20.8404 211.364 20.2288 211.364 19.3565C211.364 18.4842 211.845 17.8725 212.637 17.8725C213.43 17.8725 213.921 18.4842 213.921 19.3565C213.921 20.2288 213.43 20.8404 212.637 20.8404Z" fill="white"/>
<path d="M219.031 16.7796C218.228 16.7796 217.827 17.0905 217.547 17.5517L217.416 16.7796H216.133V21.9333H217.547V19.4066C217.547 18.6245 217.867 18.063 218.71 18.063H219.271V16.7796H219.031Z" fill="white"/>
<path d="M223.526 17.4915C223.185 17.0403 222.664 16.7094 221.922 16.7094C220.548 16.7094 219.536 17.7322 219.536 19.3063C219.536 20.9006 220.548 21.9133 221.932 21.9033C222.654 21.9033 223.165 21.6225 223.506 21.1914V21.7328C223.506 22.5349 223.035 22.926 222.243 22.926C221.591 22.926 221.2 22.6452 221.07 22.1539H219.646C219.716 23.3471 220.699 23.9988 222.133 23.9988C224.108 23.9988 224.89 23.0563 224.89 21.7829V16.7796H223.647L223.526 17.4915ZM222.243 20.7702C221.471 20.7702 220.979 20.1787 220.979 19.3164C220.979 18.4541 221.471 17.8525 222.243 17.8525C223.015 17.8525 223.496 18.4641 223.496 19.3264C223.496 20.1787 223.015 20.7702 222.243 20.7702Z" fill="white"/>
<rect x="9.02734" y="12.8466" width="2.50667" height="6.26667" rx="1.25333" transform="rotate(-90 9.02734 12.8466)" fill="url(#paint1_linear_54_364)"/>
<rect x="7.14648" y="21.62" width="2.50667" height="5.32667" rx="1.25333" transform="rotate(-90 7.14648 21.62)" fill="url(#paint2_linear_54_364)"/>
<rect x="7.14648" y="17.2333" width="2.50667" height="8.77333" rx="1.25333" transform="rotate(-90 7.14648 17.2333)" fill="url(#paint3_linear_54_364)"/>
<rect x="16.832" y="17.1382" width="2.41153" height="2.40976" rx="1.20488" transform="rotate(-90 16.832 17.1382)" fill="url(#paint4_linear_54_364)"/>
<path d="M27.022 10.4217C22.4379 5.83751 15.0055 5.83751 10.4213 10.4217C5.8372 15.0058 5.83719 22.4382 10.4213 27.0223L28.2777 44.8787L43.3683 29.7881C44.2023 28.9541 44.2023 27.6019 43.3683 26.7679L27.022 10.4217Z" stroke="url(#paint5_linear_54_364)" stroke-width="3"/>
<path d="M29.603 10.4217C34.1871 5.83751 41.6195 5.83751 46.2037 10.4217C50.7878 15.0058 50.7878 22.4382 46.2037 27.0223L28.3473 44.8787L20.112 36.6434C15.4919 32.0233 15.4919 24.5327 20.112 19.9127L29.603 10.4217Z" fill="url(#paint6_linear_54_364)" stroke="#FE8664" stroke-width="3"/>
<circle cx="37.7019" cy="19.0989" r="2.5" stroke="#FFF4F4" stroke-width="1.39986"/>
<rect x="36.9492" y="21.5459" width="1.50585" height="3.95286" fill="#FFF4F4"/>
<rect width="1.50585" height="4.53239" transform="matrix(-4.37114e-08 -1 -1 4.37114e-08 44.4219 20.0232)" fill="#FFF4F4"/>
<rect x="31.043" y="20.0232" width="1.50585" height="4.53239" transform="rotate(-90 31.043 20.0232)" fill="#FFF4F4"/>
<rect x="25.0244" y="27.1721" width="1.84646" height="5.73485" rx="0.923232" transform="rotate(-135 25.0244 27.1721)" fill="#FFF4F4"/>
<rect x="30.8633" y="33.2185" width="1.84646" height="5.73485" rx="0.923232" transform="rotate(-135 30.8633 33.2185)" fill="#FFF4F4"/>
<rect x="24.2285" y="34.1094" width="1.84646" height="7.17308" rx="0.923232" transform="rotate(-135 24.2285 34.1094)" fill="#FFF4F4"/>
<rect x="29.9814" y="28.3567" width="1.84646" height="1.84511" rx="0.922554" transform="rotate(-135 29.9814 28.3567)" fill="#FFF4F4"/>
<circle cx="37.7021" cy="19.0989" r="6.52925" stroke="#FFF4F4" stroke-width="2"/>
<path d="M113.411 39.7933C119.558 39.7933 123.647 35.6761 123.647 29.8951C123.647 24.0859 119.558 20.0533 113.411 20.0533H106.22V39.7933H113.411ZM110.45 23.5783H113.411C117.19 23.5783 119.305 26.1163 119.305 29.8951C119.305 33.6457 117.19 36.2683 113.411 36.2683H110.45V23.5783Z" fill="#585C6D"/>
<path d="M132.981 39.9625C137.606 39.9625 140.623 37.0297 140.623 32.5459C140.623 28.0903 137.606 25.1293 132.981 25.1293C128.356 25.1293 125.339 28.0903 125.339 32.5459C125.339 37.0015 128.356 39.9625 132.981 39.9625ZM132.981 36.7195C130.753 36.7195 129.4 34.9993 129.4 32.5459C129.4 30.0925 130.753 28.3723 132.981 28.3723C135.209 28.3723 136.591 30.0925 136.591 32.5459C136.591 34.9993 135.209 36.7195 132.981 36.7195Z" fill="#585C6D"/>
<path d="M151.131 25.1293C148.903 25.1293 147.578 25.9753 146.647 27.1033L146.28 25.2985H142.812V39.7933H146.788V32.3767C146.788 29.8669 147.972 28.4005 150.031 28.4005C152.033 28.4005 152.964 29.6977 152.964 32.1511V39.7933H156.94V31.7563C156.94 26.7931 154.261 25.1293 151.131 25.1293Z" fill="#585C6D"/>
<path d="M169.118 32.5459C169.118 35.2249 167.962 36.6631 165.988 36.6631C164.014 36.6631 163.168 35.3941 163.168 32.7997V25.2985H159.192V33.3355C159.192 38.4679 161.955 39.9625 164.944 39.9625C167.003 39.9625 168.272 39.1729 169.203 38.0449L169.569 39.7933H173.094V25.2985H169.118V32.5459Z" fill="#585C6D"/>
<path d="M193.202 25.1293C191.002 25.1293 189.31 26.0317 188.295 27.5827C187.393 25.7497 185.729 25.1011 183.952 25.1293C181.837 25.1575 180.568 25.9753 179.694 27.1033L179.327 25.2985H175.859V39.7933H179.835V31.8973C179.835 29.7259 180.963 28.4005 182.683 28.4005C184.432 28.4005 185.221 29.5285 185.221 31.6999V39.7933H189.197V31.8691C189.197 29.6695 190.354 28.4005 192.074 28.4005C193.794 28.4005 194.584 29.5285 194.584 31.6999V39.7933H198.56V31.4743C198.56 26.8213 196.191 25.1293 193.202 25.1293Z" fill="#585C6D"/>
<path d="M68.952 40.1317C73.7742 40.1317 77.1864 37.1989 77.6658 32.9125H73.4076C72.9 35.1121 71.3208 36.5503 68.9238 36.5503C65.7372 36.5503 63.8478 33.8713 63.8478 30.0925C63.8478 26.2855 65.7654 23.6347 68.9802 23.6347C71.3208 23.6347 72.9 25.0729 73.4076 27.2725H77.694C77.1864 22.9861 73.887 20.0533 69.2058 20.0533C63.2274 20.0533 59.5332 24.0295 59.5332 30.0925C59.5332 36.1555 63.0864 40.1317 68.952 40.1317Z" fill="#292C37"/>
<path d="M93.5761 36.6067C92.9557 36.6067 92.6455 36.4657 92.6455 35.7043V30.5719C92.6455 27.1033 90.3049 25.2985 86.2441 25.2985C82.4089 25.2985 79.8145 27.1597 79.5325 29.9797H83.3677C83.5369 28.9081 84.5803 28.2031 86.1313 28.2031C87.7951 28.2031 88.7257 29.0491 88.7257 30.3463V31.0513H85.8493C81.5065 31.0513 79.1941 32.7997 79.1941 35.8735C79.1941 38.6371 81.4501 40.1317 84.5803 40.1317C86.8363 40.1317 88.3027 39.2011 89.3179 37.5937C89.2897 38.9755 89.9383 39.9625 91.9969 39.9625H94.0273V36.6067H93.5761ZM88.7257 33.9841C88.6975 35.9581 87.4285 37.2553 85.3417 37.2553C84.0163 37.2553 83.1985 36.6067 83.1985 35.5915C83.1985 34.3789 84.1573 33.7021 85.8211 33.7021H88.7257V33.9841Z" fill="#292C37"/>
<path d="M103.715 25.4677C101.459 25.4677 100.331 26.3419 99.5417 27.6391L99.1751 25.4677H95.5655V39.9625H99.5417V32.8561C99.5417 30.6565 100.444 29.0773 102.813 29.0773H104.392V25.4677H103.715Z" fill="#292C37"/>
<defs>
<linearGradient id="paint0_linear_54_364" x1="217.14" y1="11.28" x2="200.533" y2="36.5033" gradientUnits="userSpaceOnUse">
<stop stop-color="#FF7E5A"/>
<stop offset="1" stop-color="#F24A5E"/>
</linearGradient>
<linearGradient id="paint1_linear_54_364" x1="10.2807" y1="15.1096" x2="10.3733" y2="20.6784" gradientUnits="userSpaceOnUse">
<stop offset="0.0107844" stop-color="#FE8664"/>
<stop offset="1" stop-color="#F6595E"/>
</linearGradient>
<linearGradient id="paint2_linear_54_364" x1="8.18422" y1="22.8733" x2="8.27658" y2="28.0814" gradientUnits="userSpaceOnUse">
<stop stop-color="#FD755C"/>
<stop offset="1" stop-color="#FFB8A4"/>
</linearGradient>
<linearGradient id="paint3_linear_54_364" x1="8.18422" y1="18.6433" x2="8.13377" y2="27.8781" gradientUnits="userSpaceOnUse">
<stop stop-color="#FE755C"/>
<stop offset="1" stop-color="#F6575E"/>
</linearGradient>
<linearGradient id="paint4_linear_54_364" x1="18.0378" y1="17.1382" x2="18.0163" y2="20.0634" gradientUnits="userSpaceOnUse">
<stop stop-color="#FB6C5D"/>
<stop offset="1" stop-color="#FE8664"/>
</linearGradient>
<linearGradient id="paint5_linear_54_364" x1="9.36068" y1="9.36099" x2="26.4764" y2="29.61" gradientUnits="userSpaceOnUse">
<stop stop-color="#FF7F5B"/>
<stop offset="1" stop-color="#F24A5E"/>
</linearGradient>
<linearGradient id="paint6_linear_54_364" x1="37.6004" y1="6.11" x2="26.3204" y2="45.7467" gradientUnits="userSpaceOnUse">
<stop stop-color="#F24A5E"/>
<stop offset="1" stop-color="#FF7F5B"/>
</linearGradient>
</defs>
</svg>
