<svg width="48" height="40" viewBox="0 0 48 40" fill="none" xmlns="http://www.w3.org/2000/svg">
<rect x="7.65234" y="10.8896" width="2.12485" height="5.31213" rx="1.06243" transform="rotate(-90 7.65234 10.8896)" fill="url(#paint0_linear_54_489)"/>
<rect x="6.05859" y="18.3267" width="2.12485" height="4.51531" rx="1.06243" transform="rotate(-90 6.05859 18.3267)" fill="url(#paint1_linear_54_489)"/>
<rect x="6.05859" y="14.6082" width="2.12485" height="7.43698" rx="1.06243" transform="rotate(-90 6.05859 14.6082)" fill="url(#paint2_linear_54_489)"/>
<rect x="14.2686" y="14.5277" width="2.04421" height="2.04271" rx="1.02135" transform="rotate(-90 14.2686 14.5277)" fill="url(#paint3_linear_54_489)"/>
<path d="M22.7446 8.99578C18.9479 5.19912 12.7923 5.19913 8.99565 8.99579C5.19898 12.7925 5.19898 18.9481 8.99565 22.7447L23.9706 37.7196L36.601 25.0892C37.2187 24.4715 37.2187 23.4699 36.601 22.8522L22.7446 8.99578Z" stroke="url(#paint4_linear_54_489)" stroke-width="3"/>
<path d="M25.2554 8.99578C29.0521 5.19912 35.2077 5.19913 39.0044 8.99579C42.801 12.7925 42.801 18.9481 39.0044 22.7447L24.0294 37.7196L17.2101 30.9003C13.383 27.0732 13.383 20.8682 17.2101 17.0411L25.2554 8.99578Z" fill="url(#paint5_linear_54_489)" stroke="#FE8664" stroke-width="3"/>
<circle cx="31.9596" cy="16.19" r="2" stroke="#FFF4F4" stroke-width="1.42504"/>
<rect x="31.3213" y="18.2643" width="1.27648" height="3.35076" fill="#FFF4F4"/>
<rect width="1.27648" height="3.84201" transform="matrix(-4.37114e-08 -1 -1 4.37114e-08 37.6572 16.9735)" fill="#FFF4F4"/>
<rect x="26.3154" y="16.9735" width="1.27648" height="3.84201" transform="rotate(-90 26.3154 16.9735)" fill="#FFF4F4"/>
<rect x="21.2129" y="23.0334" width="1.56521" height="4.86132" rx="0.782605" transform="rotate(-135 21.2129 23.0334)" fill="#FFF4F4"/>
<rect x="26.1621" y="28.1588" width="1.56521" height="4.86132" rx="0.782605" transform="rotate(-135 26.1621 28.1588)" fill="#FFF4F4"/>
<rect x="20.5381" y="28.9139" width="1.56521" height="6.08048" rx="0.782605" transform="rotate(-135 20.5381 28.9139)" fill="#FFF4F4"/>
<rect x="25.415" y="24.0375" width="1.56521" height="1.56406" rx="0.782031" transform="rotate(-135 25.415 24.0375)" fill="#FFF4F4"/>
<circle cx="31.9595" cy="16.1898" r="5.3824" stroke="#FFF4F4" stroke-width="2"/>
<defs>
<linearGradient id="paint0_linear_54_489" x1="8.71477" y1="12.8079" x2="8.79325" y2="17.5285" gradientUnits="userSpaceOnUse">
<stop offset="0.0107844" stop-color="#FE8664"/>
<stop offset="1" stop-color="#F6595E"/>
</linearGradient>
<linearGradient id="paint1_linear_54_489" x1="6.93827" y1="19.3891" x2="7.01655" y2="23.804" gradientUnits="userSpaceOnUse">
<stop stop-color="#FD755C"/>
<stop offset="1" stop-color="#FFB8A4"/>
</linearGradient>
<linearGradient id="paint2_linear_54_489" x1="6.93827" y1="15.8034" x2="6.89549" y2="23.6316" gradientUnits="userSpaceOnUse">
<stop stop-color="#FE755C"/>
<stop offset="1" stop-color="#F6575E"/>
</linearGradient>
<linearGradient id="paint3_linear_54_489" x1="15.2907" y1="14.5277" x2="15.2725" y2="17.0074" gradientUnits="userSpaceOnUse">
<stop stop-color="#FB6C5D"/>
<stop offset="1" stop-color="#FE8664"/>
</linearGradient>
<linearGradient id="paint4_linear_54_489" x1="7.93499" y1="7.93513" x2="22.4436" y2="25.0998" gradientUnits="userSpaceOnUse">
<stop stop-color="#FF7F5B"/>
<stop offset="1" stop-color="#F24A5E"/>
</linearGradient>
<linearGradient id="paint5_linear_54_489" x1="31.8731" y1="5.17933" x2="22.3113" y2="38.7785" gradientUnits="userSpaceOnUse">
<stop stop-color="#F24A5E"/>
<stop offset="1" stop-color="#FF7F5B"/>
</linearGradient>
</defs>
</svg>
